<svg width="211" height="72" xmlns="http://www.w3.org/2000/svg"><g fill="#242426" fill-rule="evenodd"><path d="M93.79 46.97a12.5 12.5 0 0 1-3.35-.443 9.996 9.996 0 0 1-2.955-1.36 10.244 10.244 0 0 1-2.352-2.193c-.665-.852-1.187-1.87-1.565-3.051-.379-1.182-.568-2.468-.568-3.857 0-1.23.15-2.4.451-3.509.301-1.108.755-2.12 1.362-3.036a10.264 10.264 0 0 1 2.184-2.386c.85-.675 1.854-1.2 3.014-1.574 1.16-.374 2.42-.561 3.779-.561 1 0 1.985.138 2.955.414.971.276 1.94.729 2.905 1.359.644.42 1.5 1.203 2.57 2.35l-1.716 1.485a2 2 0 0 1-2.597.018c-.432-.363-.815-.636-1.147-.817a6.121 6.121 0 0 0-2.97-.76c-.525 0-1.03.054-1.515.162a6.022 6.022 0 0 0-2.555 1.248c-.364.3-.69.648-.976 1.042a6.831 6.831 0 0 0-.735 1.293c-.204.468-.36.977-.466 1.529a9.161 9.161 0 0 0-.16 1.743c0 1.32.27 2.502.808 3.546a5.995 5.995 0 0 0 2.271 2.446c.976.586 2.085.879 3.328.879a6.295 6.295 0 0 0 2.985-.739c.33-.174.708-.443 1.134-.804a2 2 0 0 1 2.608.016l1.703 1.483c-1.45 1.479-2.653 2.466-3.61 2.962-1.437.744-3.044 1.115-4.82 1.115zm25.32-.221l-.983-2.935a2 2 0 0 0-1.897-1.365h-5.247a2 2 0 0 0-1.896 1.365l-.984 2.935h-4.383l7.369-20.184a2 2 0 0 1 1.878-1.314h1.252a2 2 0 0 1 1.878 1.312l7.397 20.186h-4.383zm-6.968-7.934h2.908a1 1 0 0 0 .947-1.322l-1.942-5.712a.5.5 0 0 0-.948.002l-1.913 5.714a1 1 0 0 0 .948 1.318zm30.455 7.934h-4.965l-4.156-6.442a2 2 0 0 0-1.68-.916h-.126c-.672 0-1.216.544-1.216 1.216v6.142h-4.136V27.25a2 2 0 0 1 2-2h6.009c1.242 0 2.342.177 3.298.532.956.355 1.728.857 2.315 1.507a6.498 6.498 0 0 1 1.325 2.26c.296.858.444 1.813.444 2.867 0 1.123-.177 2.12-.531 2.992-.355.872-.85 1.593-1.485 2.165-.135.12-.305.247-.51.38a2 2 0 0 0-.58 2.787l3.994 6.008zm-12.143-16.715v4.604a1 1 0 0 0 1 1h1.941c1.272 0 2.252-.298 2.941-.894.69-.596 1.034-1.401 1.034-2.416 0-1.014-.332-1.817-.997-2.408-.665-.59-1.6-.886-2.803-.886h-2.116a1 1 0 0 0-1 1zm29.879 7.251c.737.941 1.106 2.116 1.106 3.524 0 .867-.143 1.66-.43 2.379a5.24 5.24 0 0 1-1.266 1.876c-.558.532-1.277.946-2.155 1.242-.879.295-1.886.443-3.022.443h-8.765V27.25a2 2 0 0 1 2-2h5.644c2.252 0 3.968.448 5.148 1.345 1.179.896 1.769 2.196 1.769 3.9 0 .67-.102 1.303-.306 1.899-.204.596-.549 1.157-1.034 1.684a3.006 3.006 0 0 1-.372.334 1 1 0 0 0 .118 1.661c.737.417 1.259.821 1.565 1.211zm-10.411-7.266v3.038a1 1 0 0 0 1 1h2c.582 0 1.106-.086 1.572-.258a2.586 2.586 0 0 0 1.157-.843c.306-.389.459-.869.459-1.44 0-.512-.117-.95-.35-1.315-.233-.365-.611-.653-1.135-.865-.524-.211-1.185-.317-1.98-.317h-1.723a1 1 0 0 0-1 1zM153.3 43.01c.757 0 1.414-.101 1.973-.303.558-.202.997-.507 1.317-.916.32-.409.48-.914.48-1.515 0-.866-.317-1.549-.953-2.046-.636-.497-1.56-.746-2.774-.746h-2.421a1 1 0 0 0-1 1v3.526a1 1 0 0 0 1 1h2.378zM174.588 47c-1.583 0-3.046-.276-4.39-.827-1.345-.552-2.486-1.31-3.422-2.276-.937-.965-1.67-2.13-2.199-3.494-.529-1.364-.794-2.834-.794-4.41s.265-3.044.794-4.403c.53-1.36 1.262-2.522 2.199-3.487.936-.966 2.08-1.724 3.429-2.276 1.35-.551 2.81-.827 4.383-.827 1.543 0 2.977.268 4.302.805 1.325.537 2.464 1.28 3.415 2.231.951.95 1.699 2.11 2.242 3.48.544 1.369.816 2.861.816 4.477 0 1.615-.272 3.11-.816 4.484-.543 1.374-1.29 2.536-2.242 3.487-.951.95-2.09 1.694-3.415 2.23-1.325.538-2.759.806-4.302.806zm.014-3.96a6.14 6.14 0 0 0 2.541-.532 6.125 6.125 0 0 0 2.039-1.462c.567-.62 1.014-1.37 1.34-2.246a8.007 8.007 0 0 0 .487-2.807c0-1.33-.28-2.532-.837-3.605-.558-1.074-1.325-1.911-2.3-2.512-.977-.601-2.066-.902-3.27-.902-1.242 0-2.359.313-3.349.939a6.298 6.298 0 0 0-2.293 2.541c-.539 1.069-.808 2.248-.808 3.539 0 1.3.27 2.484.808 3.553a6.35 6.35 0 0 0 2.293 2.549c.99.63 2.107.945 3.35.945zm28.204-17.789H207V46.75h-3.218a2 2 0 0 1-1.67-.9l-6.95-10.556a1 1 0 0 0-1.835.55V46.75h-4.179v-21.5h3.096a2 2 0 0 1 1.675.907l7.05 10.802a1 1 0 0 0 1.837-.547V25.251z"/><path d="M26.69 53H15.41a3.056 3.056 0 0 1-2.627-1.479l-8.362-14a2.96 2.96 0 0 1 0-3.042l8.362-14A3.056 3.056 0 0 1 15.41 19h11.28a6 6 0 0 0 5.151-2.923l6.33-10.598A3.056 3.056 0 0 1 40.798 4H55.59c1.08 0 2.078.563 2.626 1.479l8.362 14a2.96 2.96 0 0 1 0 3.042l-6.213 10.402a6 6 0 0 0 0 6.154l6.213 10.402a2.96 2.96 0 0 1 0 3.042l-8.362 14A3.056 3.056 0 0 1 55.59 68H40.797a3.056 3.056 0 0 1-2.626-1.479l-6.33-10.598A6 6 0 0 0 26.688 53zM15.106 24.479l-5.974 10a2.96 2.96 0 0 0 0 3.042l5.974 10A3.056 3.056 0 0 0 17.733 49H27.88c1.08 0 2.079-.563 2.626-1.479l5.973-10a2.96 2.96 0 0 0 0-3.042l-5.973-10A3.056 3.056 0 0 0 27.88 23H17.733c-1.08 0-2.079.563-2.626 1.479zm25.387-15l-5.973 10a2.96 2.96 0 0 0 0 3.042l5.973 10A3.056 3.056 0 0 0 43.12 34h10.147c1.08 0 2.079-.563 2.626-1.479l5.974-10a2.96 2.96 0 0 0 0-3.042l-5.974-10A3.056 3.056 0 0 0 53.267 8H43.12c-1.08 0-2.079.563-2.626 1.479zm0 30l-5.973 10a2.96 2.96 0 0 0 0 3.042l5.973 10A3.056 3.056 0 0 0 43.12 64h10.147c1.08 0 2.079-.563 2.626-1.479l5.974-10a2.96 2.96 0 0 0 0-3.042l-5.974-10A3.056 3.056 0 0 0 53.267 38H43.12c-1.08 0-2.079.563-2.626 1.479z" fill-rule="nonzero"/></g></svg>