<svg width="72" height="72" xmlns="http://www.w3.org/2000/svg">

 <g>
  <title>background</title>
  <rect fill="none" id="canvas_background" height="74" width="74" y="-1" x="-1"/>
 </g>
 <g>
  <title>Layer 1</title>
  <g id="svg_1" fill-rule="evenodd" fill="#242426">
   <path fill="#2ffcce" id="svg_2" d="m93.79,46.97a12.5,12.5 0 0 1 -3.35,-0.443a9.996,9.996 0 0 1 -2.955,-1.36a10.244,10.244 0 0 1 -2.352,-2.193c-0.665,-0.852 -1.187,-1.87 -1.565,-3.051c-0.379,-1.182 -0.568,-2.468 -0.568,-3.857c0,-1.23 0.15,-2.4 0.451,-3.509c0.301,-1.108 0.755,-2.12 1.362,-3.036a10.264,10.264 0 0 1 2.184,-2.386c0.85,-0.675 1.854,-1.2 3.014,-1.574c1.16,-0.374 2.42,-0.561 3.779,-0.561c1,0 1.985,0.138 2.955,0.414c0.971,0.276 1.94,0.729 2.905,1.359c0.644,0.42 1.5,1.203 2.57,2.35l-1.716,1.485a2,2 0 0 1 -2.597,0.018c-0.432,-0.363 -0.815,-0.636 -1.147,-0.817a6.121,6.121 0 0 0 -2.97,-0.76c-0.525,0 -1.03,0.054 -1.515,0.162a6.022,6.022 0 0 0 -2.555,1.248c-0.364,0.3 -0.69,0.648 -0.976,1.042a6.831,6.831 0 0 0 -0.735,1.293c-0.204,0.468 -0.36,0.977 -0.466,1.529a9.161,9.161 0 0 0 -0.16,1.743c0,1.32 0.27,2.502 0.808,3.546a5.995,5.995 0 0 0 2.271,2.446c0.976,0.586 2.085,0.879 3.328,0.879a6.295,6.295 0 0 0 2.985,-0.739c0.33,-0.174 0.708,-0.443 1.134,-0.804a2,2 0 0 1 2.608,0.016l1.703,1.483c-1.45,1.479 -2.653,2.466 -3.61,2.962c-1.437,0.744 -3.044,1.115 -4.82,1.115zm25.32,-0.221l-0.983,-2.935a2,2 0 0 0 -1.897,-1.365l-5.247,0a2,2 0 0 0 -1.896,1.365l-0.984,2.935l-4.383,0l7.369,-20.184a2,2 0 0 1 1.878,-1.314l1.252,0a2,2 0 0 1 1.878,1.312l7.397,20.186l-4.383,0l-0.001,0zm-6.968,-7.934l2.908,0a1,1 0 0 0 0.947,-1.322l-1.942,-5.712a0.5,0.5 0 0 0 -0.948,0.002l-1.913,5.714a1,1 0 0 0 0.948,1.318zm30.455,7.934l-4.965,0l-4.156,-6.442a2,2 0 0 0 -1.68,-0.916l-0.126,0c-0.672,0 -1.216,0.544 -1.216,1.216l0,6.142l-4.136,0l0,-19.499a2,2 0 0 1 2,-2l6.009,0c1.242,0 2.342,0.177 3.298,0.532c0.956,0.355 1.728,0.857 2.315,1.507a6.498,6.498 0 0 1 1.325,2.26c0.296,0.858 0.444,1.813 0.444,2.867c0,1.123 -0.177,2.12 -0.531,2.992c-0.355,0.872 -0.85,1.593 -1.485,2.165c-0.135,0.12 -0.305,0.247 -0.51,0.38a2,2 0 0 0 -0.58,2.787l3.994,6.008l0,0.001zm-12.143,-16.715l0,4.604a1,1 0 0 0 1,1l1.941,0c1.272,0 2.252,-0.298 2.941,-0.894c0.69,-0.596 1.034,-1.401 1.034,-2.416c0,-1.014 -0.332,-1.817 -0.997,-2.408c-0.665,-0.59 -1.6,-0.886 -2.803,-0.886l-2.116,0a1,1 0 0 0 -1,1zm29.879,7.251c0.737,0.941 1.106,2.116 1.106,3.524c0,0.867 -0.143,1.66 -0.43,2.379a5.24,5.24 0 0 1 -1.266,1.876c-0.558,0.532 -1.277,0.946 -2.155,1.242c-0.879,0.295 -1.886,0.443 -3.022,0.443l-8.765,0l0,-19.499a2,2 0 0 1 2,-2l5.644,0c2.252,0 3.968,0.448 5.148,1.345c1.179,0.896 1.769,2.196 1.769,3.9c0,0.67 -0.102,1.303 -0.306,1.899c-0.204,0.596 -0.549,1.157 -1.034,1.684a3.006,3.006 0 0 1 -0.372,0.334a1,1 0 0 0 0.118,1.661c0.737,0.417 1.259,0.821 1.565,1.211l0,0.001zm-10.411,-7.266l0,3.038a1,1 0 0 0 1,1l2,0c0.582,0 1.106,-0.086 1.572,-0.258a2.586,2.586 0 0 0 1.157,-0.843c0.306,-0.389 0.459,-0.869 0.459,-1.44c0,-0.512 -0.117,-0.95 -0.35,-1.315c-0.233,-0.365 -0.611,-0.653 -1.135,-0.865c-0.524,-0.211 -1.185,-0.317 -1.98,-0.317l-1.723,0a1,1 0 0 0 -1,1zm3.378,12.991c0.757,0 1.414,-0.101 1.973,-0.303c0.558,-0.202 0.997,-0.507 1.317,-0.916c0.32,-0.409 0.48,-0.914 0.48,-1.515c0,-0.866 -0.317,-1.549 -0.953,-2.046c-0.636,-0.497 -1.56,-0.746 -2.774,-0.746l-2.421,0a1,1 0 0 0 -1,1l0,3.526a1,1 0 0 0 1,1l2.378,0zm17.91,-9.001c-1.583,0 -3.046,-0.276 -4.39,-0.827c-1.345,-0.552 -2.486,-1.31 -3.422,-2.276c-0.937,-0.965 -1.67,-2.13 -2.199,-3.494c-0.529,-1.364 -0.794,-2.834 -0.794,-4.41s0.265,-3.044 0.794,-4.403c0.53,-1.36 1.262,-2.522 2.199,-3.487c0.936,-0.966 2.08,-1.724 3.429,-2.276c1.35,-0.551 2.81,-0.827 4.383,-0.827c1.543,0 2.977,0.268 4.302,0.805c1.325,0.537 2.464,1.28 3.415,2.231c0.951,0.95 1.699,2.11 2.242,3.48c0.544,1.369 0.816,2.861 0.816,4.477c0,1.615 -0.272,3.11 -0.816,4.484c-0.543,1.374 -1.29,2.536 -2.242,3.487c-0.951,0.95 -2.09,1.694 -3.415,2.23c-1.325,0.538 -2.759,0.806 -4.302,0.806zm-21.274,-7.95a6.14,6.14 0 0 0 2.541,-0.532a6.125,6.125 0 0 0 2.039,-1.462c0.567,-0.62 1.014,-1.37 1.34,-2.246a8.007,8.007 0 0 0 0.487,-2.807c0,-1.33 -0.28,-2.532 -0.837,-3.605c-0.558,-1.074 -1.325,-1.911 -2.3,-2.512c-0.977,-0.601 -2.066,-0.902 -3.27,-0.902c-1.242,0 -2.359,0.313 -3.349,0.939a6.298,6.298 0 0 0 -2.293,2.541c-0.539,1.069 -0.808,2.248 -0.808,3.539c0,1.3 0.27,2.484 0.808,3.553a6.35,6.35 0 0 0 2.293,2.549c0.99,0.63 2.107,0.945 3.35,0.945l-0.001,0zm28.204,-17.789l28.86,0l0,38.48l-3.218,0a2,2 0 0 1 -1.67,-0.9l-6.95,-10.556a1,1 0 0 0 -1.835,0.55l0,10.906l-4.179,0l0,-21.5l3.096,0a2,2 0 0 1 1.675,0.907l7.05,10.802a1,1 0 0 0 1.837,-0.547l0,-11.161l-24.666,-16.981z"/>
   <path fill="#2ffcce" id="svg_3" fill-rule="nonzero" d="m26.69,53l-11.28,0a3.056,3.056 0 0 1 -2.627,-1.479l-8.362,-14a2.96,2.96 0 0 1 0,-3.042l8.362,-14a3.056,3.056 0 0 1 2.627,-1.479l11.28,0a6,6 0 0 0 5.151,-2.923l6.33,-10.598a3.056,3.056 0 0 1 2.627,-1.479l14.792,0c1.08,0 2.078,0.563 2.626,1.479l8.362,14a2.96,2.96 0 0 1 0,3.042l-6.213,10.402a6,6 0 0 0 0,6.154l6.213,10.402a2.96,2.96 0 0 1 0,3.042l-8.362,14a3.056,3.056 0 0 1 -2.626,1.479l-14.793,0a3.056,3.056 0 0 1 -2.626,-1.479l-6.33,-10.598a6,6 0 0 0 -5.153,-2.923l0.002,0zm-11.584,-28.521l-5.974,10a2.96,2.96 0 0 0 0,3.042l5.974,10a3.056,3.056 0 0 0 2.627,1.479l10.147,0c1.08,0 2.079,-0.563 2.626,-1.479l5.973,-10a2.96,2.96 0 0 0 0,-3.042l-5.973,-10a3.056,3.056 0 0 0 -2.626,-1.479l-10.147,0c-1.08,0 -2.079,0.563 -2.626,1.479l-0.001,0zm25.388,-15l-5.973,10a2.96,2.96 0 0 0 0,3.042l5.973,10a3.056,3.056 0 0 0 2.626,1.479l10.147,0c1.08,0 2.079,-0.563 2.626,-1.479l5.974,-10a2.96,2.96 0 0 0 0,-3.042l-5.974,-10a3.056,3.056 0 0 0 -2.626,-1.479l-10.147,0c-1.08,0 -2.079,0.563 -2.626,1.479zm0,30l-5.973,10a2.96,2.96 0 0 0 0,3.042l5.973,10a3.056,3.056 0 0 0 2.626,1.479l10.147,0c1.08,0 2.079,-0.563 2.626,-1.479l5.974,-10a2.96,2.96 0 0 0 0,-3.042l-5.974,-10a3.056,3.056 0 0 0 -2.626,-1.479l-10.147,0c-1.08,0 -2.079,0.563 -2.626,1.479z"/>
  </g>
 </g>
</svg>