<svg height="468" viewBox="0 0 468 468" width="468" xmlns="http://www.w3.org/2000/svg" xmlns:xlink="http://www.w3.org/1999/xlink"><mask id="a" fill="#fff"><use fill="#fff" fill-rule="evenodd" xlink:href="#b"/></mask><g fill="none" fill-rule="evenodd"><use fill="#fff" fill-opacity=".1" xlink:href="#b"/><g fill-rule="nonzero" mask="url(#a)"><g transform="matrix(-1 -.00000056 .00000056 -1 110.891925 611.594104)"><path d="m12.3890096 8.8652159c-.3221164.32545288-.6924473.5989492-1.0978616.81079149l-3.97715908 2.07895251c-2.12425591.8542182-4.54540028-.0806721-5.55137707-2.14358492-1.00597679-2.06291283-.25616707-4.55535576 1.71921863-5.71485563l3.85287281-1.93342585c1.8750675-.83109353 4.07371471-.24274801 5.28760661 1.41493351 1.2138918 1.65768152 1.1168829 3.93931735-.2333003 5.48718889z" fill="#7383bf" transform="translate(57.017175 335.71439)"/><path d="m81.979866 8.29856141c.4206223-.19675422.80018-.47191907 1.1184888-.81076709 1.3883088-1.3467186 1.7025576-3.46112792.7664235-5.15583372-.5229358-1.01118862-1.4364495-1.7626966-2.5270979-2.07895863-1.0724361-.36661482-2.2476497-.2764455-3.2521088.24949366l-.331533.14552827c-2.1033435 1.13186066-2.9437761 3.72662969-1.9056766 5.88341685.2230714.41725865.5018236.80197718.8286005 1.14344471 1.3426041 1.29077753 3.3473462 1.59842429 5.0128992.76920422.1040535-.0318998.202075-.08108835.2900043-.14552827zm-15.3701146 8.56532819c.2910484-.2175939.5678285-.4536989.8286005-.7068599 1.5148667-1.563905 1.6472247-4.0099441.3101886-5.7293315-1.337152-1.71944561-3.733516-2.18461217-5.6130922-1.08959926-2.6099232 1.57997126-5.199314 3.18078226-7.6435867 4.76075356-1.9860658 1.3469515-2.5536623 4.0299106-1.2842553 6.0705662.1764387.2490862.3702776.4852495.5800087.7068599 1.465914 1.4690788 3.7582244 1.7034957 5.4893184.5612734 2.2370936-1.4552244 4.6193053-2.9728514 7.332818-4.5736624zm-21.3772647 14.6981805c.136766-.0879573.2620479-.1927376.3728296-.311838 1.6234443-1.5878298 1.7761026-4.154832.3521813-5.9250379-.733479-.9107159-1.800811-1.4875317-2.9622205-1.6008109-1.134033-.1541436-2.2811742.1693949-3.1692835.893951-2.5064496 1.9958329-4.8678971 3.9916076-6.9393401 5.9042565-.8730291.7787509-1.4010691 1.8745205-1.4670741 3.0449753-.0661209 1.1704547.3351291 2.3190803 1.1150088 3.1918424l.1450022.1455283c1.6141642 1.6825396 4.270952 1.7655489 5.9863858.1871493 2.0922074-1.8503046 4.3086526-3.700551 6.5665105-5.530016zm-24.1321901 25.0305712c-1.4932904 1.5053444-3.8549698 1.6991881-5.5721436.4573662-.2205193-.1487881-.4283944-.3156799-.6214213-.4989291-1.4819222-1.501095-1.665901-3.8571976-.4350065-5.5716371 0 0 2.5064496-3.617367 5.6343205-7.3386995 1.001559-1.2056144 2.5708306-1.7788211 4.1101737-1.5013278s2.8117662 1.3630177 3.332614 2.8430402.2099631 3.1268204-.8142162 4.3130504c-1.8228514 2.2244869-3.5835258 4.5737207-5.1579014 6.6526211-.1376941.22976-.2971965.4456076-.4764192.6445156zm-11.41364323 23.8247821c-1.08809632 1.0794705-2.65771587 1.5126209-4.14277015 1.1434447-.78185173-.1594989-1.50106252-.5420637-2.07144308-1.1018818-1.07556814-1.0921023-1.50721061-2.6673585-1.1393691-4.1578591.81479623-3.0397362 1.81786328-6.0253942 3.00363307-8.9395104.97453062-2.1788493 3.46659601-3.2247318 5.69638149-2.3907967 2.2202733.9292271 3.2823852 3.4782421 2.3822117 5.7171072-1.064664 2.5452312-1.9439571 5.1646818-2.6306875 7.8376286-.201611.7132632-.5791966 1.3639492-1.09795643 1.8918675zm-.51794777 26.2779816c-.57200458.565755-1.28901134.961476-2.07132707 1.143386-1.44723772.32546-2.9592044-.122709-3.99788399-1.185007-.57722466-.573673-.99193088-1.291244-1.20143002-2.078901-.68742632-3.106504-1.13066897-6.2623723-1.32578389-9.4384976-.07493713-2.4155947 1.74373816-4.4691149 4.14288615-4.6776279 2.41074817-.1068759 4.46374698 1.7411003 4.61930531 4.1579173.15625434 2.707699.53035996 5.3983422 1.11860481 8.0455592.3165687 1.496729-.1707546 3.050506-1.2843713 4.033171zm10.6679841 24.323769c.1450021-.145528.3314169-.270275.5178317-.457366 1.5408511-1.478276 1.7257579-3.918727.4350066-5.675544l-.1656505-.228713c-1.6032601-2.156205-3.0567619-4.420741-4.3500653-6.777367-.5653925-1.015322-1.5127787-1.760718-2.6301075-2.069412-1.1174447-.308695-2.3114506-.154901-3.3148657.427038-2.05740686 1.212017-2.78230173 3.845788-1.63643654 5.945819 1.55140724 2.70345 3.23842054 5.326276 5.05431184 7.85841.135722.186858.2882643.360852.4556548.519769 1.5250749 1.490326 3.8904664 1.682365 5.6343206.457366zm18.9537563 18.481857c-1.5558153 1.565011-4.0343085 1.708153-5.7586744.332678-2.4442726-1.954212-4.7435431-3.970826-6.9599884-6.008164-.868157-.789869-1.3801887-1.899085-1.4191653-3.07443-.0390926-1.175344.398234-2.316344 1.2119862-3.162446.7716436-.893077 1.8766762-1.426351 3.0533978-1.473561 1.1768377-.047267 2.3207308.395721 3.1609314 1.224068 1.9472053 1.829465 4.1428862 3.658988 6.4421567 5.550797l.3107687.311838c1.6246043 1.548421 1.7957069 4.088064.3935939 5.841854zm16.9649066 15.425822c1.7020935.922417 3.8050891.618495 5.1786657-.748422.2736481-.279124.5397561-.609415.7456592-.977077.9493582-1.720261.6355735-3.865173-.7664235-5.23896-.2794482-.283547-.6007731-.521981-.9528383-.70686-2.7136288-1.55919-5.1786657-2.972909-7.4365236-4.365789-2.0534628-1.274479-4.7476032-.63689-6.0174743 1.424081-1.269871 2.060971-.6346455 4.764887 1.4189333 6.039365 2.40286 1.476064 5.0543118 3.035254 7.8300015 4.573662zm29.1037926 10.706631c-1.3009595 1.294678-3.266145 1.642724-4.9300739.87317l-4.660718-2.078959-3.3971109-1.476064c-1.0606039-.451021-1.8861883-1.324773-2.2786222-2.411578-.4488108-1.077491-.4488108-2.290498 0-3.367931 1.0213953-2.164122 3.5607894-3.135902 5.7585584-2.203706 1.0564278.498988 2.0714431.956354 3.2314605 1.455283 1.532847.623676 3.1486352 1.351317 4.867897 2.078959.4575109.217186.8827732.497066 1.263607.831606 1.2956234 1.302711 1.6430486 3.278752.870013 4.947903-.1561383.500326-.4174903.961185-.7250109 1.351317zm17.7936228 13.367645c1.863568 1.002108 4.038601.720714 5.44779-.686078.206599-.192854.429322-.416386.621421-.665239 1.102017-1.734988.861313-4.004414-.580008-5.467672-.152079-.141861-.318773-.267306-.497068-.374182l-.227943-.16631c-2.527098-1.600811-5.116373-3.222403-7.7678249-4.698467-2.0877993-1.205557-4.7542153-.484202-5.9554133 1.61123-1.201198 2.095375-.4824513 4.771407 1.6053481 5.976963 2.3614474 1.330536 4.7643071 2.8066 7.1465191 4.324227.057073.063741.12795.113512.207179.145528zm26.017335 15.945533c-1.684462 1.661525-4.384982 1.661525-6.069328 0l-.393593-.394964-.393594-.395022c-1.657201-1.663155-3.480053-3.367932-5.364965-5.010247-.882425-.748714-1.433549-1.81759-1.532963-2.97291-.082477-1.168126.288729-2.322922 1.03578-3.222403.754823-.903265 1.843035-1.459998 3.014769-1.542309 1.17185-.082311 2.326647.316786 3.19956 1.105724 2.071443 1.76712 3.997884 3.596585 5.862148 5.44689l.870013.873111c1.585164 1.763396 1.484126 4.472608-.227827 6.11213zm13.774974 22.57743c.468995-.223182.896462-.525532 1.263491-.893893 1.264767-1.264 1.641425-3.170537.952954-4.823156-1.296551-2.861552-2.770237-5.63893-4.412242-8.315835-1.269871-2.060971-3.964011-2.69856-6.017474-1.424081-2.053579 1.274478-2.688804 3.978393-1.418933 6.039307 1.441437 2.320302 2.735205 4.729785 3.87353 7.214011.201611.50085.504955.953966.890777 1.330477 1.286808 1.272965 3.221369 1.619904 4.867897.87317zm6.152153 24.885101c-.854701.894126-2.062279 1.359117-3.293522 1.268191-1.075568-.056581-2.092903-.507951-2.858631-1.268191-.890893-.857802-1.354204-2.069761-1.263607-3.305471.12621-2.711483.049997-5.42867-.227827-8.128743-.230728-2.386082 1.480994-4.519643 3.852882-4.802433 1.153637-.15461 2.31899.184879 3.210696.935572.886137.727176 1.457678 1.770089 1.595024 2.910565.301604 2.990432.391506 5.998559.269356 9.001797v.56139c-.051389 1.086688-.501476 2.115981-1.263607 2.889725zm-12.097126 26.236418c1.677501.863623 3.720292.526114 5.033548-.831606l.020764.062402c.336985-.351363.597989-.768971.766423-1.226629l.124238-.249377c1.344808-2.704264 2.541134-5.480362 3.583642-8.315834.39197-1.091695.334897-2.295039-.15869-3.344356-.493588-1.049201-1.383089-1.858222-2.472113-2.248005-2.256466-.761986-4.710947.391879-5.572144 2.619393-.930334 2.619625-2.030495 5.175218-3.293637 7.650595-.833125 1.687779-.49962 3.7211.8286 5.051811.329677.340419.715035.621696 1.139369.831606zm-16.136538 21.101366c1.72715 1.54912 4.356445 1.485437 6.00715-.145528l.248592-.166368c3.107106-3.471839 5.924325-7.047643 5.924325-7.047643 1.45733-1.919343 1.096332-4.659582-.807952-6.13291-1.928529-1.506742-4.708279-1.162713-6.214214.769204-1.595024 2.120521-3.355814 4.22032-5.427257 6.507093-1.59688 1.725965-1.541895 4.411951.124354 6.070624zm-6.918576 12.39051.248592-.249494c1.674833-1.615596 1.775058-4.249658.248592-5.987382-.755636-.897153-1.836888-1.454468-3.003633-1.548071-1.166862-.093721-2.322587.283954-3.210697 1.0492-2.112855 1.829465-4.329301 3.67977-6.587158 5.38443l.124237.187091-.186414-.124689c-1.9249333 1.511399-2.2677184 4.30135-.766424 6.236876.105446.160663.230728.307356.37283.436585 1.567763 1.537943 4.025376 1.679862 5.758558.332619 2.444389-1.871027 4.785072-3.804458 7.001517-5.717165zm-21.0458476 15.571408c-.2197073.211657-.4551909.406315-.7043626.581997-2.3406831 1.476122-4.8471327 3.056094-7.394995 4.573779l-.2485917.187091c-1.0128112.575244-2.2090211.731833-3.33505.436585-1.1280009-.303747-2.0848993-1.053974-2.6514518-2.078959-1.2169743-2.085827-.533144-4.766109 1.532963-6.008222 2.4235084-1.455282 4.9093097-2.993691 7.332818-4.573662.9824188-.611917 2.1620405-.82043 3.2936374-.582113 1.133337.235639 2.1254999.916944 2.7549254 1.891867 1.1473732 1.753092.9048135 4.074675-.5798927 5.571637z" fill="#7383bf" transform="translate(0 3.814936)"/><path d="m90.1619837 344.75109c-1.3156777 1.320042-3.322131 1.654271-4.9921631.831581-53.8573619-26.423487-84.12105644-61.661732-83.27176727-96.692082.78714605-31.849553 26.80439477-60.45594 73.32886967-80.559411 42.816603-18.523467 66.762414-43.949056 67.425274-71.5575457.766432-31.184288-28.067971-63.4080522-79.0874643-88.48021975-1.9753857-1.15949986-2.7251954-3.65194279-1.7192186-5.71485562s3.4271211-2.99780314 5.551377-2.14358494c54.2095059 26.63138191 84.8253449 61.82804821 84.0589129 96.54655551-.745717 31.1842875-26.576536 59.4372525-72.7074381 79.3744075-43.2930332 18.710573-67.4459886 44.489584-68.1502772 72.763339-.76643168 31.475341 27.7986845 63.761474 78.3831759 88.625746 1.0515375.499312 1.8613635 1.398735 2.2501563 2.499109.3887929 1.100374.3244722 2.310903-.1787193 3.363537-.2328536.427299-.5337253.813531-.8907179 1.143424z" fill="#d75a4a" transform="translate(0 1.907468)"/><path d="m137.258152 7.53552339c-.816684.82509216-1.927633 1.28904349-3.086441 1.28895057h-129.67195631c-1.55781193.00000003-2.99728952-.83409803-3.7761955-2.18809751-.77890597-1.35399948-.77890597-3.02219565 0-4.37619513.77890597-1.35399949 2.21838356-2.18809755 3.77619549-2.18809752h129.67195632c1.765966-.00860357 3.361863 1.05517996 4.03883 2.6921793s.300642 3.52230769-.952389 4.77126029z" fill="#57abc1" transform="translate(6.201906 269.956284)"/><path d="m85.7846996 7.70901843c-.8166838.82509216-1.9276329 1.28904349-3.0864411 1.28895057h-78.23817533c-1.55781193.00000003-2.99728953-.83409803-3.7761955-2.18809751s-.77890598-3.02219565 0-4.37619513c.77890597-1.35399949 2.21838356-2.18809755 3.77619549-2.18809752h78.30031844c1.7659665-.00860357 3.3618638 1.05517996 4.0388308 2.6921793.6769669 1.63699934.3006412 3.52230769-1.0145328 4.77126029z" fill="#f36" transform="translate(31.409537 304.79235)"/><path d="m100.704312 7.76350147c-.816684.82509216-1.9276331 1.28904349-3.0864413 1.28895056h-93.21466484c-2.40816854 0-4.36037487-1.95928927-4.36037487-4.37619507 0-2.41690581 1.95220633-4.37619508 4.36037487-4.37619508h93.21466484c1.7659665-.00860358 3.3618633 1.05517996 4.0388303 2.6921793s.300642 3.52230769-.952389 4.77126029z" fill="#f36" transform="translate(25.707819 140.750091)"/><path d="m102.636835 7.61187292c-.816684.82509216-1.927633 1.28904349-3.086441 1.28895057h-95.01681503c-2.40816854 0-4.36037487-1.95928928-4.36037487-4.37619508s1.95220633-4.37619508 4.36037487-4.37619508h95.01681503c1.765966-.00860357 3.361864 1.05517996 4.038831 2.6921793s.300641 3.52230769-.95239 4.77126029z" fill="#10e0c1" transform="translate(24.707443 199.881603)"/><path d="m144.639839 7.88445721c-.816683.82509216-1.927633 1.2890435-3.086441 1.28895057h-136.71484151c-2.40816851-.00000005-4.36037478-1.95928931-4.36037477-4.37619508 0-2.41690576 1.95220627-4.37619502 4.36037478-4.37619507h136.7148415c1.765967-.00860358 3.361864 1.05517995 4.038831 2.6921793.676967 1.63699934.300641 3.52230769-.95239 4.77126028z" fill="#8a19fa" transform="translate(2.900949 234.618579)"/><path d="m82.4355209 9.5098223c.4206223-.19687065.80018-.47197729 1.1184888-.81088352 1.4087251-1.31161718 1.7242498-3.45099915.7664235-5.1557755-.5229359-1.01124684-1.4364496-1.76275482-2.527098-2.07895864-1.0724361-.36661481-2.2476497-.27650371-3.2521088.24949367l-.3315329.14552826c-2.1033436 1.13186067-2.9437762 3.72657149-1.9056766 5.88341685.2230713.41725866.5018235.80191898.8286004 1.1433865 1.3426042 1.29089398 3.3473462 1.59848248 5.0128992.76932064.1040536-.03189979.2020751-.08114656.2900044-.14552826zm-15.4322916 8.6067747c.2910484-.2174775.5678286-.4535826.8286005-.7068017 1.5148667-1.563905 1.6472247-4.0099442.3101886-5.7293898-1.337152-1.71932915-3.733516-2.18455392-5.6130922-1.0895992-2.6099232 1.5800877-5.199314 3.1807822-7.6435867 4.76087-1.9860658 1.3468932-2.5536623 4.0298524-1.2842552 6.070508.1764386.2490279.3702775.4852494.5800087.7068017 1.4659139 1.4691369 3.7582243 1.7034957 5.4893183.5613898 2.2370936-1.4552827 4.6193053-2.9729679 7.332818-4.5737788zm-21.3771487 14.6982387c.136766-.0880155.2620479-.1926795.3728296-.3118962 1.6234443-1.5877716 1.7761026-4.1547739.3521813-5.9249797-.733479-.9107742-1.800811-1.4875318-2.9622205-1.600811-1.134033-.1541435-2.2811742.1693949-3.1692835.8940093-2.5064496 1.9957164-4.8678971 3.9915493-6.9393401 5.90414-.8730291.7788673-1.4010691 1.874637-1.467074 3.0450335-.066121 1.1703966.335129 2.3191385 1.1150087 3.1918425l.1450022.1455282c1.6141642 1.6825397 4.270952 1.765549 5.9863858.1870912 2.0922074-1.8501882 4.3086526-3.7004929 6.5665105-5.5299578zm-24.1323061 25.0306293c-1.4932904 1.5053445-3.8549698 1.6991881-5.5721436.4573081-.2205193-.1487881-.4283944-.3156217-.6214213-.4988709-1.4819222-1.5010368-1.665901-3.8571977-.4350065-5.5716371 0 0 2.5064496-3.6173671 5.6343205-7.3386995 1.001559-1.2055562 2.5708306-1.7788212 4.1101737-1.5012697 1.5393431.2774351 2.8117662 1.3629596 3.332614 2.8429239.5208478 1.4800807.2099631 3.1268786-.8142162 4.3131086-1.8228514 2.2036472-3.5835258 4.4489738-5.1579014 6.7150236-.1409421.2080472-.3003285.4029386-.4764192.582113zm-11.4136432 23.824724c-1.08809635 1.0794705-2.6577159 1.512679-4.14277018 1.1433865-.78185173-.1593826-1.50106252-.5420637-2.07144308-1.1018236-1.07556814-1.0921606-1.50721061-2.6673586-1.13936909-4.1579173.81479622-3.0396781 1.81786327-6.025336 3.00363306-8.9395105.97453062-2.1787328 3.46659601-3.2246736 5.69638149-2.3907384 2.2202733.9291689 3.2823852 3.478242 2.3822117 5.7171653-1.064664 2.5452313-1.9439571 5.1646237-2.6306874 7.8375705-.2016111.7133213-.5791967 1.3640073-1.0979565 1.8918675zm-.51783179 26.298821c-.57200458.565697-1.28901134.961534-2.07132708 1.143386-1.44723771.325518-2.9592044-.122709-3.99788398-1.184949-.57722466-.573731-.99193088-1.291243-1.20143003-2.078959-.68742631-3.106504-1.13066896-6.2623721-1.32578389-9.4384974-.07493712-2.4156529 1.74373816-4.469115 4.14288616-4.6776279 2.41074817-.1068759 4.46374697 1.7411003 4.61930531 4.1579173.15625434 2.7077572.53036 5.398284 1.1186048 8.045501.2936004 1.476705-.1918669 3.001026-1.28437129 4.033229zm10.62657139 24.427677c.1450022-.145529.331417-.270217.5178318-.457308l.0414126-.083243c1.46081-1.518966 1.6432807-3.864183.4350066-5.59236l-.1657665-.228654c-1.6032601-2.156263-3.0566459-4.420683-4.3499493-6.777426-.5653925-1.015322-1.5127787-1.760659-2.6302235-2.069412-1.1173287-.308636-2.3113346-.154842-3.3148657.427038-2.07248708 1.197989-2.81663825 3.835077-1.67784916 5.945819 1.55152326 2.70345 3.23842056 5.326335 5.05431186 7.858527.135838.186858.2883803.360794.4557708.519711 1.5250749 1.490325 3.8903504 1.682306 5.6343205.457308zm18.9536404 18.481857c-1.5558153 1.564953-4.0343085 1.708152-5.7586744.332619-2.4442727-1.954153-4.7435432-3.970709-6.9599884-6.008105-.868157-.789811-1.3801887-1.899086-1.4191653-3.074489-.0390926-1.175286.398234-2.316344 1.2119862-3.162387.7716436-.893078 1.8766761-1.426294 3.0533978-1.473561 1.1768377-.047268 2.3207308.39572 3.1609314 1.224067 1.9472052 1.829465 4.1428862 3.65893 6.4421567 5.550798l.3107686.311896c1.6246044 1.548421 1.795707 4.088064.3935939 5.841854zm17.0271995 15.301191c1.6761091.871074 3.7194798.569656 5.0750761-.748481.3638975-.277435.6370816-.607842.8492488-.977135.9493582-1.72026.6355735-3.865114-.7664235-5.238901-.2794482-.283489-.600773-.521923-.9528383-.706802-2.7136287-1.559248-5.1786657-2.972968-7.4365236-4.365848-2.0534628-1.274478-4.7476032-.636948-6.0174743 1.424082-1.269871 2.060913-.6346455 4.764828 1.4189333 6.039306 2.4028601 1.476123 5.0543118 3.035371 7.8300015 4.573779zm29.0000871 10.706457c-1.3009595 1.294736-3.266145 1.642839-4.930074.873169l-4.6607179-2.078958-3.397111-1.476006c-1.0606039-.451021-1.8861883-1.324773-2.2786222-2.411578-.4488107-1.077491-.4488107-2.290499 0-3.367874.4839593-1.085408 1.3789127-1.932499 2.4869614-2.353948 1.1079326-.421334 2.337435-.382216 3.4165992.108622 1.0564279.498987 2.0714431.956295 3.2314605 1.455283 1.532847.623675 3.1486352 1.351317 4.867897 2.078958.4575109.217128.8827733.497008 1.263607.831607 1.2956234 1.302769 1.6430486 3.278694.870013 4.947845-.1809627.5246-.4785071 1.000885-.870013 1.39288zm18.0422151 13.284635c1.718681 1.00205 3.893714.720656 5.302903-.686078l-.062177.083125c.260772-.217128.490688-.468833.683598-.748364 1.102017-1.735046.861313-4.004356-.580008-5.467672-.152195-.141919-.318773-.267306-.497068-.374182l-.227943-.166368c-2.527098-1.600695-5.116373-3.222345-7.767825-4.698351-1.3506079-.779915-3.0131449-.777354-4.3614331.00652-1.3482882.783989-2.1773527 2.230308-2.1750326 3.794096.00232 1.563905.8357925 3.007662 2.1864008 3.787577 2.3614474 1.330478 4.7643079 2.806484 7.1465189 4.324169.057073.063683.12795.113512.207063.145528zm25.808995 16.006713c-1.688058 1.600112-4.342525 1.579738-6.00599-.061239l-.393594-.395022-.393594-.394905c-1.657201-1.663214-3.480052-3.36799-5.364965-5.010364-.882425-.748597-1.433549-1.817473-1.532963-2.972851-.082477-1.168068.288729-2.322864 1.03578-3.222345.754823-.903323 1.843036-1.460056 3.014769-1.542367 1.17185-.082311 2.326647.316786 3.19956 1.105782 2.071443 1.767062 3.997884 3.596527 5.862148 5.446832l.870013.873169c1.609988 1.788485 1.48053 4.545838-.291164 6.17331zm13.879724 22.51625c.469111-.223299.896462-.525648 1.263607-.894009l-.062177.083125c1.351188-1.283792 1.749538-3.282768.994367-4.989407-1.296551-2.861552-2.770238-5.63893-4.412242-8.315835-1.269871-2.061029-3.964012-2.69856-6.017474-1.424081-2.053579 1.274478-2.688805 3.978393-1.418934 6.039306 1.45153 2.346731 2.752374 4.784039 3.894295 7.297137.201611.50085.504955.953967.890661 1.330594 1.286923 1.272849 3.221484 1.619904 4.867897.87317zm6.172917 24.947387-.029233.03027c-.017516.018045-.035264.035742-.053129.053438-.8489.839407-2.018894 1.272499-3.211276 1.184484-1.075568-.056582-2.092903-.507952-2.858515-1.268192-.890893-.857802-1.354204-2.069761-1.263607-3.305471.126094-2.711483.049997-5.42867-.227827-8.128743-.196739-2.348594 1.482502-4.436983 3.811469-4.740031 1.153637-.154609 2.318875.184879 3.210696.935572.886138.727176 1.457678 1.77009 1.595024 2.910566.301489 2.990431.391506 5.998559.26924 9.001796v.56139c-.075285 1.041517-.516207 2.02098-1.242842 2.764921zm-7.117403 25.459414c.322369-.298508.586737-.655576.778836-1.052461l.124237-.249493c1.344925-2.704148 2.541251-5.480246 3.583642-8.315835.39197-1.091578.334897-2.294922-.15869-3.344239-.493588-1.049317-1.383089-1.858222-2.472113-2.248121-2.192781-.743475-4.587521.322723-5.509967 2.453141-.930334 2.619625-2.030494 5.175218-3.293637 7.650596-.833125 1.687778-.49962 3.721099.8286 5.05181.329677.340419.715035.621696 1.139369.831606 1.651401.850118 3.656723.536359 4.971603-.768855zm-21.199086 21.87837c1.72715 1.54912 4.356445 1.485437 6.00715-.145528l.124238-.166368c3.107222-3.471838 5.924325-7.047643 5.924325-7.047643 1.48575-1.886745 1.180781-4.622327-.683599-6.13291-1.928528-1.506742-4.708278-1.162713-6.214213.769204-1.595024 2.120522-3.355814 4.22032-5.427257 6.507093-1.59688 1.725965-1.541895 4.411951.124354 6.070624zm-6.835751 12.39051.248592-.249494c1.660217-1.610008 1.769607-4.244302.248592-5.987382-.755636-.897152-1.836888-1.454467-3.003633-1.548071-1.166862-.09372-2.322587.283954-3.210697 1.0492-2.112855 1.829465-4.3293 3.67977-6.587158 5.38443l.124238.187091-.186415-.124689c-1.9249331 1.511399-2.2677183 4.30135-.766424 6.236876.105446.160663.230728.307356.37283.436585 1.567763 1.537943 4.025376 1.679862 5.758558.332619 2.444389-1.871027 4.785072-3.804458 7.001517-5.717165zm-21.0457315 15.571408c-.2197073.211657-.4551908.406315-.7043626.581997-2.3406831 1.476122-4.8471327 3.056094-7.3949949 4.573779l-.2485917.187091c-1.0128112.575244-2.2090212.731833-3.3350501.436585-1.1280009-.303747-2.0848993-1.053974-2.6514518-2.078959-1.2169742-2.085827-.533144-4.766109 1.532963-6.008222 2.4235084-1.455282 4.9093097-2.993691 7.3328181-4.573662.9824187-.611917 2.1620404-.82043 3.2936374-.582113 1.133337.235639 2.1254999.916944 2.7549253 1.891867 1.1377451 1.776726.8596889 4.113677-.5798927 5.571637z" fill="#7383bf" transform="translate(0 328.084517)"/><path d="m11.446215 8.6938482c-.3396706.33790663-.7313554.6186965-1.1600047.83158102l-3.85287281 1.93342588c-2.11034351.887776-4.54573134-.0083127-5.58425616-2.05469903-1.03852481-2.04638631-.3286089-4.55029543 1.62781149-5.74137299l3.97715904-2.07895253c1.91371918-.92395882 4.21224474-.33363531 5.44851934 1.39932711 1.2362747 1.73296241 1.0524938 4.10700682-.4356418 5.62753244z" fill="#7383bf" transform="translate(76.0229 326.177049)"/><path d="m88.6549842 345.983107c-1.3156777 1.320041-3.3221309 1.654271-4.9921631.831581-53.8573619-26.423487-84.12105643-61.661732-83.27176726-96.692082.78714606-31.849553 26.80439476-60.45594 73.32886966-80.559411 42.8166025-18.502677 66.7624145-43.907477 67.4252745-71.5367566.766431-31.1842879-28.067972-63.4080521-79.0874648-88.48021966-1.77229-1.24179348-2.3740136-3.59725118-1.415674-5.54168045.9583396-1.94442928 3.188899-2.89380828 5.2478325-2.23360201 54.2095063 26.65217142 84.8253453 61.82804822 83.9760553 96.54655552-.745717 31.1842882-26.576536 59.4372532-72.7074381 79.3744072-43.1894614 18.710573-67.3631311 44.510374-68.04670531 72.763339-.76643169 31.475341 27.79868451 63.761474 78.38317591 88.625746 2.0773469 1.067279 2.9528062 3.584203 1.9885795 5.71712-.2101975.437564-.4900589.837813-.8285748 1.185003z" fill="#d75a4a" transform="translate(1.900572 326.177049)"/><path d="m137.151536 7.88414014c-.816683.82509216-1.927632 1.28904349-3.086441 1.28895057h-129.67195561c-2.40816854 0-4.36037487-1.95928928-4.36037487-4.37619508s1.95220633-4.37619508 4.36037487-4.37619508h129.67195561c1.765967-.00860357 3.361864 1.05517996 4.038831 2.6921793s.300641 3.52230769-.95239 4.77126029z" fill="#f36" transform="translate(6.702094 595.130055)"/><path d="m92.1035198 7.49254384c-.8166838.82509216-1.9276329 1.28904349-3.0864411 1.28895057h-84.26605699c-1.55781192.00000003-2.99728952-.83409803-3.77619549-2.18809751-.77890598-1.35399948-.77890598-3.02219565-.00000001-4.37619513.77890598-1.35399949 2.21838357-2.18809755 3.7761955-2.18809752h84.26605699c1.7659665-.00860357 3.3618638 1.05517996 4.0388308 2.6921793.6769669 1.63699934.3006412 3.52230769-.9523897 4.77126029z" fill="#f3ca3e" transform="translate(28.508588 361.514754)"/><path d="m141.727306 7.66603888c-.816684.82509216-1.927633 1.28904349-3.086441 1.28895057h-134.04268798c-1.55781193.00000004-2.99728952-.83409802-3.7761955-2.18809751-.77890597-1.35399948-.77890597-3.02219565 0-4.37619513s2.21838356-2.18809755 3.77619549-2.18809751h134.04268799c1.765967-.00860358 3.361864 1.05517995 4.038831 2.69217929s.300641 3.5223077-.95239 4.77126029z" fill="#f3ca3e" transform="translate(4.301333 396.35082)"/><path d="m145.986273 7.93862318c-.816683.82509216-1.927633 1.28904349-3.086441 1.28895056h-138.43413417c-1.55781192.00000004-2.99728952-.83409802-3.77619549-2.1880975-.77890598-1.35399948-.77890598-3.02219565-.00000001-4.37619514.77890597-1.35399948 2.21838357-2.18809754 3.77619549-2.18809751h138.43413418c1.765967-.00860357 3.361864 1.05517996 4.038831 2.6921793s.300641 3.52230769-.95239 4.77126029z" fill="#10e0c1" transform="translate(2.900949 431.087796)"/><path d="m101.097885 7.58968935c-.816684.82509216-1.9276331 1.28904349-3.0864413 1.28895057h-93.21466481c-1.55781192.00000003-2.99728952-.83409803-3.77619549-2.18809751-.77890598-1.35399948-.77890598-3.02219565-.00000001-4.37619513.77890597-1.35399949 2.21838357-2.18809755 3.77619549-2.18809752h93.21466482c1.7659665-.00860357 3.3618633 1.05517996 4.0388303 2.6921793s.300642 3.52230769-.952389 4.77126029z" fill="#fc3952" transform="translate(25.707819 466.425501)"/><path d="m102.53022 7.93970015c-.816684.82509216-1.927633 1.28904349-3.0864413 1.28895057h-95.01681502c-2.40816855 0-4.36037488-1.95928928-4.36037488-4.37619508s1.95220633-4.37619508 4.36037488-4.37619508h95.01681502c1.7659663-.00860357 3.3618633 1.05517996 4.0388303 2.6921793s.300642 3.52230769-.952389 4.77126029z" fill="#f36" transform="translate(25.207631 525.055373)"/><path d="m144.533224 7.61155584c-.816684.82509216-1.927633 1.2890435-3.086441 1.28895057h-136.7148418c-2.40816855 0-4.36037488-1.95928927-4.36037488-4.37619507 0-2.41690581 1.95220633-4.37619508 4.36037488-4.37619508h136.7148418c1.765966-.00860358 3.361864 1.05517995 4.038831 2.6921793.676967 1.63699934.300641 3.52230769-.95239 4.77126028z" fill="#8a19fa" transform="translate(3.401137 560.393078)"/></g><g transform="matrix(-1 -.00000056 .00000056 -1 310.891925 611.594104)"><path d="m12.3890096 8.8652159c-.3221164.32545288-.6924473.5989492-1.0978616.81079149l-3.97715908 2.07895251c-2.12425591.8542182-4.54540028-.0806721-5.55137707-2.14358492-1.00597679-2.06291283-.25616707-4.55535576 1.71921863-5.71485563l3.85287281-1.93342585c1.8750675-.83109353 4.07371471-.24274801 5.28760661 1.41493351 1.2138918 1.65768152 1.1168829 3.93931735-.2333003 5.48718889z" fill="#7383bf" transform="translate(57.017175 335.71439)"/><path d="m81.979866 8.29856141c.4206223-.19675422.80018-.47191907 1.1184888-.81076709 1.3883088-1.3467186 1.7025576-3.46112792.7664235-5.15583372-.5229358-1.01118862-1.4364495-1.7626966-2.5270979-2.07895863-1.0724361-.36661482-2.2476497-.2764455-3.2521088.24949366l-.331533.14552827c-2.1033435 1.13186066-2.9437761 3.72662969-1.9056766 5.88341685.2230714.41725865.5018236.80197718.8286005 1.14344471 1.3426041 1.29077753 3.3473462 1.59842429 5.0128992.76920422.1040535-.0318998.202075-.08108835.2900043-.14552827zm-15.3701146 8.56532819c.2910484-.2175939.5678285-.4536989.8286005-.7068599 1.5148667-1.563905 1.6472247-4.0099441.3101886-5.7293315-1.337152-1.71944561-3.733516-2.18461217-5.6130922-1.08959926-2.6099232 1.57997126-5.199314 3.18078226-7.6435867 4.76075356-1.9860658 1.3469515-2.5536623 4.0299106-1.2842553 6.0705662.1764387.2490862.3702776.4852495.5800087.7068599 1.465914 1.4690788 3.7582244 1.7034957 5.4893184.5612734 2.2370936-1.4552244 4.6193053-2.9728514 7.332818-4.5736624zm-21.3772647 14.6981805c.136766-.0879573.2620479-.1927376.3728296-.311838 1.6234443-1.5878298 1.7761026-4.154832.3521813-5.9250379-.733479-.9107159-1.800811-1.4875317-2.9622205-1.6008109-1.134033-.1541436-2.2811742.1693949-3.1692835.893951-2.5064496 1.9958329-4.8678971 3.9916076-6.9393401 5.9042565-.8730291.7787509-1.4010691 1.8745205-1.4670741 3.0449753-.0661209 1.1704547.3351291 2.3190803 1.1150088 3.1918424l.1450022.1455283c1.6141642 1.6825396 4.270952 1.7655489 5.9863858.1871493 2.0922074-1.8503046 4.3086526-3.700551 6.5665105-5.530016zm-24.1321901 25.0305712c-1.4932904 1.5053444-3.8549698 1.6991881-5.5721436.4573662-.2205193-.1487881-.4283944-.3156799-.6214213-.4989291-1.4819222-1.501095-1.665901-3.8571976-.4350065-5.5716371 0 0 2.5064496-3.617367 5.6343205-7.3386995 1.001559-1.2056144 2.5708306-1.7788211 4.1101737-1.5013278s2.8117662 1.3630177 3.332614 2.8430402.2099631 3.1268204-.8142162 4.3130504c-1.8228514 2.2244869-3.5835258 4.5737207-5.1579014 6.6526211-.1376941.22976-.2971965.4456076-.4764192.6445156zm-11.41364323 23.8247821c-1.08809632 1.0794705-2.65771587 1.5126209-4.14277015 1.1434447-.78185173-.1594989-1.50106252-.5420637-2.07144308-1.1018818-1.07556814-1.0921023-1.50721061-2.6673585-1.1393691-4.1578591.81479623-3.0397362 1.81786328-6.0253942 3.00363307-8.9395104.97453062-2.1788493 3.46659601-3.2247318 5.69638149-2.3907967 2.2202733.9292271 3.2823852 3.4782421 2.3822117 5.7171072-1.064664 2.5452312-1.9439571 5.1646818-2.6306875 7.8376286-.201611.7132632-.5791966 1.3639492-1.09795643 1.8918675zm-.51794777 26.2779816c-.57200458.565755-1.28901134.961476-2.07132707 1.143386-1.44723772.32546-2.9592044-.122709-3.99788399-1.185007-.57722466-.573673-.99193088-1.291244-1.20143002-2.078901-.68742632-3.106504-1.13066897-6.2623723-1.32578389-9.4384976-.07493713-2.4155947 1.74373816-4.4691149 4.14288615-4.6776279 2.41074817-.1068759 4.46374698 1.7411003 4.61930531 4.1579173.15625434 2.707699.53035996 5.3983422 1.11860481 8.0455592.3165687 1.496729-.1707546 3.050506-1.2843713 4.033171zm10.6679841 24.323769c.1450021-.145528.3314169-.270275.5178317-.457366 1.5408511-1.478276 1.7257579-3.918727.4350066-5.675544l-.1656505-.228713c-1.6032601-2.156205-3.0567619-4.420741-4.3500653-6.777367-.5653925-1.015322-1.5127787-1.760718-2.6301075-2.069412-1.1174447-.308695-2.3114506-.154901-3.3148657.427038-2.05740686 1.212017-2.78230173 3.845788-1.63643654 5.945819 1.55140724 2.70345 3.23842054 5.326276 5.05431184 7.85841.135722.186858.2882643.360852.4556548.519769 1.5250749 1.490326 3.8904664 1.682365 5.6343206.457366zm18.9537563 18.481857c-1.5558153 1.565011-4.0343085 1.708153-5.7586744.332678-2.4442726-1.954212-4.7435431-3.970826-6.9599884-6.008164-.868157-.789869-1.3801887-1.899085-1.4191653-3.07443-.0390926-1.175344.398234-2.316344 1.2119862-3.162446.7716436-.893077 1.8766762-1.426351 3.0533978-1.473561 1.1768377-.047267 2.3207308.395721 3.1609314 1.224068 1.9472053 1.829465 4.1428862 3.658988 6.4421567 5.550797l.3107687.311838c1.6246043 1.548421 1.7957069 4.088064.3935939 5.841854zm16.9649066 15.425822c1.7020935.922417 3.8050891.618495 5.1786657-.748422.2736481-.279124.5397561-.609415.7456592-.977077.9493582-1.720261.6355735-3.865173-.7664235-5.23896-.2794482-.283547-.6007731-.521981-.9528383-.70686-2.7136288-1.55919-5.1786657-2.972909-7.4365236-4.365789-2.0534628-1.274479-4.7476032-.63689-6.0174743 1.424081-1.269871 2.060971-.6346455 4.764887 1.4189333 6.039365 2.40286 1.476064 5.0543118 3.035254 7.8300015 4.573662zm29.1037926 10.706631c-1.3009595 1.294678-3.266145 1.642724-4.9300739.87317l-4.660718-2.078959-3.3971109-1.476064c-1.0606039-.451021-1.8861883-1.324773-2.2786222-2.411578-.4488108-1.077491-.4488108-2.290498 0-3.367931 1.0213953-2.164122 3.5607894-3.135902 5.7585584-2.203706 1.0564278.498988 2.0714431.956354 3.2314605 1.455283 1.532847.623676 3.1486352 1.351317 4.867897 2.078959.4575109.217186.8827732.497066 1.263607.831606 1.2956234 1.302711 1.6430486 3.278752.870013 4.947903-.1561383.500326-.4174903.961185-.7250109 1.351317zm17.7936228 13.367645c1.863568 1.002108 4.038601.720714 5.44779-.686078.206599-.192854.429322-.416386.621421-.665239 1.102017-1.734988.861313-4.004414-.580008-5.467672-.152079-.141861-.318773-.267306-.497068-.374182l-.227943-.16631c-2.527098-1.600811-5.116373-3.222403-7.7678249-4.698467-2.0877993-1.205557-4.7542153-.484202-5.9554133 1.61123-1.201198 2.095375-.4824513 4.771407 1.6053481 5.976963 2.3614474 1.330536 4.7643071 2.8066 7.1465191 4.324227.057073.063741.12795.113512.207179.145528zm26.017335 15.945533c-1.684462 1.661525-4.384982 1.661525-6.069328 0l-.393593-.394964-.393594-.395022c-1.657201-1.663155-3.480053-3.367932-5.364965-5.010247-.882425-.748714-1.433549-1.81759-1.532963-2.97291-.082477-1.168126.288729-2.322922 1.03578-3.222403.754823-.903265 1.843035-1.459998 3.014769-1.542309 1.17185-.082311 2.326647.316786 3.19956 1.105724 2.071443 1.76712 3.997884 3.596585 5.862148 5.44689l.870013.873111c1.585164 1.763396 1.484126 4.472608-.227827 6.11213zm13.774974 22.57743c.468995-.223182.896462-.525532 1.263491-.893893 1.264767-1.264 1.641425-3.170537.952954-4.823156-1.296551-2.861552-2.770237-5.63893-4.412242-8.315835-1.269871-2.060971-3.964011-2.69856-6.017474-1.424081-2.053579 1.274478-2.688804 3.978393-1.418933 6.039307 1.441437 2.320302 2.735205 4.729785 3.87353 7.214011.201611.50085.504955.953966.890777 1.330477 1.286808 1.272965 3.221369 1.619904 4.867897.87317zm6.152153 24.885101c-.854701.894126-2.062279 1.359117-3.293522 1.268191-1.075568-.056581-2.092903-.507951-2.858631-1.268191-.890893-.857802-1.354204-2.069761-1.263607-3.305471.12621-2.711483.049997-5.42867-.227827-8.128743-.230728-2.386082 1.480994-4.519643 3.852882-4.802433 1.153637-.15461 2.31899.184879 3.210696.935572.886137.727176 1.457678 1.770089 1.595024 2.910565.301604 2.990432.391506 5.998559.269356 9.001797v.56139c-.051389 1.086688-.501476 2.115981-1.263607 2.889725zm-12.097126 26.236418c1.677501.863623 3.720292.526114 5.033548-.831606l.020764.062402c.336985-.351363.597989-.768971.766423-1.226629l.124238-.249377c1.344808-2.704264 2.541134-5.480362 3.583642-8.315834.39197-1.091695.334897-2.295039-.15869-3.344356-.493588-1.049201-1.383089-1.858222-2.472113-2.248005-2.256466-.761986-4.710947.391879-5.572144 2.619393-.930334 2.619625-2.030495 5.175218-3.293637 7.650595-.833125 1.687779-.49962 3.7211.8286 5.051811.329677.340419.715035.621696 1.139369.831606zm-16.136538 21.101366c1.72715 1.54912 4.356445 1.485437 6.00715-.145528l.248592-.166368c3.107106-3.471839 5.924325-7.047643 5.924325-7.047643 1.45733-1.919343 1.096332-4.659582-.807952-6.13291-1.928529-1.506742-4.708279-1.162713-6.214214.769204-1.595024 2.120521-3.355814 4.22032-5.427257 6.507093-1.59688 1.725965-1.541895 4.411951.124354 6.070624zm-6.918576 12.39051.248592-.249494c1.674833-1.615596 1.775058-4.249658.248592-5.987382-.755636-.897153-1.836888-1.454468-3.003633-1.548071-1.166862-.093721-2.322587.283954-3.210697 1.0492-2.112855 1.829465-4.329301 3.67977-6.587158 5.38443l.124237.187091-.186414-.124689c-1.9249333 1.511399-2.2677184 4.30135-.766424 6.236876.105446.160663.230728.307356.37283.436585 1.567763 1.537943 4.025376 1.679862 5.758558.332619 2.444389-1.871027 4.785072-3.804458 7.001517-5.717165zm-21.0458476 15.571408c-.2197073.211657-.4551909.406315-.7043626.581997-2.3406831 1.476122-4.8471327 3.056094-7.394995 4.573779l-.2485917.187091c-1.0128112.575244-2.2090211.731833-3.33505.436585-1.1280009-.303747-2.0848993-1.053974-2.6514518-2.078959-1.2169743-2.085827-.533144-4.766109 1.532963-6.008222 2.4235084-1.455282 4.9093097-2.993691 7.332818-4.573662.9824188-.611917 2.1620405-.82043 3.2936374-.582113 1.133337.235639 2.1254999.916944 2.7549254 1.891867 1.1473732 1.753092.9048135 4.074675-.5798927 5.571637z" fill="#7383bf" transform="translate(0 3.814936)"/><path d="m90.1619837 344.75109c-1.3156777 1.320042-3.322131 1.654271-4.9921631.831581-53.8573619-26.423487-84.12105644-61.661732-83.27176727-96.692082.78714605-31.849553 26.80439477-60.45594 73.32886967-80.559411 42.816603-18.523467 66.762414-43.949056 67.425274-71.5575457.766432-31.184288-28.067971-63.4080522-79.0874643-88.48021975-1.9753857-1.15949986-2.7251954-3.65194279-1.7192186-5.71485562s3.4271211-2.99780314 5.551377-2.14358494c54.2095059 26.63138191 84.8253449 61.82804821 84.0589129 96.54655551-.745717 31.1842875-26.576536 59.4372525-72.7074381 79.3744075-43.2930332 18.710573-67.4459886 44.489584-68.1502772 72.763339-.76643168 31.475341 27.7986845 63.761474 78.3831759 88.625746 1.0515375.499312 1.8613635 1.398735 2.2501563 2.499109.3887929 1.100374.3244722 2.310903-.1787193 3.363537-.2328536.427299-.5337253.813531-.8907179 1.143424z" fill="#d75a4a" transform="translate(0 1.907468)"/><path d="m137.258152 7.53552339c-.816684.82509216-1.927633 1.28904349-3.086441 1.28895057h-129.67195631c-1.55781193.00000003-2.99728952-.83409803-3.7761955-2.18809751-.77890597-1.35399948-.77890597-3.02219565 0-4.37619513.77890597-1.35399949 2.21838356-2.18809755 3.77619549-2.18809752h129.67195632c1.765966-.00860357 3.361863 1.05517996 4.03883 2.6921793s.300642 3.52230769-.952389 4.77126029z" fill="#57abc1" transform="translate(6.201906 269.956284)"/><path d="m85.7846996 7.70901843c-.8166838.82509216-1.9276329 1.28904349-3.0864411 1.28895057h-78.23817533c-1.55781193.00000003-2.99728953-.83409803-3.7761955-2.18809751s-.77890598-3.02219565 0-4.37619513c.77890597-1.35399949 2.21838356-2.18809755 3.77619549-2.18809752h78.30031844c1.7659665-.00860357 3.3618638 1.05517996 4.0388308 2.6921793.6769669 1.63699934.3006412 3.52230769-1.0145328 4.77126029z" fill="#f36" transform="translate(31.409537 304.79235)"/><path d="m100.704312 7.76350147c-.816684.82509216-1.9276331 1.28904349-3.0864413 1.28895056h-93.21466484c-2.40816854 0-4.36037487-1.95928927-4.36037487-4.37619507 0-2.41690581 1.95220633-4.37619508 4.36037487-4.37619508h93.21466484c1.7659665-.00860358 3.3618633 1.05517996 4.0388303 2.6921793s.300642 3.52230769-.952389 4.77126029z" fill="#f36" transform="translate(25.707819 140.750091)"/><path d="m102.636835 7.61187292c-.816684.82509216-1.927633 1.28904349-3.086441 1.28895057h-95.01681503c-2.40816854 0-4.36037487-1.95928928-4.36037487-4.37619508s1.95220633-4.37619508 4.36037487-4.37619508h95.01681503c1.765966-.00860357 3.361864 1.05517996 4.038831 2.6921793s.300641 3.52230769-.95239 4.77126029z" fill="#10e0c1" transform="translate(24.707443 199.881603)"/><path d="m144.639839 7.88445721c-.816683.82509216-1.927633 1.2890435-3.086441 1.28895057h-136.71484151c-2.40816851-.00000005-4.36037478-1.95928931-4.36037477-4.37619508 0-2.41690576 1.95220627-4.37619502 4.36037478-4.37619507h136.7148415c1.765967-.00860358 3.361864 1.05517995 4.038831 2.6921793.676967 1.63699934.300641 3.52230769-.95239 4.77126028z" fill="#8a19fa" transform="translate(2.900949 234.618579)"/><path d="m82.4355209 9.5098223c.4206223-.19687065.80018-.47197729 1.1184888-.81088352 1.4087251-1.31161718 1.7242498-3.45099915.7664235-5.1557755-.5229359-1.01124684-1.4364496-1.76275482-2.527098-2.07895864-1.0724361-.36661481-2.2476497-.27650371-3.2521088.24949367l-.3315329.14552826c-2.1033436 1.13186067-2.9437762 3.72657149-1.9056766 5.88341685.2230713.41725866.5018235.80191898.8286004 1.1433865 1.3426042 1.29089398 3.3473462 1.59848248 5.0128992.76932064.1040536-.03189979.2020751-.08114656.2900044-.14552826zm-15.4322916 8.6067747c.2910484-.2174775.5678286-.4535826.8286005-.7068017 1.5148667-1.563905 1.6472247-4.0099442.3101886-5.7293898-1.337152-1.71932915-3.733516-2.18455392-5.6130922-1.0895992-2.6099232 1.5800877-5.199314 3.1807822-7.6435867 4.76087-1.9860658 1.3468932-2.5536623 4.0298524-1.2842552 6.070508.1764386.2490279.3702775.4852494.5800087.7068017 1.4659139 1.4691369 3.7582243 1.7034957 5.4893183.5613898 2.2370936-1.4552827 4.6193053-2.9729679 7.332818-4.5737788zm-21.3771487 14.6982387c.136766-.0880155.2620479-.1926795.3728296-.3118962 1.6234443-1.5877716 1.7761026-4.1547739.3521813-5.9249797-.733479-.9107742-1.800811-1.4875318-2.9622205-1.600811-1.134033-.1541435-2.2811742.1693949-3.1692835.8940093-2.5064496 1.9957164-4.8678971 3.9915493-6.9393401 5.90414-.8730291.7788673-1.4010691 1.874637-1.467074 3.0450335-.066121 1.1703966.335129 2.3191385 1.1150087 3.1918425l.1450022.1455282c1.6141642 1.6825397 4.270952 1.765549 5.9863858.1870912 2.0922074-1.8501882 4.3086526-3.7004929 6.5665105-5.5299578zm-24.1323061 25.0306293c-1.4932904 1.5053445-3.8549698 1.6991881-5.5721436.4573081-.2205193-.1487881-.4283944-.3156217-.6214213-.4988709-1.4819222-1.5010368-1.665901-3.8571977-.4350065-5.5716371 0 0 2.5064496-3.6173671 5.6343205-7.3386995 1.001559-1.2055562 2.5708306-1.7788212 4.1101737-1.5012697 1.5393431.2774351 2.8117662 1.3629596 3.332614 2.8429239.5208478 1.4800807.2099631 3.1268786-.8142162 4.3131086-1.8228514 2.2036472-3.5835258 4.4489738-5.1579014 6.7150236-.1409421.2080472-.3003285.4029386-.4764192.582113zm-11.4136432 23.824724c-1.08809635 1.0794705-2.6577159 1.512679-4.14277018 1.1433865-.78185173-.1593826-1.50106252-.5420637-2.07144308-1.1018236-1.07556814-1.0921606-1.50721061-2.6673586-1.13936909-4.1579173.81479622-3.0396781 1.81786327-6.025336 3.00363306-8.9395105.97453062-2.1787328 3.46659601-3.2246736 5.69638149-2.3907384 2.2202733.9291689 3.2823852 3.478242 2.3822117 5.7171653-1.064664 2.5452313-1.9439571 5.1646237-2.6306874 7.8375705-.2016111.7133213-.5791967 1.3640073-1.0979565 1.8918675zm-.51783179 26.298821c-.57200458.565697-1.28901134.961534-2.07132708 1.143386-1.44723771.325518-2.9592044-.122709-3.99788398-1.184949-.57722466-.573731-.99193088-1.291243-1.20143003-2.078959-.68742631-3.106504-1.13066896-6.2623721-1.32578389-9.4384974-.07493712-2.4156529 1.74373816-4.469115 4.14288616-4.6776279 2.41074817-.1068759 4.46374697 1.7411003 4.61930531 4.1579173.15625434 2.7077572.53036 5.398284 1.1186048 8.045501.2936004 1.476705-.1918669 3.001026-1.28437129 4.033229zm10.62657139 24.427677c.1450022-.145529.331417-.270217.5178318-.457308l.0414126-.083243c1.46081-1.518966 1.6432807-3.864183.4350066-5.59236l-.1657665-.228654c-1.6032601-2.156263-3.0566459-4.420683-4.3499493-6.777426-.5653925-1.015322-1.5127787-1.760659-2.6302235-2.069412-1.1173287-.308636-2.3113346-.154842-3.3148657.427038-2.07248708 1.197989-2.81663825 3.835077-1.67784916 5.945819 1.55152326 2.70345 3.23842056 5.326335 5.05431186 7.858527.135838.186858.2883803.360794.4557708.519711 1.5250749 1.490325 3.8903504 1.682306 5.6343205.457308zm18.9536404 18.481857c-1.5558153 1.564953-4.0343085 1.708152-5.7586744.332619-2.4442727-1.954153-4.7435432-3.970709-6.9599884-6.008105-.868157-.789811-1.3801887-1.899086-1.4191653-3.074489-.0390926-1.175286.398234-2.316344 1.2119862-3.162387.7716436-.893078 1.8766761-1.426294 3.0533978-1.473561 1.1768377-.047268 2.3207308.39572 3.1609314 1.224067 1.9472052 1.829465 4.1428862 3.65893 6.4421567 5.550798l.3107686.311896c1.6246044 1.548421 1.795707 4.088064.3935939 5.841854zm17.0271995 15.301191c1.6761091.871074 3.7194798.569656 5.0750761-.748481.3638975-.277435.6370816-.607842.8492488-.977135.9493582-1.72026.6355735-3.865114-.7664235-5.238901-.2794482-.283489-.600773-.521923-.9528383-.706802-2.7136287-1.559248-5.1786657-2.972968-7.4365236-4.365848-2.0534628-1.274478-4.7476032-.636948-6.0174743 1.424082-1.269871 2.060913-.6346455 4.764828 1.4189333 6.039306 2.4028601 1.476123 5.0543118 3.035371 7.8300015 4.573779zm29.0000871 10.706457c-1.3009595 1.294736-3.266145 1.642839-4.930074.873169l-4.6607179-2.078958-3.397111-1.476006c-1.0606039-.451021-1.8861883-1.324773-2.2786222-2.411578-.4488107-1.077491-.4488107-2.290499 0-3.367874.4839593-1.085408 1.3789127-1.932499 2.4869614-2.353948 1.1079326-.421334 2.337435-.382216 3.4165992.108622 1.0564279.498987 2.0714431.956295 3.2314605 1.455283 1.532847.623675 3.1486352 1.351317 4.867897 2.078958.4575109.217128.8827733.497008 1.263607.831607 1.2956234 1.302769 1.6430486 3.278694.870013 4.947845-.1809627.5246-.4785071 1.000885-.870013 1.39288zm18.0422151 13.284635c1.718681 1.00205 3.893714.720656 5.302903-.686078l-.062177.083125c.260772-.217128.490688-.468833.683598-.748364 1.102017-1.735046.861313-4.004356-.580008-5.467672-.152195-.141919-.318773-.267306-.497068-.374182l-.227943-.166368c-2.527098-1.600695-5.116373-3.222345-7.767825-4.698351-1.3506079-.779915-3.0131449-.777354-4.3614331.00652-1.3482882.783989-2.1773527 2.230308-2.1750326 3.794096.00232 1.563905.8357925 3.007662 2.1864008 3.787577 2.3614474 1.330478 4.7643079 2.806484 7.1465189 4.324169.057073.063683.12795.113512.207063.145528zm25.808995 16.006713c-1.688058 1.600112-4.342525 1.579738-6.00599-.061239l-.393594-.395022-.393594-.394905c-1.657201-1.663214-3.480052-3.36799-5.364965-5.010364-.882425-.748597-1.433549-1.817473-1.532963-2.972851-.082477-1.168068.288729-2.322864 1.03578-3.222345.754823-.903323 1.843036-1.460056 3.014769-1.542367 1.17185-.082311 2.326647.316786 3.19956 1.105782 2.071443 1.767062 3.997884 3.596527 5.862148 5.446832l.870013.873169c1.609988 1.788485 1.48053 4.545838-.291164 6.17331zm13.879724 22.51625c.469111-.223299.896462-.525648 1.263607-.894009l-.062177.083125c1.351188-1.283792 1.749538-3.282768.994367-4.989407-1.296551-2.861552-2.770238-5.63893-4.412242-8.315835-1.269871-2.061029-3.964012-2.69856-6.017474-1.424081-2.053579 1.274478-2.688805 3.978393-1.418934 6.039306 1.45153 2.346731 2.752374 4.784039 3.894295 7.297137.201611.50085.504955.953967.890661 1.330594 1.286923 1.272849 3.221484 1.619904 4.867897.87317zm6.172917 24.947387-.029233.03027c-.017516.018045-.035264.035742-.053129.053438-.8489.839407-2.018894 1.272499-3.211276 1.184484-1.075568-.056582-2.092903-.507952-2.858515-1.268192-.890893-.857802-1.354204-2.069761-1.263607-3.305471.126094-2.711483.049997-5.42867-.227827-8.128743-.196739-2.348594 1.482502-4.436983 3.811469-4.740031 1.153637-.154609 2.318875.184879 3.210696.935572.886138.727176 1.457678 1.77009 1.595024 2.910566.301489 2.990431.391506 5.998559.26924 9.001796v.56139c-.075285 1.041517-.516207 2.02098-1.242842 2.764921zm-7.117403 25.459414c.322369-.298508.586737-.655576.778836-1.052461l.124237-.249493c1.344925-2.704148 2.541251-5.480246 3.583642-8.315835.39197-1.091578.334897-2.294922-.15869-3.344239-.493588-1.049317-1.383089-1.858222-2.472113-2.248121-2.192781-.743475-4.587521.322723-5.509967 2.453141-.930334 2.619625-2.030494 5.175218-3.293637 7.650596-.833125 1.687778-.49962 3.721099.8286 5.05181.329677.340419.715035.621696 1.139369.831606 1.651401.850118 3.656723.536359 4.971603-.768855zm-21.199086 21.87837c1.72715 1.54912 4.356445 1.485437 6.00715-.145528l.124238-.166368c3.107222-3.471838 5.924325-7.047643 5.924325-7.047643 1.48575-1.886745 1.180781-4.622327-.683599-6.13291-1.928528-1.506742-4.708278-1.162713-6.214213.769204-1.595024 2.120522-3.355814 4.22032-5.427257 6.507093-1.59688 1.725965-1.541895 4.411951.124354 6.070624zm-6.835751 12.39051.248592-.249494c1.660217-1.610008 1.769607-4.244302.248592-5.987382-.755636-.897152-1.836888-1.454467-3.003633-1.548071-1.166862-.09372-2.322587.283954-3.210697 1.0492-2.112855 1.829465-4.3293 3.67977-6.587158 5.38443l.124238.187091-.186415-.124689c-1.9249331 1.511399-2.2677183 4.30135-.766424 6.236876.105446.160663.230728.307356.37283.436585 1.567763 1.537943 4.025376 1.679862 5.758558.332619 2.444389-1.871027 4.785072-3.804458 7.001517-5.717165zm-21.0457315 15.571408c-.2197073.211657-.4551908.406315-.7043626.581997-2.3406831 1.476122-4.8471327 3.056094-7.3949949 4.573779l-.2485917.187091c-1.0128112.575244-2.2090212.731833-3.3350501.436585-1.1280009-.303747-2.0848993-1.053974-2.6514518-2.078959-1.2169742-2.085827-.533144-4.766109 1.532963-6.008222 2.4235084-1.455282 4.9093097-2.993691 7.3328181-4.573662.9824187-.611917 2.1620404-.82043 3.2936374-.582113 1.133337.235639 2.1254999.916944 2.7549253 1.891867 1.1377451 1.776726.8596889 4.113677-.5798927 5.571637z" fill="#7383bf" transform="translate(0 328.084517)"/><path d="m11.446215 8.6938482c-.3396706.33790663-.7313554.6186965-1.1600047.83158102l-3.85287281 1.93342588c-2.11034351.887776-4.54573134-.0083127-5.58425616-2.05469903-1.03852481-2.04638631-.3286089-4.55029543 1.62781149-5.74137299l3.97715904-2.07895253c1.91371918-.92395882 4.21224474-.33363531 5.44851934 1.39932711 1.2362747 1.73296241 1.0524938 4.10700682-.4356418 5.62753244z" fill="#7383bf" transform="translate(76.0229 326.177049)"/><path d="m88.6549842 345.983107c-1.3156777 1.320041-3.3221309 1.654271-4.9921631.831581-53.8573619-26.423487-84.12105643-61.661732-83.27176726-96.692082.78714606-31.849553 26.80439476-60.45594 73.32886966-80.559411 42.8166025-18.502677 66.7624145-43.907477 67.4252745-71.5367566.766431-31.1842879-28.067972-63.4080521-79.0874648-88.48021966-1.77229-1.24179348-2.3740136-3.59725118-1.415674-5.54168045.9583396-1.94442928 3.188899-2.89380828 5.2478325-2.23360201 54.2095063 26.65217142 84.8253453 61.82804822 83.9760553 96.54655552-.745717 31.1842882-26.576536 59.4372532-72.7074381 79.3744072-43.1894614 18.710573-67.3631311 44.510374-68.04670531 72.763339-.76643169 31.475341 27.79868451 63.761474 78.38317591 88.625746 2.0773469 1.067279 2.9528062 3.584203 1.9885795 5.71712-.2101975.437564-.4900589.837813-.8285748 1.185003z" fill="#d75a4a" transform="translate(1.900572 326.177049)"/><path d="m137.151536 7.88414014c-.816683.82509216-1.927632 1.28904349-3.086441 1.28895057h-129.67195561c-2.40816854 0-4.36037487-1.95928928-4.36037487-4.37619508s1.95220633-4.37619508 4.36037487-4.37619508h129.67195561c1.765967-.00860357 3.361864 1.05517996 4.038831 2.6921793s.300641 3.52230769-.95239 4.77126029z" fill="#f36" transform="translate(6.702094 595.130055)"/><path d="m92.1035198 7.49254384c-.8166838.82509216-1.9276329 1.28904349-3.0864411 1.28895057h-84.26605699c-1.55781192.00000003-2.99728952-.83409803-3.77619549-2.18809751-.77890598-1.35399948-.77890598-3.02219565-.00000001-4.37619513.77890598-1.35399949 2.21838357-2.18809755 3.7761955-2.18809752h84.26605699c1.7659665-.00860357 3.3618638 1.05517996 4.0388308 2.6921793.6769669 1.63699934.3006412 3.52230769-.9523897 4.77126029z" fill="#f3ca3e" transform="translate(28.508588 361.514754)"/><path d="m141.727306 7.66603888c-.816684.82509216-1.927633 1.28904349-3.086441 1.28895057h-134.04268798c-1.55781193.00000004-2.99728952-.83409802-3.7761955-2.18809751-.77890597-1.35399948-.77890597-3.02219565 0-4.37619513s2.21838356-2.18809755 3.77619549-2.18809751h134.04268799c1.765967-.00860358 3.361864 1.05517995 4.038831 2.69217929s.300641 3.5223077-.95239 4.77126029z" fill="#f3ca3e" transform="translate(4.301333 396.35082)"/><path d="m145.986273 7.93862318c-.816683.82509216-1.927633 1.28904349-3.086441 1.28895056h-138.43413417c-1.55781192.00000004-2.99728952-.83409802-3.77619549-2.1880975-.77890598-1.35399948-.77890598-3.02219565-.00000001-4.37619514.77890597-1.35399948 2.21838357-2.18809754 3.77619549-2.18809751h138.43413418c1.765967-.00860357 3.361864 1.05517996 4.038831 2.6921793s.300641 3.52230769-.95239 4.77126029z" fill="#10e0c1" transform="translate(2.900949 431.087796)"/><path d="m101.097885 7.58968935c-.816684.82509216-1.9276331 1.28904349-3.0864413 1.28895057h-93.21466481c-1.55781192.00000003-2.99728952-.83409803-3.77619549-2.18809751-.77890598-1.35399948-.77890598-3.02219565-.00000001-4.37619513.77890597-1.35399949 2.21838357-2.18809755 3.77619549-2.18809752h93.21466482c1.7659665-.00860357 3.3618633 1.05517996 4.0388303 2.6921793s.300642 3.52230769-.952389 4.77126029z" fill="#fc3952" transform="translate(25.707819 466.425501)"/><path d="m102.53022 7.93970015c-.816684.82509216-1.927633 1.28904349-3.0864413 1.28895057h-95.01681502c-2.40816855 0-4.36037488-1.95928928-4.36037488-4.37619508s1.95220633-4.37619508 4.36037488-4.37619508h95.01681502c1.7659663-.00860357 3.3618633 1.05517996 4.0388303 2.6921793s.300642 3.52230769-.952389 4.77126029z" fill="#f36" transform="translate(25.207631 525.055373)"/><path d="m144.533224 7.61155584c-.816684.82509216-1.927633 1.2890435-3.086441 1.28895057h-136.7148418c-2.40816855 0-4.36037488-1.95928927-4.36037488-4.37619507 0-2.41690581 1.95220633-4.37619508 4.36037488-4.37619508h136.7148418c1.765966-.00860358 3.361864 1.05517995 4.038831 2.6921793.676967 1.63699934.300641 3.52230769-.95239 4.77126028z" fill="#8a19fa" transform="translate(3.401137 560.393078)"/></g><g transform="matrix(-1 -.00000056 .00000056 -1 510.891925 611.594104)"><path d="m12.3890096 8.8652159c-.3221164.32545288-.6924473.5989492-1.0978616.81079149l-3.97715908 2.07895251c-2.12425591.8542182-4.54540028-.0806721-5.55137707-2.14358492-1.00597679-2.06291283-.25616707-4.55535576 1.71921863-5.71485563l3.85287281-1.93342585c1.8750675-.83109353 4.07371471-.24274801 5.28760661 1.41493351 1.2138918 1.65768152 1.1168829 3.93931735-.2333003 5.48718889z" fill="#7383bf" transform="translate(57.017175 335.71439)"/><g fill="#7383bf" transform="translate(0 3.814936)"><path id="b" d="m81.979866 8.29856141c.4206223-.19675422.80018-.47191907 1.1184888-.81076709 1.3883088-1.3467186 1.7025576-3.46112792.7664235-5.15583372-.5229358-1.01118862-1.4364495-1.7626966-2.5270979-2.07895863-1.0724361-.36661482-2.2476497-.2764455-3.2521088.24949366l-.331533.14552827c-2.1033435 1.13186066-2.9437761 3.72662969-1.9056766 5.88341685.2230714.41725865.5018236.80197718.8286005 1.14344471 1.3426041 1.29077753 3.3473462 1.59842429 5.0128992.76920422.1040535-.0318998.202075-.08108835.2900043-.14552827zm-15.3701146 8.56532819c.2910484-.2175939.5678285-.4536989.8286005-.7068599 1.5148667-1.563905 1.6472247-4.0099441.3101886-5.7293315-1.337152-1.71944561-3.733516-2.18461217-5.6130922-1.08959926-2.6099232 1.57997126-5.199314 3.18078226-7.6435867 4.76075356-1.9860658 1.3469515-2.5536623 4.0299106-1.2842553 6.0705662.1764387.2490862.3702776.4852495.5800087.7068599 1.465914 1.4690788 3.7582244 1.7034957 5.4893184.5612734 2.2370936-1.4552244 4.6193053-2.9728514 7.332818-4.5736624zm-21.3772647 14.6981805c.136766-.0879573.2620479-.1927376.3728296-.311838 1.6234443-1.5878298 1.7761026-4.154832.3521813-5.9250379-.733479-.9107159-1.800811-1.4875317-2.9622205-1.6008109-1.134033-.1541436-2.2811742.1693949-3.1692835.893951-2.5064496 1.9958329-4.8678971 3.9916076-6.9393401 5.9042565-.8730291.7787509-1.4010691 1.8745205-1.4670741 3.0449753-.0661209 1.1704547.3351291 2.3190803 1.1150088 3.1918424l.1450022.1455283c1.6141642 1.6825396 4.270952 1.7655489 5.9863858.1871493 2.0922074-1.8503046 4.3086526-3.700551 6.5665105-5.530016zm-24.1321901 25.0305712c-1.4932904 1.5053444-3.8549698 1.6991881-5.5721436.4573662-.2205193-.1487881-.4283944-.3156799-.6214213-.4989291-1.4819222-1.501095-1.665901-3.8571976-.4350065-5.5716371 0 0 2.5064496-3.617367 5.6343205-7.3386995 1.001559-1.2056144 2.5708306-1.7788211 4.1101737-1.5013278s2.8117662 1.3630177 3.332614 2.8430402.2099631 3.1268204-.8142162 4.3130504c-1.8228514 2.2244869-3.5835258 4.5737207-5.1579014 6.6526211-.1376941.22976-.2971965.4456076-.4764192.6445156zm-11.41364323 23.8247821c-1.08809632 1.0794705-2.65771587 1.5126209-4.14277015 1.1434447-.78185173-.1594989-1.50106252-.5420637-2.07144308-1.1018818-1.07556814-1.0921023-1.50721061-2.6673585-1.1393691-4.1578591.81479623-3.0397362 1.81786328-6.0253942 3.00363307-8.9395104.97453062-2.1788493 3.46659601-3.2247318 5.69638149-2.3907967 2.2202733.9292271 3.2823852 3.4782421 2.3822117 5.7171072-1.064664 2.5452312-1.9439571 5.1646818-2.6306875 7.8376286-.201611.7132632-.5791966 1.3639492-1.09795643 1.8918675zm-.51794777 26.2779816c-.57200458.565755-1.28901134.961476-2.07132707 1.143386-1.44723772.32546-2.9592044-.122709-3.99788399-1.185007-.57722466-.573673-.99193088-1.291244-1.20143002-2.078901-.68742632-3.106504-1.13066897-6.2623723-1.32578389-9.4384976-.07493713-2.4155947 1.74373816-4.4691149 4.14288615-4.6776279 2.41074817-.1068759 4.46374698 1.7411003 4.61930531 4.1579173.15625434 2.707699.53035996 5.3983422 1.11860481 8.0455592.3165687 1.496729-.1707546 3.050506-1.2843713 4.033171zm10.6679841 24.323769c.1450021-.145528.3314169-.270275.5178317-.457366 1.5408511-1.478276 1.7257579-3.918727.4350066-5.675544l-.1656505-.228713c-1.6032601-2.156205-3.0567619-4.420741-4.3500653-6.777367-.5653925-1.015322-1.5127787-1.760718-2.6301075-2.069412-1.1174447-.308695-2.3114506-.154901-3.3148657.427038-2.05740686 1.212017-2.78230173 3.845788-1.63643654 5.945819 1.55140724 2.70345 3.23842054 5.326276 5.05431184 7.85841.135722.186858.2882643.360852.4556548.519769 1.5250749 1.490326 3.8904664 1.682365 5.6343206.457366zm18.9537563 18.481857c-1.5558153 1.565011-4.0343085 1.708153-5.7586744.332678-2.4442726-1.954212-4.7435431-3.970826-6.9599884-6.008164-.868157-.789869-1.3801887-1.899085-1.4191653-3.07443-.0390926-1.175344.398234-2.316344 1.2119862-3.162446.7716436-.893077 1.8766762-1.426351 3.0533978-1.473561 1.1768377-.047267 2.3207308.395721 3.1609314 1.224068 1.9472053 1.829465 4.1428862 3.658988 6.4421567 5.550797l.3107687.311838c1.6246043 1.548421 1.7957069 4.088064.3935939 5.841854zm16.9649066 15.425822c1.7020935.922417 3.8050891.618495 5.1786657-.748422.2736481-.279124.5397561-.609415.7456592-.977077.9493582-1.720261.6355735-3.865173-.7664235-5.23896-.2794482-.283547-.6007731-.521981-.9528383-.70686-2.7136288-1.55919-5.1786657-2.972909-7.4365236-4.365789-2.0534628-1.274479-4.7476032-.63689-6.0174743 1.424081-1.269871 2.060971-.6346455 4.764887 1.4189333 6.039365 2.40286 1.476064 5.0543118 3.035254 7.8300015 4.573662zm29.1037926 10.706631c-1.3009595 1.294678-3.266145 1.642724-4.9300739.87317l-4.660718-2.078959-3.3971109-1.476064c-1.0606039-.451021-1.8861883-1.324773-2.2786222-2.411578-.4488108-1.077491-.4488108-2.290498 0-3.367931 1.0213953-2.164122 3.5607894-3.135902 5.7585584-2.203706 1.0564278.498988 2.0714431.956354 3.2314605 1.455283 1.532847.623676 3.1486352 1.351317 4.867897 2.078959.4575109.217186.8827732.497066 1.263607.831606 1.2956234 1.302711 1.6430486 3.278752.870013 4.947903-.1561383.500326-.4174903.961185-.7250109 1.351317zm17.7936228 13.367645c1.863568 1.002108 4.038601.720714 5.44779-.686078.206599-.192854.429322-.416386.621421-.665239 1.102017-1.734988.861313-4.004414-.580008-5.467672-.152079-.141861-.318773-.267306-.497068-.374182l-.227943-.16631c-2.527098-1.600811-5.116373-3.222403-7.7678249-4.698467-2.0877993-1.205557-4.7542153-.484202-5.9554133 1.61123-1.201198 2.095375-.4824513 4.771407 1.6053481 5.976963 2.3614474 1.330536 4.7643071 2.8066 7.1465191 4.324227.057073.063741.12795.113512.207179.145528zm26.017335 15.945533c-1.684462 1.661525-4.384982 1.661525-6.069328 0l-.393593-.394964-.393594-.395022c-1.657201-1.663155-3.480053-3.367932-5.364965-5.010247-.882425-.748714-1.433549-1.81759-1.532963-2.97291-.082477-1.168126.288729-2.322922 1.03578-3.222403.754823-.903265 1.843035-1.459998 3.014769-1.542309 1.17185-.082311 2.326647.316786 3.19956 1.105724 2.071443 1.76712 3.997884 3.596585 5.862148 5.44689l.870013.873111c1.585164 1.763396 1.484126 4.472608-.227827 6.11213zm13.774974 22.57743c.468995-.223182.896462-.525532 1.263491-.893893 1.264767-1.264 1.641425-3.170537.952954-4.823156-1.296551-2.861552-2.770237-5.63893-4.412242-8.315835-1.269871-2.060971-3.964011-2.69856-6.017474-1.424081-2.053579 1.274478-2.688804 3.978393-1.418933 6.039307 1.441437 2.320302 2.735205 4.729785 3.87353 7.214011.201611.50085.504955.953966.890777 1.330477 1.286808 1.272965 3.221369 1.619904 4.867897.87317zm6.152153 24.885101c-.854701.894126-2.062279 1.359117-3.293522 1.268191-1.075568-.056581-2.092903-.507951-2.858631-1.268191-.890893-.857802-1.354204-2.069761-1.263607-3.305471.12621-2.711483.049997-5.42867-.227827-8.128743-.230728-2.386082 1.480994-4.519643 3.852882-4.802433 1.153637-.15461 2.31899.184879 3.210696.935572.886137.727176 1.457678 1.770089 1.595024 2.910565.301604 2.990432.391506 5.998559.269356 9.001797v.56139c-.051389 1.086688-.501476 2.115981-1.263607 2.889725zm-12.097126 26.236418c1.677501.863623 3.720292.526114 5.033548-.831606l.020764.062402c.336985-.351363.597989-.768971.766423-1.226629l.124238-.249377c1.344808-2.704264 2.541134-5.480362 3.583642-8.315834.39197-1.091695.334897-2.295039-.15869-3.344356-.493588-1.049201-1.383089-1.858222-2.472113-2.248005-2.256466-.761986-4.710947.391879-5.572144 2.619393-.930334 2.619625-2.030495 5.175218-3.293637 7.650595-.833125 1.687779-.49962 3.7211.8286 5.051811.329677.340419.715035.621696 1.139369.831606zm-16.136538 21.101366c1.72715 1.54912 4.356445 1.485437 6.00715-.145528l.248592-.166368c3.107106-3.471839 5.924325-7.047643 5.924325-7.047643 1.45733-1.919343 1.096332-4.659582-.807952-6.13291-1.928529-1.506742-4.708279-1.162713-6.214214.769204-1.595024 2.120521-3.355814 4.22032-5.427257 6.507093-1.59688 1.725965-1.541895 4.411951.124354 6.070624zm-6.918576 12.39051.248592-.249494c1.674833-1.615596 1.775058-4.249658.248592-5.987382-.755636-.897153-1.836888-1.454468-3.003633-1.548071-1.166862-.093721-2.322587.283954-3.210697 1.0492-2.112855 1.829465-4.329301 3.67977-6.587158 5.38443l.124237.187091-.186414-.124689c-1.9249333 1.511399-2.2677184 4.30135-.766424 6.236876.105446.160663.230728.307356.37283.436585 1.567763 1.537943 4.025376 1.679862 5.758558.332619 2.444389-1.871027 4.785072-3.804458 7.001517-5.717165zm-21.0458476 15.571408c-.2197073.211657-.4551909.406315-.7043626.581997-2.3406831 1.476122-4.8471327 3.056094-7.394995 4.573779l-.2485917.187091c-1.0128112.575244-2.2090211.731833-3.33505.436585-1.1280009-.303747-2.0848993-1.053974-2.6514518-2.078959-1.2169743-2.085827-.533144-4.766109 1.532963-6.008222 2.4235084-1.455282 4.9093097-2.993691 7.332818-4.573662.9824188-.611917 2.1620405-.82043 3.2936374-.582113 1.133337.235639 2.1254999.916944 2.7549254 1.891867 1.1473732 1.753092.9048135 4.074675-.5798927 5.571637z"/></g><path d="m90.1619837 344.75109c-1.3156777 1.320042-3.322131 1.654271-4.9921631.831581-53.8573619-26.423487-84.12105644-61.661732-83.27176727-96.692082.78714605-31.849553 26.80439477-60.45594 73.32886967-80.559411 42.816603-18.523467 66.762414-43.949056 67.425274-71.5575457.766432-31.184288-28.067971-63.4080522-79.0874643-88.48021975-1.9753857-1.15949986-2.7251954-3.65194279-1.7192186-5.71485562s3.4271211-2.99780314 5.551377-2.14358494c54.2095059 26.63138191 84.8253449 61.82804821 84.0589129 96.54655551-.745717 31.1842875-26.576536 59.4372525-72.7074381 79.3744075-43.2930332 18.710573-67.4459886 44.489584-68.1502772 72.763339-.76643168 31.475341 27.7986845 63.761474 78.3831759 88.625746 1.0515375.499312 1.8613635 1.398735 2.2501563 2.499109.3887929 1.100374.3244722 2.310903-.1787193 3.363537-.2328536.427299-.5337253.813531-.8907179 1.143424z" fill="#d75a4a" transform="translate(0 1.907468)"/><path d="m137.258152 7.53552339c-.816684.82509216-1.927633 1.28904349-3.086441 1.28895057h-129.67195631c-1.55781193.00000003-2.99728952-.83409803-3.7761955-2.18809751-.77890597-1.35399948-.77890597-3.02219565 0-4.37619513.77890597-1.35399949 2.21838356-2.18809755 3.77619549-2.18809752h129.67195632c1.765966-.00860357 3.361863 1.05517996 4.03883 2.6921793s.300642 3.52230769-.952389 4.77126029z" fill="#57abc1" transform="translate(6.201906 269.956284)"/><path d="m85.7846996 7.70901843c-.8166838.82509216-1.9276329 1.28904349-3.0864411 1.28895057h-78.23817533c-1.55781193.00000003-2.99728953-.83409803-3.7761955-2.18809751s-.77890598-3.02219565 0-4.37619513c.77890597-1.35399949 2.21838356-2.18809755 3.77619549-2.18809752h78.30031844c1.7659665-.00860357 3.3618638 1.05517996 4.0388308 2.6921793.6769669 1.63699934.3006412 3.52230769-1.0145328 4.77126029z" fill="#f36" transform="translate(31.409537 304.79235)"/><path d="m100.704312 7.76350147c-.816684.82509216-1.9276331 1.28904349-3.0864413 1.28895056h-93.21466484c-2.40816854 0-4.36037487-1.95928927-4.36037487-4.37619507 0-2.41690581 1.95220633-4.37619508 4.36037487-4.37619508h93.21466484c1.7659665-.00860358 3.3618633 1.05517996 4.0388303 2.6921793s.300642 3.52230769-.952389 4.77126029z" fill="#f36" transform="translate(25.707819 140.750091)"/><path d="m102.636835 7.61187292c-.816684.82509216-1.927633 1.28904349-3.086441 1.28895057h-95.01681503c-2.40816854 0-4.36037487-1.95928928-4.36037487-4.37619508s1.95220633-4.37619508 4.36037487-4.37619508h95.01681503c1.765966-.00860357 3.361864 1.05517996 4.038831 2.6921793s.300641 3.52230769-.95239 4.77126029z" fill="#10e0c1" transform="translate(24.707443 199.881603)"/><path d="m144.639839 7.88445721c-.816683.82509216-1.927633 1.2890435-3.086441 1.28895057h-136.71484151c-2.40816851-.00000005-4.36037478-1.95928931-4.36037477-4.37619508 0-2.41690576 1.95220627-4.37619502 4.36037478-4.37619507h136.7148415c1.765967-.00860358 3.361864 1.05517995 4.038831 2.6921793.676967 1.63699934.300641 3.52230769-.95239 4.77126028z" fill="#8a19fa" transform="translate(2.900949 234.618579)"/><path d="m82.4355209 9.5098223c.4206223-.19687065.80018-.47197729 1.1184888-.81088352 1.4087251-1.31161718 1.7242498-3.45099915.7664235-5.1557755-.5229359-1.01124684-1.4364496-1.76275482-2.527098-2.07895864-1.0724361-.36661481-2.2476497-.27650371-3.2521088.24949367l-.3315329.14552826c-2.1033436 1.13186067-2.9437762 3.72657149-1.9056766 5.88341685.2230713.41725866.5018235.80191898.8286004 1.1433865 1.3426042 1.29089398 3.3473462 1.59848248 5.0128992.76932064.1040536-.03189979.2020751-.08114656.2900044-.14552826zm-15.4322916 8.6067747c.2910484-.2174775.5678286-.4535826.8286005-.7068017 1.5148667-1.563905 1.6472247-4.0099442.3101886-5.7293898-1.337152-1.71932915-3.733516-2.18455392-5.6130922-1.0895992-2.6099232 1.5800877-5.199314 3.1807822-7.6435867 4.76087-1.9860658 1.3468932-2.5536623 4.0298524-1.2842552 6.070508.1764386.2490279.3702775.4852494.5800087.7068017 1.4659139 1.4691369 3.7582243 1.7034957 5.4893183.5613898 2.2370936-1.4552827 4.6193053-2.9729679 7.332818-4.5737788zm-21.3771487 14.6982387c.136766-.0880155.2620479-.1926795.3728296-.3118962 1.6234443-1.5877716 1.7761026-4.1547739.3521813-5.9249797-.733479-.9107742-1.800811-1.4875318-2.9622205-1.600811-1.134033-.1541435-2.2811742.1693949-3.1692835.8940093-2.5064496 1.9957164-4.8678971 3.9915493-6.9393401 5.90414-.8730291.7788673-1.4010691 1.874637-1.467074 3.0450335-.066121 1.1703966.335129 2.3191385 1.1150087 3.1918425l.1450022.1455282c1.6141642 1.6825397 4.270952 1.765549 5.9863858.1870912 2.0922074-1.8501882 4.3086526-3.7004929 6.5665105-5.5299578zm-24.1323061 25.0306293c-1.4932904 1.5053445-3.8549698 1.6991881-5.5721436.4573081-.2205193-.1487881-.4283944-.3156217-.6214213-.4988709-1.4819222-1.5010368-1.665901-3.8571977-.4350065-5.5716371 0 0 2.5064496-3.6173671 5.6343205-7.3386995 1.001559-1.2055562 2.5708306-1.7788212 4.1101737-1.5012697 1.5393431.2774351 2.8117662 1.3629596 3.332614 2.8429239.5208478 1.4800807.2099631 3.1268786-.8142162 4.3131086-1.8228514 2.2036472-3.5835258 4.4489738-5.1579014 6.7150236-.1409421.2080472-.3003285.4029386-.4764192.582113zm-11.4136432 23.824724c-1.08809635 1.0794705-2.6577159 1.512679-4.14277018 1.1433865-.78185173-.1593826-1.50106252-.5420637-2.07144308-1.1018236-1.07556814-1.0921606-1.50721061-2.6673586-1.13936909-4.1579173.81479622-3.0396781 1.81786327-6.025336 3.00363306-8.9395105.97453062-2.1787328 3.46659601-3.2246736 5.69638149-2.3907384 2.2202733.9291689 3.2823852 3.478242 2.3822117 5.7171653-1.064664 2.5452313-1.9439571 5.1646237-2.6306874 7.8375705-.2016111.7133213-.5791967 1.3640073-1.0979565 1.8918675zm-.51783179 26.298821c-.57200458.565697-1.28901134.961534-2.07132708 1.143386-1.44723771.325518-2.9592044-.122709-3.99788398-1.184949-.57722466-.573731-.99193088-1.291243-1.20143003-2.078959-.68742631-3.106504-1.13066896-6.2623721-1.32578389-9.4384974-.07493712-2.4156529 1.74373816-4.469115 4.14288616-4.6776279 2.41074817-.1068759 4.46374697 1.7411003 4.61930531 4.1579173.15625434 2.7077572.53036 5.398284 1.1186048 8.045501.2936004 1.476705-.1918669 3.001026-1.28437129 4.033229zm10.62657139 24.427677c.1450022-.145529.331417-.270217.5178318-.457308l.0414126-.083243c1.46081-1.518966 1.6432807-3.864183.4350066-5.59236l-.1657665-.228654c-1.6032601-2.156263-3.0566459-4.420683-4.3499493-6.777426-.5653925-1.015322-1.5127787-1.760659-2.6302235-2.069412-1.1173287-.308636-2.3113346-.154842-3.3148657.427038-2.07248708 1.197989-2.81663825 3.835077-1.67784916 5.945819 1.55152326 2.70345 3.23842056 5.326335 5.05431186 7.858527.135838.186858.2883803.360794.4557708.519711 1.5250749 1.490325 3.8903504 1.682306 5.6343205.457308zm18.9536404 18.481857c-1.5558153 1.564953-4.0343085 1.708152-5.7586744.332619-2.4442727-1.954153-4.7435432-3.970709-6.9599884-6.008105-.868157-.789811-1.3801887-1.899086-1.4191653-3.074489-.0390926-1.175286.398234-2.316344 1.2119862-3.162387.7716436-.893078 1.8766761-1.426294 3.0533978-1.473561 1.1768377-.047268 2.3207308.39572 3.1609314 1.224067 1.9472052 1.829465 4.1428862 3.65893 6.4421567 5.550798l.3107686.311896c1.6246044 1.548421 1.795707 4.088064.3935939 5.841854zm17.0271995 15.301191c1.6761091.871074 3.7194798.569656 5.0750761-.748481.3638975-.277435.6370816-.607842.8492488-.977135.9493582-1.72026.6355735-3.865114-.7664235-5.238901-.2794482-.283489-.600773-.521923-.9528383-.706802-2.7136287-1.559248-5.1786657-2.972968-7.4365236-4.365848-2.0534628-1.274478-4.7476032-.636948-6.0174743 1.424082-1.269871 2.060913-.6346455 4.764828 1.4189333 6.039306 2.4028601 1.476123 5.0543118 3.035371 7.8300015 4.573779zm29.0000871 10.706457c-1.3009595 1.294736-3.266145 1.642839-4.930074.873169l-4.6607179-2.078958-3.397111-1.476006c-1.0606039-.451021-1.8861883-1.324773-2.2786222-2.411578-.4488107-1.077491-.4488107-2.290499 0-3.367874.4839593-1.085408 1.3789127-1.932499 2.4869614-2.353948 1.1079326-.421334 2.337435-.382216 3.4165992.108622 1.0564279.498987 2.0714431.956295 3.2314605 1.455283 1.532847.623675 3.1486352 1.351317 4.867897 2.078958.4575109.217128.8827733.497008 1.263607.831607 1.2956234 1.302769 1.6430486 3.278694.870013 4.947845-.1809627.5246-.4785071 1.000885-.870013 1.39288zm18.0422151 13.284635c1.718681 1.00205 3.893714.720656 5.302903-.686078l-.062177.083125c.260772-.217128.490688-.468833.683598-.748364 1.102017-1.735046.861313-4.004356-.580008-5.467672-.152195-.141919-.318773-.267306-.497068-.374182l-.227943-.166368c-2.527098-1.600695-5.116373-3.222345-7.767825-4.698351-1.3506079-.779915-3.0131449-.777354-4.3614331.00652-1.3482882.783989-2.1773527 2.230308-2.1750326 3.794096.00232 1.563905.8357925 3.007662 2.1864008 3.787577 2.3614474 1.330478 4.7643079 2.806484 7.1465189 4.324169.057073.063683.12795.113512.207063.145528zm25.808995 16.006713c-1.688058 1.600112-4.342525 1.579738-6.00599-.061239l-.393594-.395022-.393594-.394905c-1.657201-1.663214-3.480052-3.36799-5.364965-5.010364-.882425-.748597-1.433549-1.817473-1.532963-2.972851-.082477-1.168068.288729-2.322864 1.03578-3.222345.754823-.903323 1.843036-1.460056 3.014769-1.542367 1.17185-.082311 2.326647.316786 3.19956 1.105782 2.071443 1.767062 3.997884 3.596527 5.862148 5.446832l.870013.873169c1.609988 1.788485 1.48053 4.545838-.291164 6.17331zm13.879724 22.51625c.469111-.223299.896462-.525648 1.263607-.894009l-.062177.083125c1.351188-1.283792 1.749538-3.282768.994367-4.989407-1.296551-2.861552-2.770238-5.63893-4.412242-8.315835-1.269871-2.061029-3.964012-2.69856-6.017474-1.424081-2.053579 1.274478-2.688805 3.978393-1.418934 6.039306 1.45153 2.346731 2.752374 4.784039 3.894295 7.297137.201611.50085.504955.953967.890661 1.330594 1.286923 1.272849 3.221484 1.619904 4.867897.87317zm6.172917 24.947387-.029233.03027c-.017516.018045-.035264.035742-.053129.053438-.8489.839407-2.018894 1.272499-3.211276 1.184484-1.075568-.056582-2.092903-.507952-2.858515-1.268192-.890893-.857802-1.354204-2.069761-1.263607-3.305471.126094-2.711483.049997-5.42867-.227827-8.128743-.196739-2.348594 1.482502-4.436983 3.811469-4.740031 1.153637-.154609 2.318875.184879 3.210696.935572.886138.727176 1.457678 1.77009 1.595024 2.910566.301489 2.990431.391506 5.998559.26924 9.001796v.56139c-.075285 1.041517-.516207 2.02098-1.242842 2.764921zm-7.117403 25.459414c.322369-.298508.586737-.655576.778836-1.052461l.124237-.249493c1.344925-2.704148 2.541251-5.480246 3.583642-8.315835.39197-1.091578.334897-2.294922-.15869-3.344239-.493588-1.049317-1.383089-1.858222-2.472113-2.248121-2.192781-.743475-4.587521.322723-5.509967 2.453141-.930334 2.619625-2.030494 5.175218-3.293637 7.650596-.833125 1.687778-.49962 3.721099.8286 5.05181.329677.340419.715035.621696 1.139369.831606 1.651401.850118 3.656723.536359 4.971603-.768855zm-21.199086 21.87837c1.72715 1.54912 4.356445 1.485437 6.00715-.145528l.124238-.166368c3.107222-3.471838 5.924325-7.047643 5.924325-7.047643 1.48575-1.886745 1.180781-4.622327-.683599-6.13291-1.928528-1.506742-4.708278-1.162713-6.214213.769204-1.595024 2.120522-3.355814 4.22032-5.427257 6.507093-1.59688 1.725965-1.541895 4.411951.124354 6.070624zm-6.835751 12.39051.248592-.249494c1.660217-1.610008 1.769607-4.244302.248592-5.987382-.755636-.897152-1.836888-1.454467-3.003633-1.548071-1.166862-.09372-2.322587.283954-3.210697 1.0492-2.112855 1.829465-4.3293 3.67977-6.587158 5.38443l.124238.187091-.186415-.124689c-1.9249331 1.511399-2.2677183 4.30135-.766424 6.236876.105446.160663.230728.307356.37283.436585 1.567763 1.537943 4.025376 1.679862 5.758558.332619 2.444389-1.871027 4.785072-3.804458 7.001517-5.717165zm-21.0457315 15.571408c-.2197073.211657-.4551908.406315-.7043626.581997-2.3406831 1.476122-4.8471327 3.056094-7.3949949 4.573779l-.2485917.187091c-1.0128112.575244-2.2090212.731833-3.3350501.436585-1.1280009-.303747-2.0848993-1.053974-2.6514518-2.078959-1.2169742-2.085827-.533144-4.766109 1.532963-6.008222 2.4235084-1.455282 4.9093097-2.993691 7.3328181-4.573662.9824187-.611917 2.1620404-.82043 3.2936374-.582113 1.133337.235639 2.1254999.916944 2.7549253 1.891867 1.1377451 1.776726.8596889 4.113677-.5798927 5.571637z" fill="#7383bf" transform="translate(0 328.084517)"/><path d="m11.446215 8.6938482c-.3396706.33790663-.7313554.6186965-1.1600047.83158102l-3.85287281 1.93342588c-2.11034351.887776-4.54573134-.0083127-5.58425616-2.05469903-1.03852481-2.04638631-.3286089-4.55029543 1.62781149-5.74137299l3.97715904-2.07895253c1.91371918-.92395882 4.21224474-.33363531 5.44851934 1.39932711 1.2362747 1.73296241 1.0524938 4.10700682-.4356418 5.62753244z" fill="#7383bf" transform="translate(76.0229 326.177049)"/><path d="m88.6549842 345.983107c-1.3156777 1.320041-3.3221309 1.654271-4.9921631.831581-53.8573619-26.423487-84.12105643-61.661732-83.27176726-96.692082.78714606-31.849553 26.80439476-60.45594 73.32886966-80.559411 42.8166025-18.502677 66.7624145-43.907477 67.4252745-71.5367566.766431-31.1842879-28.067972-63.4080521-79.0874648-88.48021966-1.77229-1.24179348-2.3740136-3.59725118-1.415674-5.54168045.9583396-1.94442928 3.188899-2.89380828 5.2478325-2.23360201 54.2095063 26.65217142 84.8253453 61.82804822 83.9760553 96.54655552-.745717 31.1842882-26.576536 59.4372532-72.7074381 79.3744072-43.1894614 18.710573-67.3631311 44.510374-68.04670531 72.763339-.76643169 31.475341 27.79868451 63.761474 78.38317591 88.625746 2.0773469 1.067279 2.9528062 3.584203 1.9885795 5.71712-.2101975.437564-.4900589.837813-.8285748 1.185003z" fill="#d75a4a" transform="translate(1.900572 326.177049)"/><path d="m137.151536 7.88414014c-.816683.82509216-1.927632 1.28904349-3.086441 1.28895057h-129.67195561c-2.40816854 0-4.36037487-1.95928928-4.36037487-4.37619508s1.95220633-4.37619508 4.36037487-4.37619508h129.67195561c1.765967-.00860357 3.361864 1.05517996 4.038831 2.6921793s.300641 3.52230769-.95239 4.77126029z" fill="#f36" transform="translate(6.702094 595.130055)"/><path d="m92.1035198 7.49254384c-.8166838.82509216-1.9276329 1.28904349-3.0864411 1.28895057h-84.26605699c-1.55781192.00000003-2.99728952-.83409803-3.77619549-2.18809751-.77890598-1.35399948-.77890598-3.02219565-.00000001-4.37619513.77890598-1.35399949 2.21838357-2.18809755 3.7761955-2.18809752h84.26605699c1.7659665-.00860357 3.3618638 1.05517996 4.0388308 2.6921793.6769669 1.63699934.3006412 3.52230769-.9523897 4.77126029z" fill="#f3ca3e" transform="translate(28.508588 361.514754)"/><path d="m141.727306 7.66603888c-.816684.82509216-1.927633 1.28904349-3.086441 1.28895057h-134.04268798c-1.55781193.00000004-2.99728952-.83409802-3.7761955-2.18809751-.77890597-1.35399948-.77890597-3.02219565 0-4.37619513s2.21838356-2.18809755 3.77619549-2.18809751h134.04268799c1.765967-.00860358 3.361864 1.05517995 4.038831 2.69217929s.300641 3.5223077-.95239 4.77126029z" fill="#f3ca3e" transform="translate(4.301333 396.35082)"/><path d="m145.986273 7.93862318c-.816683.82509216-1.927633 1.28904349-3.086441 1.28895056h-138.43413417c-1.55781192.00000004-2.99728952-.83409802-3.77619549-2.1880975-.77890598-1.35399948-.77890598-3.02219565-.00000001-4.37619514.77890597-1.35399948 2.21838357-2.18809754 3.77619549-2.18809751h138.43413418c1.765967-.00860357 3.361864 1.05517996 4.038831 2.6921793s.300641 3.52230769-.95239 4.77126029z" fill="#10e0c1" transform="translate(2.900949 431.087796)"/><path d="m101.097885 7.58968935c-.816684.82509216-1.9276331 1.28904349-3.0864413 1.28895057h-93.21466481c-1.55781192.00000003-2.99728952-.83409803-3.77619549-2.18809751-.77890598-1.35399948-.77890598-3.02219565-.00000001-4.37619513.77890597-1.35399949 2.21838357-2.18809755 3.77619549-2.18809752h93.21466482c1.7659665-.00860357 3.3618633 1.05517996 4.0388303 2.6921793s.300642 3.52230769-.952389 4.77126029z" fill="#fc3952" transform="translate(25.707819 466.425501)"/><path d="m102.53022 7.93970015c-.816684.82509216-1.927633 1.28904349-3.0864413 1.28895057h-95.01681502c-2.40816855 0-4.36037488-1.95928928-4.36037488-4.37619508s1.95220633-4.37619508 4.36037488-4.37619508h95.01681502c1.7659663-.00860357 3.3618633 1.05517996 4.0388303 2.6921793s.300642 3.52230769-.952389 4.77126029z" fill="#f36" transform="translate(25.207631 525.055373)"/><path d="m144.533224 7.61155584c-.816684.82509216-1.927633 1.2890435-3.086441 1.28895057h-136.7148418c-2.40816855 0-4.36037488-1.95928927-4.36037488-4.37619507 0-2.41690581 1.95220633-4.37619508 4.36037488-4.37619508h136.7148418c1.765966-.00860358 3.361864 1.05517995 4.038831 2.6921793.676967 1.63699934.300641 3.52230769-.95239 4.77126028z" fill="#8a19fa" transform="translate(3.401137 560.393078)"/></g></g></g></svg>