<svg height="114" viewBox="0 0 359 114" width="359" xmlns="http://www.w3.org/2000/svg"><g fill="none"><path d="m80.6 101.8c38.4 15.2 84 7.3 115-23.8l47.7-47.7s0 0 .1-.1c10.7-10.7 25.4-15.2 39.4-13.5-38.4-15.2-84-7.3-115 23.8l-47.8 47.8s0 0-.1.1c-10.7 10.7-25.4 15.2-39.3 13.4z" fill="#25ac9b"/><path d="m326.2 113.3-6-6-34.1-34.1-42.9-42.9.1-.1c10.7-10.7 25.3-15.2 39.3-13.5 13.2 5.2 25.5 13.1 36.2 23.8l40.1 40.1c0 .1-.6 32.5-32.7 32.7z" fill="#ecb004"/><path d="m203.7 16.8c25.3-10 53.6-10 78.9 0-14-1.8-28.6 2.7-39.4 13.5-10.7-10.8-25.4-15.3-39.5-13.5z" fill="#2e3959"/><path d="m80.6 101.8c-13.2-5.2-25.6-13.1-36.2-23.7l-37.6-37.7c-9-9-9-23.7 0-32.7 9-9 23.7-9 32.7 0l6 6 31.6 31.6 42.9 43-.1.1c-10.7 10.7-25.3 15.2-39.3 13.4z" fill="#287cbc"/><path d="m159.5 101.8c-25.3 10-53.6 10-78.9 0 14 1.8 28.6-2.7 39.4-13.5 10.7 10.9 25.4 15.3 39.5 13.5z" fill="#075681"/><g transform="translate(26 10)"><path d="m54.6 8.2c38.4-15.2 83.9-7.2 115 23.8l47.7 47.7s0 0 .1.1c10.7 10.7 25.4 15.2 39.4 13.5-38.4 15.2-84 7.3-115-23.8l-47.8-47.7s0 0-.1-.1c-10.7-10.7-25.4-15.2-39.3-13.5z" fill="#e94b86"/><path d="m169.5 68 18-18-18-18c-4.7-4.7-9.7-8.8-15-12.5-4.5 3.3-8.9 7-13 11l-19.3 19.5 19.4 19.4c4.1 4.1 8.4 7.8 13 11 5.3-3.5 10.3-7.7 14.9-12.4z" fill="#2b3b5c"/><path d="m292.9 30.9c-4.6-4.6-9.6-8.8-14.8-12.4l-17.9 17.9-13.5 13.6 13.6 13.6 17.9 17.9c5.2-3.6 10.2-7.7 14.8-12.4l19-19.1z" fill="#e94b86"/><path d="m177.7 93.2c25.3 10 53.6 10 78.9 0-14 1.8-28.6-2.7-39.4-13.5-10.7 10.9-25.4 15.4-39.5 13.5z" fill="#c62101"/><path d="m51.1 35.4-16.6-16.6c-5.7 3.8-11.1 8.2-16.1 13.2l-18 18 18 18c5 5 10.4 9.4 16.1 13.2l16.6-16.6 14.6-14.6z" fill="#075681"/><path d="m133.5 8.3c-25.3-10-53.6-10-78.9 0 14-1.8 28.6 2.7 39.4 13.5 10.7-10.9 25.4-15.4 39.5-13.5z" fill="#b52a8f"/></g></g></svg>