<svg height="1008" viewBox="0 0 826 1008" width="826" xmlns="http://www.w3.org/2000/svg" xmlns:xlink="http://www.w3.org/1999/xlink"><linearGradient id="a" x1="0%" x2="100%" y1="0%" y2="100%"><stop offset="0" stop-color="#11fad7"/><stop offset="1" stop-color="#19a69a"/></linearGradient><g fill="none" fill-rule="evenodd" transform="translate(-1)"><path d="m345.118 451.643h-.132c0-.969 0-1.863.036-2.832.03.969.063 1.863.096 2.832" fill="#c8422b"/><path d="m363.415 990.089c.063-.429.129-.768.165-.897 1.065-4.731 2.565-9.396 4.464-13.863h86.034c1.896 4.467 3.399 9.132 4.464 13.863.03.129.102.468.165.897zm20.358-39.549h54.573c4.038 4.569 7.668 9.498 10.698 14.793h-75.972c3.036-5.295 6.669-10.224 10.701-14.793zm27.285-23.457c5.865 4.332 11.766 8.631 17.229 13.461h-34.455c5.466-4.83 11.364-9.129 17.226-13.461zm-23.289-44.016h46.581c-7.032 8.1-14.823 15.597-22.557 22.623l-.735.633-.732-.633c-7.728-7.026-15.528-14.523-22.557-22.623zm-18.291-27.285h83.166c-2.835 6.06-6.33 11.823-10.332 17.289h-62.508c-3.999-5.466-7.497-11.229-10.326-17.289zm-3.867-9.996c-1.599-5.034-2.667-10.197-3.231-15.465-.036-.27-.069-.93-.132-1.827h97.626c-.069.897-.099 1.557-.135 1.827-.564 5.268-1.632 10.431-3.231 15.465zm-3.897-28.056v-.333c.534-4.998 1.632-12.429 1.866-13.395.201-.933.432-1.869.699-2.766h93.561c.267.897.498 1.833.702 2.766.234.966 1.332 8.397 1.866 13.395v.333l-.033.768h-98.628zm7.863-31.089c2.097-4.467 4.596-8.697 7.398-12.693h68.175c2.793 3.996 5.292 8.226 7.392 12.693.702 1.5 1.398 3.03 1.998 4.599h-86.964c.603-1.569 1.302-3.099 2.001-4.599zm23.658-30.822c5.631-4.998 11.76-9.426 17.823-13.956 6.066 4.53 12.195 8.958 17.826 13.956 2.871 2.568 5.601 5.298 8.199 8.133h-52.044c2.595-2.835 5.331-5.565 8.196-8.133zm-5.934-58.509h47.514c-7.128 8.331-15.126 15.993-23.022 23.19l-.735.633-.732-.633c-7.896-7.197-15.891-14.859-23.025-23.19zm-18.09-27.288h83.697c-2.76 6.099-6.264 11.829-10.197 17.289h-63.303c-3.933-5.46-7.431-11.19-10.197-17.289zm-3.798-9.996c-1.5-4.863-2.469-9.861-3.033-14.925-.036-.306-.099-1.137-.168-2.337h97.695c-.066 1.2-.132 2.031-.168 2.337-.564 5.064-1.533 10.062-3.03 14.925zm-3.699-27.486c.498-5.07 1.632-12.762 1.866-13.731.267-1.134.534-2.232.864-3.333h93.228c.333 1.101.603 2.199.87 3.333.234.969 1.365 8.661 1.866 13.731v.228h-98.694zm7.863-31.092c2.199-4.662 4.863-9.093 7.83-13.26h67.305c2.964 4.167 5.631 8.598 7.83 13.26.633 1.335 1.233 2.667 1.767 4.032h-86.499c.534-1.365 1.134-2.697 1.767-4.032zm23.658-30.819c5.631-5.064 11.76-9.432 17.823-13.962 6.066 4.53 12.195 8.898 17.826 13.962 2.664 2.403 5.268 4.932 7.698 7.563h-51.045c2.433-2.631 5.031-5.16 7.698-7.563zm-1.467-53.514h38.583c-5.934 6.432-12.261 12.429-18.558 18.165l-.735.633-.732-.633c-6.294-5.736-12.627-11.733-18.558-18.165zm-8.628-9.996c-4.302-5.46-8.199-11.226-11.43-17.292h78.702c-3.237 6.066-7.131 11.832-11.433 17.292zm-20.427-44.577h96.696c-.837 5.892-2.268 11.694-4.401 17.289h-87.894c-2.136-5.595-3.57-11.397-4.401-17.289zm-.999-15.129v-.135c.402-3.834 1.131-9.261 1.599-12.03h95.493c.468 2.769 1.2 8.196 1.602 12.03v.135c-.069 1.698-.135 3.462-.237 5.133h-98.226c-.099-1.671-.165-3.435-.231-5.133zm7.863-31.155c1.335-2.832 2.832-5.595 4.497-8.262h73.971c1.668 2.667 3.162 5.43 4.497 8.262 1.398 2.928 2.598 5.928 3.663 8.997h-90.291c1.065-3.069 2.265-6.069 3.663-8.997zm23.658-30.822c5.631-5.031 11.76-9.462 17.823-13.962 6.066 4.5 12.195 8.931 17.826 13.962 4.332 3.867 8.397 8.031 12.03 12.564h-59.709c3.633-4.533 7.698-8.697 12.03-12.564zm-1.2-53.244h38.049c-5.829 6.33-12.093 12.258-18.291 17.895l-.735.633-.732-.633c-6.195-5.637-12.459-11.565-18.291-17.895zm-8.664-9.996c-4.332-5.466-8.262-11.196-11.493-17.295h78.369c-3.234 6.099-7.167 11.829-11.499 17.295zm-20.625-44.583h96.627c-.864 5.934-2.334 11.694-4.497 17.292h-87.63c-2.169-5.598-3.636-11.358-4.5-17.292zm66.273 642.438c-1.566-1.236-3.132-2.367-4.731-3.531 11.997-10.329 22.923-22.125 32.124-34.917 10.389-14.496 17.688-30.621 19.785-48.444.438-3.669.669-7.365.804-11.1.036-1.035.063-2.031.099-3.063v-.57c-.099-2.964-.369-5.964-.768-8.865-1.365-10.758-4.563-21.321-9.399-31.119-8.76-17.892-22.317-31.518-37.914-43.581-1.566-1.23-3.132-2.361-4.731-3.531 11.997-10.362 22.923-22.158 32.124-34.986 10.389-14.463 17.688-30.621 19.785-48.384.438-3.696.669-7.359.804-11.127.036-1.032.063-2.061.099-3.063-.099-3.165-.369-6.3-.768-9.429-1.365-10.764-4.563-21.294-9.399-31.089-8.76-17.892-22.317-31.587-37.914-43.581-1.566-1.203-3.132-2.37-4.731-3.534 11.997-10.359 22.923-22.155 32.124-34.953 10.389-14.493 17.688-30.648 19.785-48.381.438-3.732.669-7.428.804-11.16.036-.969.063-1.863.099-2.832v-.234c-.099-3.162-.369-6.297-.768-9.426-1.398-10.83-4.563-21.33-9.399-31.092-8.76-17.859-22.317-31.584-37.914-43.614-1.566-1.233-3.132-2.364-4.731-3.528 11.997-10.332 22.923-22.128 32.124-34.923 10.389-14.496 17.688-30.621 19.785-48.447.936-7.797.936-15.696.936-23.589h-16.659c.267 0 0 7.629-.336 13.659h-98.157c-.333-6.03-.603-13.659-.333-13.659h-16.662c0 7.893 0 15.792.933 23.589 2.1 17.826 9.399 33.951 19.791 48.447 9.198 12.795 20.124 24.591 32.121 34.923-1.599 1.164-3.165 2.295-4.731 3.528-15.591 12.03-29.154 25.755-37.917 43.614-4.833 9.762-7.998 20.262-9.396 31.092-.399 3.129-.669 6.264-.765 9.426v.234c.03.969.063 1.863.096 2.832.135 3.732.369 7.428.801 11.16 2.1 17.733 9.399 33.888 19.791 48.381 9.198 12.798 20.124 24.594 32.121 34.953-1.599 1.164-3.165 2.331-4.731 3.534-15.591 11.994-29.154 25.689-37.917 43.581-4.833 9.795-8.028 20.325-9.396 31.089-.399 3.129-.669 6.264-.765 9.429l.096 3.063c.135 3.768.369 7.431.801 11.127 2.1 17.763 9.399 33.921 19.791 48.384 9.198 12.828 20.124 24.624 32.121 34.986-1.599 1.17-3.165 2.301-4.731 3.531-15.591 12.063-29.154 25.689-37.917 43.581-4.833 9.798-8.028 20.361-9.396 31.119-.399 2.901-.669 5.901-.765 8.865v.57c.03 1.032.063 2.028.096 3.063.135 3.735.369 7.431.801 11.1 2.1 17.823 9.399 33.948 19.791 48.444 9.198 12.792 20.124 24.588 32.121 34.917-1.599 1.164-3.165 2.295-4.731 3.531-15.591 12.03-29.154 25.758-37.917 43.62-6.696 13.524-10.197 28.452-10.197 43.581h16.662c-.336 0-.069-3.333.396-7.167h98.028c.468 3.834.732 7.167.402 7.167h16.659c0-15.129-3.495-30.057-10.2-43.581-8.76-17.862-22.317-31.59-37.914-43.62z" fill="url(#a)"/><g fill="#f36"><path d="m525.997 806.045c1.569-2.625-.474-5.928-3.516-5.583l-.084.012c-24.804 2.913-28.257-27.309-18.777-43.593 6.309-10.851 17.613-17.214 29.325-21.006 8.55-2.772 22.992-4.518 31.959-3.909 28.599 1.935 55.002 16.197 77.646 33.159 2.262 1.692 1.83 5.196-.795 6.234-6.963 2.76-13.74 6.123-20.232 9.747-7.395 4.128-14.526 8.814-20.961 14.334-12.981 11.13-21 27.465-32.862 39.951-5.277 5.553-11.496 10.932-19.083 11.988-7.863 1.095-15.906-2.919-20.841-9.135-7.506-9.447-7.659-22.371-1.779-32.199"/><path d="m529.177 475.952c2.778-1.281 2.943-5.169.237-6.591l-.078-.042c-22.14-11.541-7.992-38.472 9.009-46.605 11.325-5.418 24.246-4.317 36.063-.861 8.625 2.52 21.543 9.204 28.617 14.754 22.554 17.691 36.357 44.337 45.531 71.103.915 2.673-1.41 5.322-4.164 4.701-7.308-1.635-14.808-2.667-22.215-3.327-8.43-.747-16.965-.888-25.392.057-16.995 1.899-32.808 10.893-49.641 14.535-7.488 1.623-15.657 2.574-22.524-.825-7.113-3.522-11.505-11.364-12.09-19.278-.888-12.033 6.258-22.803 16.647-27.621"/><path d="m538.921 642.641c1.614-2.028.258-5.025-2.328-5.07h-.072c-21.111-.288-20.679-26.004-10.941-38.613 6.492-8.403 16.668-12.492 26.904-14.379 7.467-1.383 19.773-1.248 27.219.246 23.76 4.776 44.325 19.641 61.44 36.357 1.707 1.665.96 4.554-1.356 5.133-6.141 1.548-12.192 3.621-18.036 5.943-6.651 2.649-13.149 5.787-19.149 9.708-12.108 7.899-20.631 20.706-31.95 29.865-5.034 4.08-10.842 7.902-17.319 7.953-6.711.051-13.014-4.203-16.467-9.957-5.25-8.748-3.951-19.599 2.055-27.186"/><path d="m530.923 336.026c2.85-1.131 3.234-4.998.606-6.573l-.072-.042c-21.456-12.774-5.814-38.862 11.616-46.026 11.61-4.773 24.453-2.949 36.057 1.164 8.466 3.006 20.994 10.407 27.741 16.344 21.522 18.93 33.801 46.311 41.457 73.551.768 2.721-1.707 5.235-4.422 4.467-7.206-2.052-14.631-3.504-21.993-4.578-8.376-1.218-16.89-1.839-25.356-1.371-17.07.945-33.369 9.03-50.382 11.718-7.566 1.203-15.771 1.689-22.44-2.091-6.906-3.915-10.845-11.994-10.986-19.929-.21-12.063 7.536-22.416 18.174-26.634" fill-opacity=".4"/><path d="m489.787 208.946c1.002-2.526 4.443-2.871 5.841-.537l.039.063c11.352 19.077 34.545 5.175 40.911-10.323 4.242-10.326 2.622-21.738-1.038-32.052-2.667-7.53-9.249-18.663-14.52-24.657-16.836-19.137-41.175-30.051-65.385-36.861-2.421-.675-4.656 1.524-3.972 3.939 1.821 6.402 3.114 13.002 4.068 19.545 1.083 7.449 1.635 15.012 1.218 22.539-.834 15.18-8.022 29.664-10.416 44.787-1.068 6.732-1.494 14.028 1.863 19.95 3.477 6.141 10.656 9.645 17.712 9.768 10.722.189 19.929-6.699 23.679-16.161"/><path d="m747.052 292.226c2.235-.135 3.381-2.73 1.917-4.419l-.042-.045c-11.976-13.74 4.809-28.281 18.528-29.286 9.138-.669 17.631 3.522 24.744 9.015 5.193 4.005 12.195 11.991 15.522 17.64 10.623 18.03 12.915 39.813 12.027 60.45-.084 2.061-2.376 3.24-4.083 2.088-4.53-3.06-9.354-5.754-14.211-8.169-5.535-2.754-11.298-5.121-17.277-6.72-12.054-3.231-25.2-1.332-37.614-3.336-5.523-.891-11.322-2.418-15.087-6.555-3.9-4.284-4.797-10.785-3.087-16.32 2.598-8.412 10.326-13.833 18.663-14.343" fill-opacity=".2"/><path d="m690.781 384.788c.975 2.904-1.737 5.694-4.629 4.701l-.081-.027c-23.601-8.163-33.447 20.619-27.684 38.562 3.84 11.952 13.521 20.583 24.15 26.799 7.755 4.536 21.492 9.336 30.375 10.665 28.353 4.236 57.198-4.038 82.95-15.756 2.571-1.167 2.901-4.683.555-6.258-6.21-4.182-12.108-8.925-17.67-13.857-6.339-5.613-12.303-11.718-17.406-18.492-10.293-13.653-14.622-31.326-23.535-46.062-3.963-6.555-8.889-13.14-16.074-15.801-7.443-2.751-16.161-.558-22.317 4.458-9.354 7.617-12.27 20.214-8.634 31.068"/><path d="m740.677 189.014c2.067.831 2.328 3.657.405 4.788l-.051.033c-15.705 9.201-4.443 28.296 8.226 33.606 8.436 3.54 17.805 2.274 26.283-.663 6.189-2.145 15.357-7.479 20.304-11.763 15.786-13.692 24.879-33.585 30.603-53.394.57-1.98-1.218-3.825-3.204-3.276-5.262 1.452-10.68 2.472-16.047 3.216-6.114.849-12.321 1.254-18.492.867-12.435-.771-24.273-6.75-36.66-8.805-5.505-.909-11.49-1.308-16.365 1.413-5.055 2.817-7.968 8.682-8.115 14.466-.216 8.79 5.379 16.377 13.113 19.512" fill-opacity=".6"/><path d="m624.592 210.053c2.31.594 4.326-1.668 3.393-3.861l-.024-.06c-7.656-17.886 14.16-27.138 28.425-23.658 9.498 2.322 16.746 9.36 22.164 17.274 3.957 5.772 8.451 16.176 9.978 23.01 4.872 21.795.048 44.67-7.62 65.334-.768 2.067-3.483 2.511-4.836.783-3.597-4.593-7.608-8.913-11.751-12.966-4.719-4.608-9.792-8.901-15.339-12.492-11.184-7.239-25.155-9.621-37.104-15.726-5.316-2.715-10.707-6.171-13.173-11.61-2.553-5.634-1.329-12.528 2.22-17.589 5.403-7.692 15.027-10.662 23.667-8.439" fill-opacity=".4"/><path d="m579.397 112.661c-1.47-2.154.105-5.07 2.709-4.929l.069.006c21.234 1.218 22.632-24.648 13.749-38.016-5.913-8.907-15.849-13.74-25.998-16.368-7.407-1.92-19.773-2.67-27.366-1.695-24.216 3.093-45.933 16.557-64.326 32.127-1.836 1.557-1.293 4.512.993 5.262 6.06 1.992 11.994 4.503 17.694 7.257 6.498 3.135 12.798 6.756 18.552 11.121 11.595 8.808 19.242 22.284 29.958 32.298 4.77 4.452 10.332 8.706 16.839 9.222 6.735.528 13.368-3.291 17.253-8.823 5.898-8.415 5.373-19.413-.126-27.462" fill-opacity=".4"/><path d="m592.219 178.172c.435-.72-.129-1.623-.96-1.524l-.021.003c-6.771.795-7.713-7.461-5.13-11.907 1.725-2.964 4.812-4.698 8.01-5.736 2.334-.756 6.279-1.23 8.73-1.068 7.809.531 15.018 4.425 21.198 9.06.621.459.498 1.419-.216 1.698-1.899.756-3.75 1.671-5.526 2.661-2.016 1.131-3.966 2.409-5.724 3.915-3.54 3.039-5.73 7.5-8.97 10.908-1.443 1.518-3.141 2.991-5.214 3.276-2.145.3-4.341-.795-5.691-2.49-2.046-2.583-2.091-6.111-.486-8.796"/><path d="m642.13 123.905c1.413-.657 1.5-2.637.117-3.36l-.039-.021c-11.289-5.889-4.074-19.623 4.593-23.772 5.778-2.76 12.369-2.199 18.396-.441 4.398 1.29 10.986 4.701 14.592 7.524 11.502 9.024 18.543 22.617 23.22 36.264.468 1.365-.72 2.715-2.121 2.403-3.726-.837-7.554-1.365-11.328-1.701-4.305-.378-8.652-.45-12.951.03-8.667.966-16.734 5.556-25.32 7.413-3.816.825-7.983 1.311-11.487-.423-3.627-1.791-5.868-5.793-6.162-9.831-.456-6.135 3.192-11.631 8.49-14.085"/><path d="m477.505 712.94c.819-1.032.129-2.559-1.191-2.583h-.036c-10.767-.147-10.545-13.266-5.58-19.692 3.315-4.29 8.499-6.369 13.719-7.338 3.813-.702 10.086-.633 13.881.129 12.123 2.433 22.611 10.014 31.338 18.54.873.849.489 2.322-.693 2.619-3.132.792-6.216 1.845-9.195 3.03-3.396 1.353-6.711 2.952-9.771 4.95-6.174 4.032-10.518 10.566-16.29 15.234-2.571 2.082-5.529 4.032-8.835 4.056-3.423.024-6.633-2.139-8.397-5.079-2.676-4.461-2.016-9.999 1.05-13.866" fill-opacity=".6"/><path d="m593.848 543.533c1.224-.489 1.392-2.154.261-2.829l-.033-.018c-9.228-5.496-2.496-16.716 4.998-19.797 4.992-2.052 10.515-1.266 15.507.504 3.642 1.293 9.03 4.476 11.934 7.026 9.252 8.142 14.535 19.92 17.826 31.638.327 1.167-.735 2.25-1.902 1.917-3.099-.879-6.291-1.506-9.456-1.962-3.603-.528-7.266-.798-10.908-.591-7.341.399-14.349 3.876-21.663 5.037-3.258.516-6.786.726-9.654-.903-2.97-1.68-4.668-5.154-4.725-8.571-.093-5.187 3.24-9.639 7.815-11.451"/><path d="m570.04 252.113c.51-1.29 2.262-1.464 2.979-.273l.021.033c5.79 9.726 17.619 2.637 20.865-5.268 2.163-5.262 1.335-11.085-.531-16.344-1.359-3.84-4.716-9.519-7.407-12.576-8.583-9.759-21-15.324-33.345-18.798-1.233-.345-2.373.78-2.022 2.01.927 3.264 1.584 6.633 2.067 9.966.558 3.798.837 7.659.624 11.496-.423 7.74-4.092 15.129-5.313 22.839-.543 3.435-.765 7.155.951 10.179 1.776 3.129 5.436 4.917 9.033 4.98 5.469.093 10.164-3.423 12.078-8.244"/><path d="m672.469 345.524c-.066-1.137-1.392-1.725-2.256-.975l-.024.018c-7.002 6.114-14.418-2.442-14.937-9.438-.342-4.659 1.788-8.994 4.59-12.621 2.043-2.649 6.111-6.222 8.988-7.923 9.195-5.421 20.304-6.597 30.828-6.153 1.053.042 1.653 1.212 1.065 2.082-1.56 2.313-2.931 4.776-4.161 7.254-1.401 2.82-2.607 5.76-3.423 8.808-1.644 6.15-.672 12.852-1.686 19.185-.45 2.814-1.23 5.775-3.339 7.695-2.187 1.992-5.499 2.451-8.325 1.584-4.29-1.326-7.056-5.262-7.32-9.516"/><path d="m623.407 679.121c.495 1.476-.888 2.901-2.367 2.397l-.036-.018c-12.039-4.161-17.061 10.518-14.121 19.671 1.959 6.093 6.897 10.494 12.315 13.662 3.96 2.316 10.962 4.764 15.495 5.442 14.457 2.157 29.169-2.061 42.306-8.037 1.308-.597 1.473-2.385.282-3.189-3.168-2.136-6.177-4.551-9.015-7.071-3.231-2.865-6.273-5.976-8.874-9.429-5.25-6.96-7.458-15.972-12.006-23.496-2.022-3.339-4.53-6.702-8.196-8.055-3.798-1.404-8.244-.282-11.382 2.274-4.77 3.891-6.258 10.311-4.401 15.849" fill-opacity=".6"/><path d="m616.096 398.813c-.111.903-1.197 1.302-1.848.663l-.021-.018c-5.283-5.226-11.631 1.23-12.396 6.792-.507 3.702.981 7.266 3.033 10.305 1.5 2.217 4.566 5.274 6.786 6.774 7.065 4.788 15.873 6.282 24.297 6.453.843.015 1.38-.885.957-1.611-1.128-1.923-2.106-3.957-2.961-5.997-.981-2.325-1.791-4.728-2.292-7.206-1.005-4.992.108-10.296-.387-15.399-.222-2.271-.696-4.674-2.283-6.309-1.644-1.701-4.266-2.232-6.564-1.677-3.495.84-5.898 3.843-6.321 7.23" fill-opacity=".6"/><path d="m481.306 535.673c1.179.303 2.208-.849 1.734-1.971l-.015-.03c-3.903-9.123 7.224-13.839 14.499-12.063 4.845 1.185 8.538 4.776 11.304 8.808 2.016 2.946 4.308 8.253 5.085 11.736 2.487 11.115.024 22.779-3.885 33.321-.39 1.056-1.773 1.284-2.466.402-1.833-2.346-3.879-4.551-5.994-6.612-2.403-2.355-4.992-4.542-7.821-6.375-5.703-3.69-12.828-4.905-18.924-8.016-2.709-1.389-5.46-3.153-6.717-5.925-1.305-2.871-.681-6.387 1.131-8.97 2.754-3.924 7.668-5.436 12.069-4.305" fill-opacity=".4"/><path d="m726.355 523.718c-.75-1.095.054-2.583 1.38-2.508h.036c10.824.621 11.541-12.57 7.014-19.389-3.018-4.539-8.088-7.008-13.26-8.349-3.78-.972-10.089-1.359-13.959-.864-12.348 1.578-23.424 8.445-32.805 16.392-.939.792-.66 2.295.507 2.676 3.09 1.014 6.114 2.301 9.021 3.705 3.315 1.596 6.531 3.444 9.462 5.67 5.913 4.491 9.813 11.364 15.282 16.473 2.43 2.268 5.265 4.44 8.583 4.701 3.435.273 6.819-1.68 8.799-4.497 3.006-4.296 2.745-9.903-.06-14.01" fill-opacity=".4"/><path d="m301.465 806.045c-1.569-2.625.48-5.928 3.516-5.583l.084.012c24.801 2.913 28.257-27.309 18.777-43.593-6.309-10.851-17.613-17.214-29.325-21.006-8.547-2.772-22.992-4.518-31.959-3.909-28.599 1.935-55.002 16.197-77.646 33.159-2.262 1.692-1.83 5.196.795 6.234 6.96 2.76 13.74 6.123 20.232 9.747 7.395 4.128 14.526 8.814 20.967 14.334 12.972 11.13 20.994 27.465 32.853 39.951 5.28 5.553 11.499 10.932 19.089 11.988 7.857 1.095 15.903-2.919 20.841-9.135 7.503-9.447 7.656-22.371 1.776-32.199" fill-opacity=".4"/><path d="m298.285 475.952c-2.778-1.281-2.946-5.169-.234-6.591l.075-.042c22.143-11.541 7.992-38.472-9.009-46.605-11.325-5.418-24.246-4.317-36.063-.861-8.625 2.52-21.546 9.204-28.617 14.754-22.551 17.691-36.357 44.337-45.531 71.103-.918 2.673 1.41 5.322 4.167 4.701 7.305-1.635 14.805-2.667 22.212-3.327 8.436-.747 16.968-.888 25.392.057 16.989 1.899 32.811 10.893 49.641 14.535 7.488 1.623 15.657 2.574 22.524-.825 7.116-3.522 11.508-11.364 12.087-19.278.891-12.033-6.258-22.803-16.644-27.621" fill-opacity=".2"/><path d="m288.538 642.641c-1.608-2.028-.255-5.025 2.334-5.07h.069c21.111-.288 20.679-26.004 10.938-38.613-6.486-8.403-16.662-12.492-26.901-14.379-7.467-1.383-19.77-1.248-27.216.246-23.763 4.776-44.328 19.641-61.443 36.357-1.707 1.665-.957 4.554 1.356 5.133 6.141 1.548 12.195 3.621 18.036 5.943 6.654 2.649 13.149 5.787 19.152 9.708 12.105 7.899 20.625 20.706 31.947 29.865 5.037 4.08 10.842 7.902 17.322 7.953 6.708.051 13.011-4.203 16.464-9.957 5.25-8.748 3.951-19.599-2.058-27.186"/><path d="m296.539 336.026c-2.847-1.131-3.234-4.998-.609-6.573l.075-.042c21.456-12.774 5.814-38.862-11.616-46.026-11.61-4.773-24.453-2.949-36.054 1.164-8.469 3.006-20.994 10.407-27.741 16.344-21.525 18.93-33.804 46.311-41.46 73.551-.762 2.721 1.707 5.235 4.425 4.467 7.206-2.052 14.628-3.504 21.987-4.578 8.379-1.218 16.893-1.839 25.359-1.371 17.07.945 33.372 9.03 50.382 11.718 7.566 1.203 15.771 1.689 22.44-2.091 6.906-3.915 10.848-11.994 10.986-19.929.21-12.063-7.536-22.416-18.174-26.634"/><path d="m337.675 212.843c-1.002-2.532-4.443-2.871-5.841-.54l-.039.066c-11.352 19.074-34.545 5.169-40.914-10.326-4.239-10.326-2.616-21.738 1.038-32.052 2.67-7.527 9.249-18.666 14.526-24.66 16.83-19.134 41.169-30.045 65.385-36.855 2.415-.678 4.653 1.518 3.966 3.933-1.821 6.402-3.111 13.008-4.065 19.545-1.083 7.455-1.635 15.018-1.218 22.545.834 15.174 8.025 29.664 10.416 44.787 1.068 6.726 1.5 14.019-1.857 19.95-3.48 6.135-10.662 9.639-17.718 9.762-10.722.186-19.929-6.699-23.679-16.155" fill-opacity=".6"/><path d="m80.41 292.226c-2.235-.135-3.378-2.73-1.917-4.419l.042-.045c11.976-13.74-4.806-28.281-18.528-29.286-9.138-.669-17.628 3.522-24.741 9.015-5.19 4.005-12.195 11.991-15.525 17.64-10.623 18.03-12.915 39.813-12.027 60.45.09 2.061 2.376 3.24 4.08 2.088 4.536-3.06 9.354-5.754 14.217-8.169 5.532-2.754 11.295-5.121 17.277-6.72 12.051-3.231 25.197-1.332 37.608-3.336 5.523-.891 11.325-2.418 15.093-6.555 3.897-4.284 4.797-10.785 3.081-16.32-2.595-8.412-10.323-13.833-18.66-14.343"/><path d="m136.678 384.788c-.972 2.904 1.737 5.694 4.632 4.701l.084-.027c23.598-8.163 33.447 20.619 27.678 38.562-3.837 11.952-13.518 20.583-24.147 26.799-7.752 4.536-21.489 9.336-30.375 10.665-28.353 4.236-57.195-4.038-82.953-15.756-2.568-1.167-2.895-4.683-.555-6.258 6.213-4.182 12.108-8.925 17.673-13.857 6.339-5.613 12.3-11.718 17.403-18.492 10.293-13.653 14.625-31.326 23.538-46.062 3.966-6.555 8.886-13.14 16.074-15.801 7.443-2.751 16.161-.558 22.314 4.458 9.354 7.617 12.27 20.214 8.634 31.068" fill-opacity=".6"/><path d="m86.785 189.014c-2.07.831-2.328 3.657-.405 4.788l.051.033c15.711 9.201 4.443 28.296-8.226 33.606-8.439 3.54-17.805 2.274-26.286-.663-6.186-2.145-15.357-7.479-20.301-11.763-15.786-13.692-24.879-33.585-30.6-53.394-.573-1.98 1.218-3.825 3.201-3.276 5.259 1.452 10.68 2.472 16.05 3.216 6.114.849 12.321 1.254 18.489.867 12.435-.771 24.273-6.75 36.657-8.805 5.508-.909 11.493-1.308 16.368 1.413 5.055 2.817 7.968 8.682 8.112 14.466.216 8.79-5.373 16.377-13.11 19.512" fill-opacity=".6"/><path d="m202.87 210.053c-2.307.594-4.326-1.668-3.393-3.861l.027-.06c7.656-17.886-14.16-27.138-28.422-23.658-9.504 2.322-16.752 9.36-22.173 17.274-3.954 5.772-8.451 16.176-9.978 23.01-4.869 21.795-.045 44.67 7.626 65.334.765 2.067 3.48 2.511 4.836.783 3.594-4.593 7.605-8.913 11.748-12.966 4.719-4.608 9.792-8.901 15.342-12.492 11.181-7.239 25.152-9.621 37.101-15.726 5.316-2.715 10.704-6.171 13.173-11.61 2.553-5.634 1.329-12.528-2.22-17.589-5.4-7.692-15.027-10.662-23.667-8.439"/><path d="m458.602 28.46c-2.313.591-4.326-1.665-3.399-3.861l.03-.057c7.656-17.886-14.16-27.144-28.425-23.658-9.504 2.316-16.752 9.357-22.17 17.268-3.957 5.772-8.451 16.182-9.975 23.013-4.872 21.795-.045 44.67 7.626 65.337.765 2.061 3.474 2.514 4.83.78 3.6-4.596 7.608-8.913 11.751-12.963 4.719-4.611 9.795-8.904 15.339-12.498 11.184-7.236 25.155-9.615 37.104-15.72 5.313-2.718 10.707-6.177 13.17-11.613 2.556-5.631 1.335-12.528-2.217-17.589-5.4-7.692-15.027-10.659-23.664-8.439"/><path d="m248.062 112.661c1.473-2.154-.105-5.07-2.703-4.929l-.072.006c-21.234 1.218-22.635-24.648-13.752-38.016 5.919-8.907 15.852-13.74 26.001-16.368 7.404-1.92 19.773-2.67 27.366-1.695 24.213 3.093 45.936 16.557 64.326 32.127 1.836 1.557 1.29 4.512-.996 5.262-6.06 1.992-11.991 4.503-17.694 7.257-6.498 3.135-12.795 6.756-18.549 11.121-11.595 8.808-19.242 22.284-29.958 32.298-4.77 4.452-10.332 8.706-16.836 9.222-6.741.528-13.371-3.291-17.256-8.823-5.901-8.415-5.373-19.413.123-27.462" fill-opacity=".6"/><path d="m235.243 178.172c-.429-.72.129-1.623.96-1.524l.021.003c6.777.795 7.716-7.461 5.13-11.907-1.725-2.964-4.812-4.698-8.01-5.736-2.334-.756-6.282-1.23-8.724-1.068-7.812.531-15.024 4.425-21.207 9.06-.618.459-.498 1.419.219 1.698 1.899.756 3.75 1.671 5.526 2.661 2.013 1.131 3.966 2.409 5.724 3.915 3.54 3.039 5.73 7.5 8.97 10.908 1.44 1.518 3.141 2.991 5.211 3.276 2.148.3 4.347-.795 5.694-2.49 2.049-2.583 2.091-6.111.486-8.796"/><path d="m431.836 236.786c-.429-.717.129-1.617.957-1.524h.027c6.771.795 7.713-7.455 5.124-11.907-1.725-2.958-4.806-4.695-8.007-5.73-2.331-.756-6.279-1.236-8.727-1.068-7.809.528-15.021 4.425-21.204 9.054-.618.462-.498 1.419.219 1.704 1.902.75 3.753 1.671 5.526 2.661 2.019 1.125 3.966 2.409 5.724 3.915 3.546 3.039 5.733 7.5 8.973 10.908 1.44 1.518 3.138 2.985 5.211 3.273 2.145.303 4.344-.792 5.691-2.493 2.052-2.583 2.088-6.111.486-8.793" fill-opacity=".6"/><path d="m185.332 123.905c-1.416-.657-1.5-2.637-.117-3.36l.039-.021c11.292-5.889 4.074-19.623-4.596-23.772-5.775-2.76-12.366-2.199-18.393-.441-4.395 1.29-10.986 4.701-14.595 7.524-11.499 9.024-18.54 22.617-23.22 36.264-.468 1.365.717 2.715 2.124 2.403 3.726-.837 7.551-1.365 11.331-1.701 4.299-.378 8.652-.45 12.951.03 8.664.966 16.728 5.556 25.314 7.413 3.822.825 7.986 1.311 11.49-.423 3.627-1.791 5.865-5.793 6.165-9.831.456-6.135-3.192-11.631-8.493-14.085" fill-opacity=".2"/><path d="m349.957 712.94c-.819-1.032-.129-2.559 1.191-2.583h.033c10.767-.147 10.548-13.266 5.58-19.692-3.306-4.29-8.496-6.369-13.719-7.338-3.807-.702-10.083-.633-13.878.129-12.12 2.433-22.611 10.014-31.338 18.54-.873.849-.492 2.322.693 2.619 3.132.792 6.219 1.845 9.198 3.03 3.393 1.353 6.705 2.952 9.768 4.95 6.174 4.032 10.518 10.566 16.293 15.234 2.568 2.082 5.526 4.032 8.832 4.056 3.426.024 6.636-2.139 8.397-5.079 2.679-4.461 2.016-9.999-1.05-13.866"/><path d="m233.614 543.533c-1.224-.489-1.389-2.154-.261-2.829l.033-.018c9.225-5.496 2.502-16.716-4.998-19.797-4.992-2.052-10.518-1.266-15.504.504-3.645 1.293-9.03 4.476-11.931 7.026-9.261 8.142-14.541 19.92-17.832 31.638-.333 1.167.735 2.25 1.902 1.917 3.099-.879 6.291-1.506 9.456-1.962 3.603-.528 7.266-.798 10.908-.591 7.341.399 14.352 3.876 21.663 5.037 3.258.516 6.786.726 9.654-.903 2.97-1.68 4.668-5.154 4.725-8.571.09-5.187-3.24-9.639-7.815-11.451" fill-opacity=".6"/><path d="m257.422 252.113c-.51-1.29-2.265-1.464-2.979-.273l-.018.033c-5.793 9.726-17.619 2.637-20.868-5.268-2.163-5.262-1.332-11.085.531-16.344 1.359-3.84 4.716-9.519 7.407-12.576 8.583-9.759 20.997-15.324 33.345-18.798 1.236-.345 2.373.78 2.022 2.01-.927 3.264-1.581 6.633-2.07 9.966-.552 3.798-.834 7.659-.624 11.496.429 7.74 4.095 15.129 5.316 22.839.543 3.435.762 7.155-.948 10.179-1.773 3.129-5.442 4.917-9.036 4.98-5.469.093-10.164-3.423-12.078-8.244" fill-opacity=".4"/><path d="m413.251 171.518c-.51-1.29-2.265-1.467-2.976-.276l-.024.036c-5.79 9.726-17.619 2.637-20.865-5.268-2.163-5.262-1.338-11.088.531-16.347 1.362-3.84 4.716-9.516 7.407-12.576 8.583-9.756 20.997-15.327 33.345-18.795 1.233-.348 2.373.771 2.022 2.007-.924 3.264-1.581 6.63-2.07 9.969-.555 3.795-.834 7.656-.624 11.496.426 7.74 4.095 15.129 5.313 22.839.546 3.432.765 7.155-.948 10.179-1.776 3.129-5.439 4.914-9.036 4.98-5.466.093-10.161-3.417-12.075-8.244"/><path d="m154.993 345.524c.066-1.137 1.395-1.725 2.253-.975l.027.018c7.002 6.114 14.421-2.442 14.934-9.438.345-4.659-1.788-8.994-4.587-12.621-2.04-2.649-6.111-6.222-8.991-7.923-9.192-5.421-20.301-6.597-30.828-6.153-1.044.042-1.65 1.212-1.062 2.082 1.557 2.313 2.928 4.776 4.161 7.254 1.404 2.82 2.607 5.76 3.423 8.808 1.644 6.15.672 12.852 1.686 19.185.453 2.814 1.23 5.775 3.339 7.695 2.187 1.992 5.499 2.451 8.322 1.584 4.293-1.326 7.059-5.262 7.323-9.516"/><path d="m204.058 679.121c-.498 1.476.885 2.901 2.361 2.397l.042-.018c12.036-4.161 17.058 10.518 14.115 19.671-1.956 6.093-6.894 10.494-12.312 13.662-3.954 2.316-10.962 4.764-15.489 5.442-14.463 2.157-29.175-2.061-42.312-8.037-1.308-.597-1.473-2.385-.282-3.189 3.168-2.136 6.177-4.551 9.015-7.071 3.231-2.865 6.273-5.976 8.877-9.429 5.247-6.96 7.458-15.972 12.003-23.496 2.022-3.339 4.533-6.702 8.199-8.055 3.792-1.404 8.241-.282 11.379 2.274 4.767 3.891 6.258 10.311 4.404 15.849"/><path d="m211.366 398.813c.111.903 1.2 1.302 1.848.663l.021-.018c5.286-5.226 11.634 1.23 12.399 6.792.504 3.702-.981 7.266-3.036 10.305-1.5 2.217-4.569 5.274-6.783 6.774-7.065 4.788-15.879 6.282-24.3 6.453-.843.015-1.38-.885-.957-1.611 1.128-1.923 2.106-3.957 2.961-5.997.981-2.325 1.794-4.728 2.289-7.206 1.008-4.992-.105-10.296.393-15.399.219-2.271.693-4.674 2.28-6.309 1.647-1.701 4.266-2.232 6.567-1.677 3.492.84 5.895 3.843 6.318 7.23" fill-opacity=".4"/><path d="m346.156 535.673c-1.179.303-2.211-.849-1.731-1.971l.012-.03c3.903-9.123-7.221-13.839-14.496-12.063-4.845 1.185-8.541 4.776-11.307 8.808-2.016 2.946-4.311 8.253-5.088 11.736-2.484 11.115-.024 22.779 3.888 33.321.39 1.056 1.773 1.284 2.466.402 1.833-2.346 3.882-4.551 5.994-6.612 2.4-2.355 4.995-4.542 7.821-6.375 5.7-3.69 12.831-4.905 18.924-8.016 2.709-1.389 5.46-3.153 6.717-5.925 1.305-2.871.681-6.387-1.134-8.97-2.754-3.924-7.662-5.436-12.066-4.305"/><path d="m101.11 523.718c.75-1.095-.054-2.583-1.38-2.508h-.039c-10.827.621-11.541-12.57-7.014-19.389 3.021-4.539 8.088-7.008 13.263-8.349 3.777-.972 10.083-1.359 13.956-.864 12.351 1.578 23.427 8.445 32.805 16.392.939.792.66 2.295-.507 2.676-3.09 1.014-6.114 2.301-9.024 3.705-3.312 1.596-6.522 3.444-9.459 5.67-5.916 4.491-9.813 11.364-15.282 16.473-2.43 2.268-5.265 4.44-8.583 4.701-3.438.273-6.819-1.68-8.799-4.497-3.009-4.296-2.745-9.903.063-14.01" fill-opacity=".4"/></g></g></svg>