<svg height="468" viewBox="0 0 468 468" width="468" xmlns="http://www.w3.org/2000/svg"><g fill="none" fill-rule="evenodd"><circle cx="234" cy="234" fill="#fff" fill-opacity=".1" r="234"/><g fill-rule="nonzero" transform="translate(118 56)"><path d="m3.86888802 2.54311047c-.11062919.11060425-.23781739.20355121-.37705485.27554522l-1.36593456.70652622c-.72956462.29030368-1.56109405-.02741619-1.90659153-.72849136-.34549749-.70107518-.08797925-1.54812496.59045668-1.94217776l1.3232491-.65706938c.64398216-.28244482 1.3990961-.08249724 1.81600093.48086121.41690483.56335844.38358762 1.33876602-.08012577 1.86480585z" fill="#bfbfbf" transform="translate(19.81701 241.37037)"/><path d="m28.3955274 2.67248788c-.1093419.11516114-.2397095.20865411-.3841682.27552965-.0301779.02190959-.0638433.03862847-.0996052.04947261-.5720089.28178666-1.2605363.17724836-1.7216511-.26142623-.1122247-.11604637-.2079593-.2467796-.2845631-.38857829-.3565304-.73299538-.0678751-1.61481097.6545193-1.99948617l.1138172-.04945249c.3449793-.17873716.7486211-.20937839 1.1169444-.08478145.3745525.10747567.6883057.36286621.8679417.7065389.3232884.57439733.2182806 1.2927662-.263235 1.75218347zm-5.6842871 3.18642646c.0999478-.07393731.194997-.15417186.2845631-.24022081.5202812-.53148352.5657596-1.36276019.1065196-1.94709631-.4592198-.58433612-1.2822475-.74243119-1.9277558-.37031024-.896406.536976-1.7856758 1.08099365-2.6251531 1.61794954-.6821169.45774739-.8770535 1.36954029-.441097 2.0630622.0605977.08464062.1271825.16491541.1992103.24022081.5034888.499273 1.2907344.57892411 1.8852608.1907482.7683567-.49456516 1.5864857-1.01031562 2.5184521-1.55435339zm-7.3347774 4.99514436c.0469702-.0298768.0899893-.0654874.1280493-.1059668.5625343-.5414827.611843-1.41378196.1209535-2.0136097-.2519259-.30949052-.6184954-.5055099-1.0173394-.54401766-.3895103-.05238986-.7834758.05758057-1.08848.30379684-.8608256.67827171-1.6718385 1.35654342-2.3832665 2.00654792-.2998637.2646654-.481193.637068-.503892 1.0348206-.0226989.3977727.1151074.7881415.3829386 1.0847559l.0498127.0494525c.55439.571802 1.4668627.6000289 2.0560067.0635961.718544-.6288192 1.4797645-1.2576183 2.2552171-1.8793757zm-8.28809206 8.506573c-.51286271.5115858-1.32395627.5774755-1.9137252.1554394-.07573701-.0505591-.14711969-.1072745-.21342233-.1695629-.50897204-.5101373-.57215005-1.3108532-.14939765-1.8934993 0 0 .86080542-1.2293512 1.93507348-2.4940313.34395125-.4097233.88291974-.6045356 1.41160719-.5102378.52868745.0943178.9656922.4632197 1.14458233.9662148.17889012.5029749.07212856 1.062625-.27964434 1.4657694-.61893887.7559914-1.22364555 1.5543534-1.77144364 2.2608923-.0472928.0780617-.10210486.1514156-.16362984.2190154zm-4.81634551 17.4370734c.26871821-.0618257.51495924-.1963211.71142793-.3885984.37519755-.3507747.5419117-.8687986.44107685-1.3706669-.20203255-.8996411-.33050525-1.8140293-.38416826-2.7342521-.05340094-.8213379-.75851913-1.4493724-1.58646553-1.4130375-.8239751.0708591-1.44859878.7687267-1.42285586 1.5896823.06698805 1.0793842.2192281 2.1518876.45530904 3.2076118.07198745.2677033.21441012.5115657.41263263.7065389.35675215.3610152.87602539.513316 1.3730432.4027219zm4.56734271 7.7223145c-.06402468.0635961-.12804936.1059868-.17784186.1554393-.59894124.4163224-1.41130481.3510564-1.93507348-.1554393-.05751336-.0539994-.1098862-.1131291-.15651374-.1766247-.62367622-.8605297-1.20304316-1.7519018-1.73588334-2.670676-.39112309-.7173227-.13554848-1.6135435.57626246-2.0206513.34463665-.1977698.7547091-.2500389 1.13845402-.1451385.38376509.1049005.70914998.3582389.90332055.7032796.44418132.8009171.94335614 1.5704889 1.49399664 2.3032831l.05690859.0777196c.42728815.5962868.35808263 1.4119109-.16362984 1.9288082zm20.47479536 15.5930467c.5714647.261547 1.2463647.1432674 1.6931868-.2967351.0965208-.1312563.1911871-.2879631.2490028-.4592362.2654928-.567255.1461722-1.238807-.2988154-1.6815456-.130791-.1136925-.2768423-.208795-.4339608-.2826116-.5904745-.2472826-1.1453887-.4945651-1.6718385-.7065188-.3984004-.1695629-.7470084-.3250022-1.1098284-.4945651-.75483-.3168138-1.6269647.0134395-1.97777.7489095-.154135.3661657-.154135.7784039 0 1.1445697.1348026.3693646.4183376.6663009.7825687.8195875l1.166737.5016269zm9.6753674 4.0130758c-.4839951.4780676-1.2310035.5737133-1.8710488.2331389-.0272145-.0108643-.0515463-.0277843-.0711407-.0494525-.8181492-.5157706-1.6433943-1.0173975-2.4544274-1.4695719-.7170523-.4097234-.963898-1.3191422-.5513461-2.0312742.412552-.7121119 1.3282905-.9572618 2.0453427-.5475385.9106181.5016269 1.7999081 1.0527064 2.6678497 1.5967441l.0782569.0565143c.0612428.0363349.1184739.078967.1707459.1271722.4949818.4972812.5776736 1.2685429.1991902 1.8581703-.0703949.0854655-.1517159.1614751-.2134224.2260973zm11.802515 13.3250725c.16111-.0758486.307887-.1786164.4339809-.3037968.4245466-.4359384.5425165-1.083086.2987953-1.6391348-.4452901-.9725121-.9513995-1.9163746-1.5153248-2.8261154-.4361379-.7004227-1.3614316-.9171043-2.0666909-.4839826-.7052795.4331218-.9234593 1.3520368-.4873214 2.0524595.5047588.7878197.9586164 1.6066628 1.358811 2.4516606.0692257.1701665.1734271.3241975.3059114.4521544.4419638.4325986 1.1063812.5505362 1.6718385.2967551zm-7.6051083 24.5447324c.5932161.526474 1.4961939.504826 2.063143-.049452l.085373-.056535c1.0671318-1.179898 2.0346584-2.395126 2.0346584-2.395126.5005255-.6522981.3765482-1.5835662-.277447-2.0842475-.662341-.5120687-1.6170466-.3951371-2.1342838.261386-.5477779.7206624-1.1525047 1.4342832-1.8639327 2.2114398-.5484432.5865487-.5295543 1.4993887.0426966 2.0630827zm-2.3761503 4.210906.0853729-.084782c.5702148-.547156.6077709-1.442411.085373-2.034795-.2595258-.304923-.6308528-.494323-1.0315917-.526152-.4007187-.031828-.7976677.096531-1.1026921.35659-.72564.621717-1.4868604 1.250556-2.262313 1.829903l.0426764.063576-.0640247-.042371c-.6610911.513638-.7788393 1.461766-.263235 2.119577.0362256.054603.0792648.104457.1280696.148357.5384242.522651 1.3824977.570897 1.9777498.113029.8394773-.635841 1.6433943-1.292928 2.4046148-1.942932zm-7.2280764 5.291899c-.0754547.071946-.1563121.138057-.2418867.19781-.8039169.501647-1.6647425 1.038583-2.5397801 1.554354l-.085373.063576c-.3478419.195516-.7587006.248751-1.1453887.148398-.387434-.103211-.7160645-.358199-.9106382-.706539-.4179747-.708833-.1831235-1.61974.52647-2.041877.8323612-.494565 1.6860707-1.017378 2.5184319-1.554354.3373996-.20795.7425331-.278809 1.1311564-.19781.3892685.080074.7300346.311644.9461986.642923.3940461.595804.3107092 1.384791-.1991902 1.893519z" fill="#bfbfbf" transform="translate(0 127.977778)"/><path d="m3.99223375 2.67467419c-.11665812.11483663-.2511802.21026228-.39839758.28261049l-1.3232491.65706939c-.72478648.30170821-1.56120775-.00282504-1.91788369-.69828373-.35667593-.69545868-.11285901-1.54640522.55906338-1.9511896l1.36593455-.70652623c.65725689-.31400483 1.4466735-.11338503 1.87126559.47555742s.3614735 1.39575482-.14961891 1.91250122z" fill="#7383bf" transform="translate(25.762113 127.318519)"/><path d="m3.18830624.11609712c-.26322697 10.69680698 9.54731336 21.66915928 26.92029346 30.11921288.3611451.1696897.6392756.4753562.7728045.8493152.1335289.3739589.1114383.7853539-.0613802 1.1430887-.0728498.1462038-.168937.2797998-.2845697.3956547-.4518627.4486124-1.1409686.5621994-1.7145325.2826105-18.4970304-8.9799483-28.89093861-20.9555678-28.59925467-32.8605346" fill="#d6d6d6" transform="translate(.300258 212.003704)"/><path d="m4.90716541 57.338608c14.70513919-6.2880833 22.92920349-14.9218338 23.15685919-24.3115673.263227-10.5978933-9.6397985-21.5490498-27.1621777-30.06975602-.67843593-.39405279-.93595417-1.24110258-.59045668-1.94217775.34549749-.70107518 1.17702691-1.01879504 1.90659154-.72849137 18.61797254 9.05766617 29.13282284 21.01208984 28.84113894 32.81107774-.2561127 10.5978934-9.1275731 20.1995847-24.97099104 26.9751712" fill="#d6d6d6" fill-opacity=".3" transform="translate(20.777835 127.318519)"/><path d="m29.5293835 2.54881826c-.2804858.28040527-.6620355.43807784-1.0600221.43804626h-26.87049379c-.82707293-.00000002-1.497548-.66585902-1.497548-1.4872377 0-.82137869.67047508-1.48723768 1.49754801-1.4872377h26.87049378c.606512-.0029239 1.1546146.35859997 1.3871154.91492963s.1032536 1.19704645-.3270933 1.62149951z" fill="#ebebeb" transform="translate(10.569072 230.462963)"/><path d="m50.187509 2.82383194c-.2804858.28040527-.6620355.43807784-1.0600221.43804626h-47.5160254c-.82707294 0-1.49754804-.665859-1.49754804-1.4872377s.6704751-1.4872377 1.49754804-1.4872377h47.5515966c.606512-.0029239 1.1546146.35859997 1.3871154.91492963s.1032537 1.19704645-.3626645 1.62149951z" fill="#ebebeb" fill-opacity=".3" transform="translate(.660567 162.559259)"/><path d="m3.88771366 2.51102623c-.11062919.11060425-.23781739.20355121-.37705485.27554522l-1.36593456.70652622c-.72956462.29030368-1.56109405-.02741619-1.90659153-.72849136-.34549749-.70107518-.08797925-1.54812496.59045668-1.94217776l1.3232491-.65706938c.65650282-.32195138 1.45110925-.12655913 1.88050149.46241184.42939223.58897096.36828034 1.39966813-.14462633 1.91858153z" fill="#bfbfbf" transform="translate(19.456701 130.555556)"/><path d="m5.17885269 2.58720553c-.07544346.07195714-.15630633.1380916-.24188424.19782734-.8039094.50163362-1.66473274 1.03859355-2.53978456 1.55435769l-.08537091.06358736c-.34784004.19550541-.75869489.24872622-1.14539304.14837051-.3874168-.10320548-.71604885-.35818164-.91062303-.70652622-.41798134-.70883833-.18312021-1.61975132.52645394-2.04186079.83236637-.49456835 1.68607546-1.01739776 2.51844183-1.55435769.33740169-.2079701.74252337-.2788211 1.13116455-.19782734.3892592.08008214.73001953.31162874.94619425.64293886.39798115.59728538.31450195 1.39079948-.19919879 1.89349028z" fill="#bfbfbf" transform="translate(26.062371 126)"/><path d="m4.0786622 2.85567623c-.11665812.11483662-.2511802.21026228-.39839758.28261049l-1.3232491.65706939c-.72478649.30170821-1.56120775-.00282505-1.91788369-.69828373-.35667593-.69545868-.11285901-1.54640522.55906338-1.95118961l1.36593455-.70652622c.65725689-.31400483 1.4466735-.11338503 1.87126559.47555742.42459209.58894244.3614735 1.39575482-.14961891 1.91250121z" fill="#bfbfbf" transform="translate(26.42268 238.733333)"/><path d="m30.60054 117.175425c-.4518627.448613-1.1409686.5622-1.7145324.282611-18.4970304-8.979948-28.89093869-20.955568-28.59925475-32.8605348.27034122-10.8239817 9.20582975-20.5457826 25.18441835-27.3778911 14.7051391-6.2880834 22.9292034-14.9218339 23.1568592-24.3115673.263227-10.5978934-9.6397985-21.5490498-27.1621777-30.06975608-.678436-.3940528-.9359542-1.24110258-.5904567-1.94217775.3454975-.70107518 1.1770269-1.01879504 1.9065915-.72849137 18.6179726 9.05766617 29.1328229 21.0120899 28.841139 32.8110778-.2561128 10.5978933-9.1275731 20.1995847-24.9709911 26.9751712-14.8331955 6.358736-23.13551647 15.1267264-23.37028647 24.7284177-.26322697 10.696807 9.54731337 21.6691597 26.92029347 30.1192127.3611451.16969.6392756.475356.7728045.849315.1335288.373959.1114383.785354-.0613802 1.143089-.0827667.143227-.1884962.272093-.3130267.381524z" fill="#d6d6d6" transform="translate(.960825 239.033333)"/><g fill="#ebebeb"><path d="m47.2240426 2.70565064c-.2804859.28040527-.6620355.43807783-1.0600222.43804625h-44.5351578c-.82707294 0-1.49754804-.66585899-1.49754804-1.48723769s.6704751-1.4872377 1.49754804-1.4872377h44.5351578c.606512-.0029239 1.1546146.35859996 1.3871154.91492963.2325008.55632966.1032537 1.19704645-.3270932 1.62149951z" transform="translate(2.642268 330.011111)"/><path d="m31.6753677 2.59017014c-.2804859.28040527-.6620355.43807784-1.0600222.43804626h-28.94073831c-.82707293-.00000002-1.497548-.66585902-1.497548-1.4872377 0-.82137869.67047508-1.48723768 1.49754801-1.4872377h28.9407383c.606512-.0029239 1.1546146.35859997 1.3871154.91492963s.1032537 1.19704645-.3270932 1.62149951z" fill-opacity=".3" transform="translate(10.208763 250.6)"/><path d="m34.7704651 2.67680964c-.2804858.28040527-.6620355.43807784-1.0600221.43804626h-32.01409107c-.53502239.00000001-1.02940347-.28346589-1.29691467-.74361884s-.2675112-1.02708477 0-1.48723772c.26751119-.46015295.76189228-.74361885 1.29691467-.74361884h32.01409107c.606512-.0029239 1.1546146.35859997 1.3871154.91492963s.1032537 1.19704645-.3270933 1.62149951z" fill-opacity=".3" transform="translate(9.247938 286.2)"/><path d="m35.4438011 2.63611553c-.2804858.28040527-.6620355.43807784-1.0600221.43804626h-32.63303022c-.82707294 0-1.49754804-.665859-1.49754804-1.4872377s.6704751-1.4872377 1.49754804-1.4872377h32.63303022c.606512-.0029239 1.1546146.35859997 1.3871153.91492963.2325008.55632967.1032537 1.19704645-.3270932 1.62149951z" transform="translate(8.887629 306.277778)"/></g><path d="m28.3955274 2.67248788c-.1093419.11516114-.2397095.20865411-.3841682.27552965-.0301779.02190959-.0638433.03862847-.0996052.04947261-.5720089.28178666-1.2605363.17724836-1.7216511-.26142623-.1122247-.11604637-.2079593-.2467796-.2845631-.38857829-.3565304-.73299538-.0678751-1.61481097.6545193-1.99948617l.1138172-.04945249c.3449793-.17873716.7486211-.20937839 1.1169444-.08478145.3745525.10747567.6883057.36286621.8679417.7065389.3232884.57439733.2182806 1.2927662-.263235 1.75218347zm-5.6842871 3.18642646c.0999478-.07393731.194997-.15417186.2845631-.24022081.5202812-.53148352.5657596-1.36276019.1065196-1.94709631-.4592198-.58433612-1.2822475-.74243119-1.9277558-.37031024-.896406.536976-1.7856758 1.08099365-2.6251531 1.61794954-.6821169.45774739-.8770535 1.36954029-.441097 2.0630622.0605977.08464062.1271825.16491541.1992103.24022081.5034888.499273 1.2907344.57892411 1.8852608.1907482.7683567-.49456516 1.5864857-1.01031562 2.5184521-1.55435339zm-7.3347774 4.99514436c.0469702-.0298768.0899893-.0654874.1280493-.1059668.5625343-.5414827.611843-1.41378196.1209535-2.0136097-.2519259-.30949052-.6184954-.5055099-1.0173394-.54401766-.3895103-.05238986-.7834758.05758057-1.08848.30379684-.8608256.67827171-1.6718385 1.35654342-2.3832665 2.00654792-.2998637.2646654-.481193.637068-.503892 1.0348206-.0226989.3977727.1151074.7881415.3829386 1.0847559l.0498127.0494525c.55439.571802 1.4668627.6000289 2.0560067.0635961.718544-.6288192 1.4797645-1.2576183 2.2552171-1.8793757zm-8.28809206 8.506573c-.51286271.5115858-1.32395627.5774755-1.9137252.1554394-.07573701-.0505591-.14711969-.1072745-.21342233-.1695629-.50897204-.5101373-.57215005-1.3108532-.14939765-1.8934993 0 0 .86080542-1.2293512 1.93507348-2.4940313.34395125-.4097233.88291974-.6045356 1.41160719-.5102378.52868745.0943178.9656922.4632197 1.14458233.9662148.17889012.5029749.07212856 1.062625-.27964434 1.4657694-.61893887.7559914-1.22364555 1.5543534-1.77144364 2.2608923-.0472928.0780617-.10210486.1514156-.16362984.2190154zm-4.81634551 17.4370734c.26871821-.0618257.51495924-.1963211.71142793-.3885984.37519755-.3507747.5419117-.8687986.44107685-1.3706669-.20203255-.8996411-.33050525-1.8140293-.38416826-2.7342521-.05340094-.8213379-.75851913-1.4493724-1.58646553-1.4130375-.8239751.0708591-1.44859878.7687267-1.42285586 1.5896823.06698805 1.0793842.2192281 2.1518876.45530904 3.2076118.07198745.2677033.21441012.5115657.41263263.7065389.35675215.3610152.87602539.513316 1.3730432.4027219zm4.56734271 7.7223145c-.06402468.0635961-.12804936.1059868-.17784186.1554393-.59894124.4163224-1.41130481.3510564-1.93507348-.1554393-.05751336-.0539994-.1098862-.1131291-.15651374-.1766247-.62367622-.8605297-1.20304316-1.7519018-1.73588334-2.670676-.39112309-.7173227-.13554848-1.6135435.57626246-2.0206513.34463665-.1977698.7547091-.2500389 1.13845402-.1451385.38376509.1049005.70914998.3582389.90332055.7032796.44418132.8009171.94335614 1.5704889 1.49399664 2.3032831l.05690859.0777196c.42728815.5962868.35808263 1.4119109-.16362984 1.9288082zm20.47479536 15.5930467c.5714647.261547 1.2463647.1432674 1.6931868-.2967351.0965208-.1312563.1911871-.2879631.2490028-.4592362.2654928-.567255.1461722-1.238807-.2988154-1.6815456-.130791-.1136925-.2768423-.208795-.4339608-.2826116-.5904745-.2472826-1.1453887-.4945651-1.6718385-.7065188-.3984004-.1695629-.7470084-.3250022-1.1098284-.4945651-.75483-.3168138-1.6269647.0134395-1.97777.7489095-.154135.3661657-.154135.7784039 0 1.1445697.1348026.3693646.4183376.6663009.7825687.8195875l1.166737.5016269zm9.6753674 4.0130758c-.4839951.4780676-1.2310035.5737133-1.8710488.2331389-.0272145-.0108643-.0515463-.0277843-.0711407-.0494525-.8181492-.5157706-1.6433943-1.0173975-2.4544274-1.4695719-.7170523-.4097234-.963898-1.3191422-.5513461-2.0312742.412552-.7121119 1.3282905-.9572618 2.0453427-.5475385.9106181.5016269 1.7999081 1.0527064 2.6678497 1.5967441l.0782569.0565143c.0612428.0363349.1184739.078967.1707459.1271722.4949818.4972812.5776736 1.2685429.1991902 1.8581703-.0703949.0854655-.1517159.1614751-.2134224.2260973zm11.802515 13.3250725c.16111-.0758486.307887-.1786164.4339809-.3037968.4245466-.4359384.5425165-1.083086.2987953-1.6391348-.4452901-.9725121-.9513995-1.9163746-1.5153248-2.8261154-.4361379-.7004227-1.3614316-.9171043-2.0666909-.4839826-.7052795.4331218-.9234593 1.3520368-.4873214 2.0524595.5047588.7878197.9586164 1.6066628 1.358811 2.4516606.0692257.1701665.1734271.3241975.3059114.4521544.4419638.4325986 1.1063812.5505362 1.6718385.2967551zm-7.6051083 24.5447324c.5932161.526474 1.4961939.504826 2.063143-.049452l.085373-.056535c1.0671318-1.179898 2.0346584-2.395126 2.0346584-2.395126.5005255-.6522981.3765482-1.5835662-.277447-2.0842475-.662341-.5120687-1.6170466-.3951371-2.1342838.261386-.5477779.7206624-1.1525047 1.4342832-1.8639327 2.2114398-.5484432.5865487-.5295543 1.4993887.0426966 2.0630827zm-2.3761503 4.210906.0853729-.084782c.5702148-.547156.6077709-1.442411.085373-2.034795-.2595258-.304923-.6308528-.494323-1.0315917-.526152-.4007187-.031828-.7976677.096531-1.1026921.35659-.72564.621717-1.4868604 1.250556-2.262313 1.829903l.0426764.063576-.0640247-.042371c-.6610911.513638-.7788393 1.461766-.263235 2.119577.0362256.054603.0792648.104457.1280696.148357.5384242.522651 1.3824977.570897 1.9777498.113029.8394773-.635841 1.6433943-1.292928 2.4046148-1.942932zm-7.2280764 5.291899c-.0754547.071946-.1563121.138057-.2418867.19781-.8039169.501647-1.6647425 1.038583-2.5397801 1.554354l-.085373.063576c-.3478419.195516-.7587006.248751-1.1453887.148398-.387434-.103211-.7160645-.358199-.9106382-.706539-.4179747-.708833-.1831235-1.61974.52647-2.041877.8323612-.494565 1.6860707-1.017378 2.5184319-1.554354.3373996-.20795.7425331-.278809 1.1311564-.19781.3892685.080074.7300346.311644.9461986.642923.3940461.595804.3107092 1.384791-.1991902 1.893519z" fill="#bfbfbf" fill-opacity=".3" transform="matrix(-1 0 0 -1 148.927836 289.022222)"/><path d="m3.99223375 2.67467419c-.11665812.11483663-.2511802.21026228-.39839758.28261049l-1.3232491.65706939c-.72478648.30170821-1.56120775-.00282504-1.91788369-.69828373-.35667593-.69545868-.11285901-1.54640522.55906338-1.9511896l1.36593455-.70652623c.65725689-.31400483 1.4466735-.11338503 1.87126559.47555742s.3614735 1.39575482-.14961891 1.91250122z" fill="#7383bf" transform="matrix(-1 0 0 -1 123.165723 289.681481)"/><path d="m3.18830624.11609712c-.26322697 10.69680698 9.54731336 21.66915928 26.92029346 30.11921288.3611451.1696897.6392756.4753562.7728045.8493152.1335289.3739589.1114383.7853539-.0613802 1.1430887-.0728498.1462038-.168937.2797998-.2845697.3956547-.4518627.4486124-1.1409686.5621994-1.7145325.2826105-18.4970304-8.9799483-28.89093861-20.9555678-28.59925467-32.8605346" fill="#d6d6d6" transform="matrix(-1 0 0 -1 148.627578 204.996296)"/><path d="m4.90716541 57.338608c14.70513919-6.2880833 22.92920349-14.9218338 23.15685919-24.3115673.263227-10.5978933-9.6397985-21.5490498-27.1621777-30.06975602-.67843593-.39405279-.93595417-1.24110258-.59045668-1.94217775.34549749-.70107518 1.17702691-1.01879504 1.90659154-.72849137 18.61797254 9.05766617 29.13282284 21.01208984 28.84113894 32.81107774-.2561127 10.5978934-9.1275731 20.1995847-24.97099104 26.9751712" fill="#d6d6d6" transform="matrix(-1 0 0 -1 128.150001 289.681481)"/><path d="m29.5293835 2.54881826c-.2804858.28040527-.6620355.43807784-1.0600221.43804626h-26.87049379c-.82707293-.00000002-1.497548-.66585902-1.497548-1.4872377 0-.82137869.67047508-1.48723768 1.49754801-1.4872377h26.87049378c.606512-.0029239 1.1546146.35859997 1.3871154.91492963s.1032536 1.19704645-.3270933 1.62149951z" fill="#ebebeb" transform="matrix(-1 0 0 -1 138.358764 186.537037)"/><path d="m50.187509 2.82383194c-.2804858.28040527-.6620355.43807784-1.0600221.43804626h-47.5160254c-.82707294 0-1.49754804-.665859-1.49754804-1.4872377s.6704751-1.4872377 1.49754804-1.4872377h47.5515966c.606512-.0029239 1.1546146.35859997 1.3871154.91492963s.1032537 1.19704645-.3626645 1.62149951z" fill="#ebebeb" transform="matrix(-1 0 0 -1 148.267269 254.440741)"/><path d="m3.88771366 2.51102623c-.11062919.11060425-.23781739.20355121-.37705485.27554522l-1.36593456.70652622c-.72956462.29030368-1.56109405-.02741619-1.90659153-.72849136-.34549749-.70107518-.08797925-1.54812496.59045668-1.94217776l1.3232491-.65706938c.65650282-.32195138 1.45110925-.12655913 1.88050149.46241184.42939223.58897096.36828034 1.39966813-.14462633 1.91858153z" fill="#bfbfbf" transform="matrix(-1 0 0 -1 129.471135 286.444444)"/><path d="m5.17885269 2.58720553c-.07544346.07195714-.15630633.1380916-.24188424.19782734-.8039094.50163362-1.66473274 1.03859355-2.53978456 1.55435769l-.08537091.06358736c-.34784004.19550541-.75869489.24872622-1.14539304.14837051-.3874168-.10320548-.71604885-.35818164-.91062303-.70652622-.41798134-.70883833-.18312021-1.61975132.52645394-2.04186079.83236637-.49456835 1.68607546-1.01739776 2.51844183-1.55435769.33740169-.2079701.74252337-.2788211 1.13116455-.19782734.3892592.08008214.73001953.31162874.94619425.64293886.39798115.59728538.31450195 1.39079948-.19919879 1.89349028z" fill="#bfbfbf" transform="matrix(-1 0 0 -1 122.865465 291)"/><path d="m4.0786622 2.85567623c-.11665812.11483662-.2511802.21026228-.39839758.28261049l-1.3232491.65706939c-.72478649.30170821-1.56120775-.00282505-1.91788369-.69828373-.35667593-.69545868-.11285901-1.54640522.55906338-1.95118961l1.36593455-.70652622c.65725689-.31400483 1.4466735-.11338503 1.87126559.47555742.42459209.58894244.3614735 1.39575482-.14961891 1.91250121z" fill="#bfbfbf" transform="matrix(-1 0 0 -1 122.505156 178.266667)"/><path d="m30.60054 117.175425c-.4518627.448613-1.1409686.5622-1.7145324.282611-18.4970304-8.979948-28.89093869-20.955568-28.59925475-32.8605348.27034122-10.8239817 9.20582975-20.5457826 25.18441835-27.3778911 14.7051391-6.2880834 22.9292034-14.9218339 23.1568592-24.3115673.263227-10.5978934-9.6397985-21.5490498-27.1621777-30.06975608-.678436-.3940528-.9359542-1.24110258-.5904567-1.94217775.3454975-.70107518 1.1770269-1.01879504 1.9065915-.72849137 18.6179726 9.05766617 29.1328229 21.0120899 28.841139 32.8110778-.2561128 10.5978933-9.1275731 20.1995847-24.9709911 26.9751712-14.8331955 6.358736-23.13551647 15.1267264-23.37028647 24.7284177-.26322697 10.696807 9.54731337 21.6691597 26.92029347 30.1192127.3611451.16969.6392756.475356.7728045.849315.1335288.373959.1114383.785354-.0613802 1.143089-.0827667.143227-.1884962.272093-.3130267.381524z" fill="#d6d6d6" transform="matrix(-1 0 0 -1 147.967011 177.966667)"/><path d="m47.2240426 2.70565064c-.2804859.28040527-.6620355.43807783-1.0600222.43804625h-44.5351578c-.82707294 0-1.49754804-.66585899-1.49754804-1.48723769s.6704751-1.4872377 1.49754804-1.4872377h44.5351578c.606512-.0029239 1.1546146.35859996 1.3871154.91492963.2325008.55632966.1032537 1.19704645-.3270932 1.62149951z" fill="#ebebeb" transform="matrix(-1 0 0 -1 146.285568 86.988889)"/><path d="m31.6753677 2.59017014c-.2804859.28040527-.6620355.43807784-1.0600222.43804626h-28.94073831c-.82707293-.00000002-1.497548-.66585902-1.497548-1.4872377 0-.82137869.67047508-1.48723768 1.49754801-1.4872377h28.9407383c.606512-.0029239 1.1546146.35859997 1.3871154.91492963s.1032537 1.19704645-.3270932 1.62149951z" fill="#ebebeb" fill-opacity=".3" transform="matrix(-1 0 0 -1 138.719073 166.4)"/><path d="m34.7704651 2.67680964c-.2804858.28040527-.6620355.43807784-1.0600221.43804626h-32.01409107c-.53502239.00000001-1.02940347-.28346589-1.29691467-.74361884s-.2675112-1.02708477 0-1.48723772c.26751119-.46015295.76189228-.74361885 1.29691467-.74361884h32.01409107c.606512-.0029239 1.1546146.35859997 1.3871154.91492963s.1032537 1.19704645-.3270933 1.62149951z" fill="#ebebeb" transform="matrix(-1 0 0 -1 139.679898 130.8)"/><path d="m35.4438011 2.63611553c-.2804858.28040527-.6620355.43807784-1.0600221.43804626h-32.63303022c-.82707294 0-1.49754804-.665859-1.49754804-1.4872377s.6704751-1.4872377 1.49754804-1.4872377h32.63303022c.606512-.0029239 1.1546146.35859997 1.3871153.91492963.2325008.55632967.1032537 1.19704645-.3270932 1.62149951z" fill="#ebebeb" fill-opacity=".3" transform="matrix(-1 0 0 -1 140.040207 110.722222)"/><path d="m3.86888802 2.54311047c-.11062919.11060425-.23781739.20355121-.37705485.27554522l-1.36593456.70652622c-.72956462.29030368-1.56109405-.02741619-1.90659153-.72849136-.34549749-.70107518-.08797925-1.54812496.59045668-1.94217776l1.3232491-.65706938c.64398216-.28244482 1.3990961-.08249724 1.81600093.48086121.41690483.56335844.38358762 1.33876602-.08012577 1.86480585z" fill="#bfbfbf" transform="matrix(1 0 0 -1 199.971649 115.62963)"/><path d="m28.3955274 2.67248788c-.1093419.11516114-.2397095.20865411-.3841682.27552965-.0301779.02190959-.0638433.03862847-.0996052.04947261-.5720089.28178666-1.2605363.17724836-1.7216511-.26142623-.1122247-.11604637-.2079593-.2467796-.2845631-.38857829-.3565304-.73299538-.0678751-1.61481097.6545193-1.99948617l.1138172-.04945249c.3449793-.17873716.7486211-.20937839 1.1169444-.08478145.3745525.10747567.6883057.36286621.8679417.7065389.3232884.57439733.2182806 1.2927662-.263235 1.75218347zm-5.6842871 3.18642646c.0999478-.07393731.194997-.15417186.2845631-.24022081.5202812-.53148352.5657596-1.36276019.1065196-1.94709631-.4592198-.58433612-1.2822475-.74243119-1.9277558-.37031024-.896406.536976-1.7856758 1.08099365-2.6251531 1.61794954-.6821169.45774739-.8770535 1.36954029-.441097 2.0630622.0605977.08464062.1271825.16491541.1992103.24022081.5034888.499273 1.2907344.57892411 1.8852608.1907482.7683567-.49456516 1.5864857-1.01031562 2.5184521-1.55435339zm-7.3347774 4.99514436c.0469702-.0298768.0899893-.0654874.1280493-.1059668.5625343-.5414827.611843-1.41378196.1209535-2.0136097-.2519259-.30949052-.6184954-.5055099-1.0173394-.54401766-.3895103-.05238986-.7834758.05758057-1.08848.30379684-.8608256.67827171-1.6718385 1.35654342-2.3832665 2.00654792-.2998637.2646654-.481193.637068-.503892 1.0348206-.0226989.3977727.1151074.7881415.3829386 1.0847559l.0498127.0494525c.55439.571802 1.4668627.6000289 2.0560067.0635961.718544-.6288192 1.4797645-1.2576183 2.2552171-1.8793757zm-8.28809206 8.506573c-.51286271.5115858-1.32395627.5774755-1.9137252.1554394-.07573701-.0505591-.14711969-.1072745-.21342233-.1695629-.50897204-.5101373-.57215005-1.3108532-.14939765-1.8934993 0 0 .86080542-1.2293512 1.93507348-2.4940313.34395125-.4097233.88291974-.6045356 1.41160719-.5102378.52868745.0943178.9656922.4632197 1.14458233.9662148.17889012.5029749.07212856 1.062625-.27964434 1.4657694-.61893887.7559914-1.22364555 1.5543534-1.77144364 2.2608923-.0472928.0780617-.10210486.1514156-.16362984.2190154zm-4.81634551 17.4370734c.26871821-.0618257.51495924-.1963211.71142793-.3885984.37519755-.3507747.5419117-.8687986.44107685-1.3706669-.20203255-.8996411-.33050525-1.8140293-.38416826-2.7342521-.05340094-.8213379-.75851913-1.4493724-1.58646553-1.4130375-.8239751.0708591-1.44859878.7687267-1.42285586 1.5896823.06698805 1.0793842.2192281 2.1518876.45530904 3.2076118.07198745.2677033.21441012.5115657.41263263.7065389.35675215.3610152.87602539.513316 1.3730432.4027219zm4.56734271 7.7223145c-.06402468.0635961-.12804936.1059868-.17784186.1554393-.59894124.4163224-1.41130481.3510564-1.93507348-.1554393-.05751336-.0539994-.1098862-.1131291-.15651374-.1766247-.62367622-.8605297-1.20304316-1.7519018-1.73588334-2.670676-.39112309-.7173227-.13554848-1.6135435.57626246-2.0206513.34463665-.1977698.7547091-.2500389 1.13845402-.1451385.38376509.1049005.70914998.3582389.90332055.7032796.44418132.8009171.94335614 1.5704889 1.49399664 2.3032831l.05690859.0777196c.42728815.5962868.35808263 1.4119109-.16362984 1.9288082zm20.47479536 15.5930467c.5714647.261547 1.2463647.1432674 1.6931868-.2967351.0965208-.1312563.1911871-.2879631.2490028-.4592362.2654928-.567255.1461722-1.238807-.2988154-1.6815456-.130791-.1136925-.2768423-.208795-.4339608-.2826116-.5904745-.2472826-1.1453887-.4945651-1.6718385-.7065188-.3984004-.1695629-.7470084-.3250022-1.1098284-.4945651-.75483-.3168138-1.6269647.0134395-1.97777.7489095-.154135.3661657-.154135.7784039 0 1.1445697.1348026.3693646.4183376.6663009.7825687.8195875l1.166737.5016269zm9.6753674 4.0130758c-.4839951.4780676-1.2310035.5737133-1.8710488.2331389-.0272145-.0108643-.0515463-.0277843-.0711407-.0494525-.8181492-.5157706-1.6433943-1.0173975-2.4544274-1.4695719-.7170523-.4097234-.963898-1.3191422-.5513461-2.0312742.412552-.7121119 1.3282905-.9572618 2.0453427-.5475385.9106181.5016269 1.7999081 1.0527064 2.6678497 1.5967441l.0782569.0565143c.0612428.0363349.1184739.078967.1707459.1271722.4949818.4972812.5776736 1.2685429.1991902 1.8581703-.0703949.0854655-.1517159.1614751-.2134224.2260973zm11.802515 13.3250725c.16111-.0758486.307887-.1786164.4339809-.3037968.4245466-.4359384.5425165-1.083086.2987953-1.6391348-.4452901-.9725121-.9513995-1.9163746-1.5153248-2.8261154-.4361379-.7004227-1.3614316-.9171043-2.0666909-.4839826-.7052795.4331218-.9234593 1.3520368-.4873214 2.0524595.5047588.7878197.9586164 1.6066628 1.358811 2.4516606.0692257.1701665.1734271.3241975.3059114.4521544.4419638.4325986 1.1063812.5505362 1.6718385.2967551zm-7.6051083 24.5447324c.5932161.526474 1.4961939.504826 2.063143-.049452l.085373-.056535c1.0671318-1.179898 2.0346584-2.395126 2.0346584-2.395126.5005255-.6522981.3765482-1.5835662-.277447-2.0842475-.662341-.5120687-1.6170466-.3951371-2.1342838.261386-.5477779.7206624-1.1525047 1.4342832-1.8639327 2.2114398-.5484432.5865487-.5295543 1.4993887.0426966 2.0630827zm-2.3761503 4.210906.0853729-.084782c.5702148-.547156.6077709-1.442411.085373-2.034795-.2595258-.304923-.6308528-.494323-1.0315917-.526152-.4007187-.031828-.7976677.096531-1.1026921.35659-.72564.621717-1.4868604 1.250556-2.262313 1.829903l.0426764.063576-.0640247-.042371c-.6610911.513638-.7788393 1.461766-.263235 2.119577.0362256.054603.0792648.104457.1280696.148357.5384242.522651 1.3824977.570897 1.9777498.113029.8394773-.635841 1.6433943-1.292928 2.4046148-1.942932zm-7.2280764 5.291899c-.0754547.071946-.1563121.138057-.2418867.19781-.8039169.501647-1.6647425 1.038583-2.5397801 1.554354l-.085373.063576c-.3478419.195516-.7587006.248751-1.1453887.148398-.387434-.103211-.7160645-.358199-.9106382-.706539-.4179747-.708833-.1831235-1.61974.52647-2.041877.8323612-.494565 1.6860707-1.017378 2.5184319-1.554354.3373996-.20795.7425331-.278809 1.1311564-.19781.3892685.080074.7300346.311644.9461986.642923.3940461.595804.3107092 1.384791-.1991902 1.893519z" fill="#bfbfbf" fill-opacity=".3" transform="matrix(1 0 0 -1 180.154639 229.022222)"/><path d="m3.99223375 2.67467419c-.11665812.11483663-.2511802.21026228-.39839758.28261049l-1.3232491.65706939c-.72478648.30170821-1.56120775-.00282504-1.91788369-.69828373-.35667593-.69545868-.11285901-1.54640522.55906338-1.9511896l1.36593455-.70652623c.65725689-.31400483 1.4466735-.11338503 1.87126559.47555742s.3614735 1.39575482-.14961891 1.91250122z" fill="#7383bf" transform="matrix(1 0 0 -1 205.916752 229.681481)"/><path d="m3.18830624.11609712c-.26322697 10.69680698 9.54731336 21.66915928 26.92029346 30.11921288.3611451.1696897.6392756.4753562.7728045.8493152.1335289.3739589.1114383.7853539-.0613802 1.1430887-.0728498.1462038-.168937.2797998-.2845697.3956547-.4518627.4486124-1.1409686.5621994-1.7145325.2826105-18.4970304-8.9799483-28.89093861-20.9555678-28.59925467-32.8605346" fill="#d6d6d6" transform="matrix(1 0 0 -1 180.454897 144.996296)"/><path d="m4.90716541 57.338608c14.70513919-6.2880833 22.92920349-14.9218338 23.15685919-24.3115673.263227-10.5978933-9.6397985-21.5490498-27.1621777-30.06975602-.67843593-.39405279-.93595417-1.24110258-.59045668-1.94217775.34549749-.70107518 1.17702691-1.01879504 1.90659154-.72849137 18.61797254 9.05766617 29.13282284 21.01208984 28.84113894 32.81107774-.2561127 10.5978934-9.1275731 20.1995847-24.97099104 26.9751712" fill="#d6d6d6" transform="matrix(1 0 0 -1 200.932474 229.681481)"/><path d="m29.5293835 2.54881826c-.2804858.28040527-.6620355.43807784-1.0600221.43804626h-26.87049379c-.82707293-.00000002-1.497548-.66585902-1.497548-1.4872377 0-.82137869.67047508-1.48723768 1.49754801-1.4872377h26.87049378c.606512-.0029239 1.1546146.35859997 1.3871154.91492963s.1032536 1.19704645-.3270933 1.62149951z" fill="#ebebeb" transform="matrix(1 0 0 -1 190.723711 126.537037)"/><path d="m50.187509 2.82383194c-.2804858.28040527-.6620355.43807784-1.0600221.43804626h-47.5160254c-.82707294 0-1.49754804-.665859-1.49754804-1.4872377s.6704751-1.4872377 1.49754804-1.4872377h47.5515966c.606512-.0029239 1.1546146.35859997 1.3871154.91492963s.1032537 1.19704645-.3626645 1.62149951z" fill="#ebebeb" transform="matrix(1 0 0 -1 180.815206 194.440741)"/><path d="m3.88771366 2.51102623c-.11062919.11060425-.23781739.20355121-.37705485.27554522l-1.36593456.70652622c-.72956462.29030368-1.56109405-.02741619-1.90659153-.72849136-.34549749-.70107518-.08797925-1.54812496.59045668-1.94217776l1.3232491-.65706938c.65650282-.32195138 1.45110925-.12655913 1.88050149.46241184.42939223.58897096.36828034 1.39966813-.14462633 1.91858153z" fill="#bfbfbf" transform="matrix(1 0 0 -1 199.61134 226.444444)"/><path d="m5.17885269 2.58720553c-.07544346.07195714-.15630633.1380916-.24188424.19782734-.8039094.50163362-1.66473274 1.03859355-2.53978456 1.55435769l-.08537091.06358736c-.34784004.19550541-.75869489.24872622-1.14539304.14837051-.3874168-.10320548-.71604885-.35818164-.91062303-.70652622-.41798134-.70883833-.18312021-1.61975132.52645394-2.04186079.83236637-.49456835 1.68607546-1.01739776 2.51844183-1.55435769.33740169-.2079701.74252337-.2788211 1.13116455-.19782734.3892592.08008214.73001953.31162874.94619425.64293886.39798115.59728538.31450195 1.39079948-.19919879 1.89349028z" fill="#bfbfbf" transform="matrix(1 0 0 -1 206.21701 231)"/><path d="m4.0786622 2.85567623c-.11665812.11483662-.2511802.21026228-.39839758.28261049l-1.3232491.65706939c-.72478649.30170821-1.56120775-.00282505-1.91788369-.69828373-.35667593-.69545868-.11285901-1.54640522.55906338-1.95118961l1.36593455-.70652622c.65725689-.31400483 1.4466735-.11338503 1.87126559.47555742.42459209.58894244.3614735 1.39575482-.14961891 1.91250121z" fill="#bfbfbf" transform="matrix(1 0 0 -1 206.577319 118.266667)"/><path d="m30.60054 117.175425c-.4518627.448613-1.1409686.5622-1.7145324.282611-18.4970304-8.979948-28.89093869-20.955568-28.59925475-32.8605348.27034122-10.8239817 9.20582975-20.5457826 25.18441835-27.3778911 14.7051391-6.2880834 22.9292034-14.9218339 23.1568592-24.3115673.263227-10.5978934-9.6397985-21.5490498-27.1621777-30.06975608-.678436-.3940528-.9359542-1.24110258-.5904567-1.94217775.3454975-.70107518 1.1770269-1.01879504 1.9065915-.72849137 18.6179726 9.05766617 29.1328229 21.0120899 28.841139 32.8110778-.2561128 10.5978933-9.1275731 20.1995847-24.9709911 26.9751712-14.8331955 6.358736-23.13551647 15.1267264-23.37028647 24.7284177-.26322697 10.696807 9.54731337 21.6691597 26.92029347 30.1192127.3611451.16969.6392756.475356.7728045.849315.1335288.373959.1114383.785354-.0613802 1.143089-.0827667.143227-.1884962.272093-.3130267.381524z" fill="#d6d6d6" transform="matrix(1 0 0 -1 181.115464 117.966667)"/><path d="m47.2240426 2.70565064c-.2804859.28040527-.6620355.43807783-1.0600222.43804625h-44.5351578c-.82707294 0-1.49754804-.66585899-1.49754804-1.48723769s.6704751-1.4872377 1.49754804-1.4872377h44.5351578c.606512-.0029239 1.1546146.35859996 1.3871154.91492963.2325008.55632966.1032537 1.19704645-.3270932 1.62149951z" fill="#ebebeb" transform="matrix(1 0 0 -1 182.796907 26.988889)"/><path d="m31.6753677 2.59017014c-.2804859.28040527-.6620355.43807784-1.0600222.43804626h-28.94073831c-.82707293-.00000002-1.497548-.66585902-1.497548-1.4872377 0-.82137869.67047508-1.48723768 1.49754801-1.4872377h28.9407383c.606512-.0029239 1.1546146.35859997 1.3871154.91492963s.1032537 1.19704645-.3270932 1.62149951z" fill="#ebebeb" transform="matrix(1 0 0 -1 190.363402 106.4)"/><path d="m34.7704651 2.67680964c-.2804858.28040527-.6620355.43807784-1.0600221.43804626h-32.01409107c-.53502239.00000001-1.02940347-.28346589-1.29691467-.74361884s-.2675112-1.02708477 0-1.48723772c.26751119-.46015295.76189228-.74361885 1.29691467-.74361884h32.01409107c.606512-.0029239 1.1546146.35859997 1.3871154.91492963s.1032537 1.19704645-.3270933 1.62149951z" fill="#ebebeb" transform="matrix(1 0 0 -1 189.402577 70.8)"/><path d="m35.4438011 2.63611553c-.2804858.28040527-.6620355.43807784-1.0600221.43804626h-32.63303022c-.82707294 0-1.49754804-.665859-1.49754804-1.4872377s.6704751-1.4872377 1.49754804-1.4872377h32.63303022c.606512-.0029239 1.1546146.35859997 1.3871153.91492963.2325008.55632967.1032537 1.19704645-.3270932 1.62149951z" fill="#ebebeb" transform="matrix(1 0 0 -1 189.042268 50.722222)"/></g></g></svg>