<svg height="912" viewBox="0 0 2880 912" width="2880" xmlns="http://www.w3.org/2000/svg" xmlns:xlink="http://www.w3.org/1999/xlink"><mask id="a" fill="#fff"><use fill="#fff" fill-rule="evenodd" xlink:href="#b"/></mask><g fill="none" fill-rule="evenodd"><use fill="#fff" xlink:href="#b"/><g font-family="Gilroy-Light, Gilroy" font-weight="300" mask="url(#a)"><g transform="translate(1307 474)"><text font-size="20" letter-spacing="2.77777767"><tspan fill="#1d1d24" x="72.008891" y="18">FULL GENOME SEQUENCING</tspan></text><text font-size="36"><tspan fill="#1d1d24" x="67.572" y="67">GeneOS reads your </tspan><tspan fill="#1d1d24" font-family="Gilroy-ExtraBold, Gilroy" font-weight="600" x="19.08" y="117.400002">whole</tspan> <tspan fill="#1d1d24" x="119.268" y="117.400002">genome – what </tspan><tspan fill="#1d1d24" x="126.972" y="167.800003">you need to get </tspan><tspan fill="#1d1d24" x="63.576" y="218.200005">revolutionary health </tspan><tspan fill="#1d1d24" x="287.352" y="268.600006">insight</tspan></text></g></g><g font-family="Gilroy-Light, Gilroy" font-weight="300" mask="url(#a)"><g transform="translate(807 171)"><text font-size="20" letter-spacing="2.77777767"><tspan fill="#1d1d24" x="1.360001" y="18">PARTIAL SEQUENCING</tspan></text><text font-size="36"><tspan fill="#1d1d24" x="0" y="66.599999">Services like 23&amp;Me </tspan><tspan fill="#1d1d24" x="0" y="117">and Ancestry read a </tspan><tspan fill="#1d1d24" font-family="Gilroy-ExtraBold, Gilroy" font-weight="600" x="0" y="167.400002">tiny</tspan> <tspan fill="#1d1d24" x="63.396" y="167.400002">fraction of your </tspan><tspan fill="#1d1d24" x="0" y="217.800003">genetic data</tspan></text></g></g><g fill-rule="nonzero"><g mask="url(#a)"><path d="m12.8852236 8.47703489c-.3684474.36868084-.7920442.67850405-1.2557706.91848408l-4.54920697 2.35508743c-2.42979464.9676789-5.19918019-.0913873-6.34984994-2.42830457-1.15066974-2.33691725-.29301241-5.16041653 1.96649952-6.47392585l4.40704421-2.19023129c2.14476463-.94148273 4.65965048-.27499079 6.04814048 1.60287069 1.3884899 1.87786148 1.2775278 4.46255341-.2668567 6.21601951z" fill="#bfbfbf" transform="matrix(-.00000056 1 -1 -.00000056 359.90084004 265.99804964198)"/><path d="m94.570512 8.90829294c-.3641602.38387045-.798346.69551369-1.2794617.91843217-.1005066.07303195-.2126282.12876157-.3317322.1649087-1.9050598.93928889-4.1981811.59082789-5.7339111-.87142078-.373761-.38682123-.6926026-.82259868-.9477295-1.29526096-1.1874146-2.44331793-.2260559-5.38270324 2.1798584-6.66495391l.3790649-.16484164c1.1489441-.59579053 2.4932618-.69792797 3.7199524-.28260483 1.2474365.35825225 2.2923828 1.20955404 2.8906555 2.35512967 1.0767029 1.91465778.7269776 4.30922067-.8766967 5.84061158zm-18.9313599 10.62142156c.3328735-.2464577.6494324-.5139062.9477295-.8007361 1.732782-1.7716117 1.8842468-4.5425339.3547607-6.490321-1.5294189-1.9477871-4.2704895-2.47477062-6.4203369-1.2343675-2.9854553 1.78992-5.9471435 3.6033122-8.7429992 5.3931652-2.2717713 1.5258246-2.9210022 4.5651343-1.4690613 6.876874.2018188.2821354.4235779.549718.6634643.800736 1.6768555 1.6642433 4.2987549 1.929747 6.2788086.6358273 2.5589905-1.6485505 5.2837464-3.3677187 8.3876343-5.1811779zm-24.4282715 16.650481c.1564331-.099589.299707-.2182911.4264649-.3532225 1.8735046-1.8049422 2.0377258-4.7126065.402832-6.7120323-.839032-1.0316351-2.0598816-1.685033-3.3882202-1.8133922-1.2972534-.1746329-2.6093445.1919352-3.6251526 1.0126561-2.8669556 2.2609057-5.5680115 4.5218114-7.9374024 6.6884932-.9986877.8822179-1.6026001 2.12356-1.6781982 3.4494018-.0755981 1.3259089.3833618 2.6271385 1.2753662 3.615853l.1658997.1648417c1.8463806 1.9060066 4.8853454 2.0000964 6.8474731.2119871 2.3930908-2.096064 4.9283142-4.192061 7.5109375-6.2645859zm-27.6032593 28.3552435c-1.7080749 1.7052861-4.4093994 1.9249184-6.3736084.5181312-.2522399-.1685301-.489978-.3575816-.7107971-.5652097-1.6951172-1.7004575-1.9055298-4.3695106-.4975647-6.3116643 0 0 2.8668885-4.0978371 6.4447083-8.3134374 1.14552-1.3657445 2.9405395-2.0151186 4.7013183-1.7007929 1.7607788.3143929 3.216211 1.5440659 3.8119995 3.220716.5957886 1.676583.2402222 3.5420833-.9313476 4.8858981-2.0613586 2.5199713-4.0753174 5.181178-5.8997437 7.5363077-.1575073.2602057-.3400573.5047185-.5449646.7300513zm-16.0407043 58.123578c.89495849-.206086 1.71505737-.654404 2.36939086-1.295328 1.24958494-1.169249 1.80482174-2.895995 1.46899414-4.56889-.6728638-2.998803-1.1007385-6.046764-1.2794617-9.114173-.17785031-2.737793-2.52622677-4.831242-5.28367916-4.710125-2.74422608.236197-4.82451783 2.562422-4.73878174 5.298941.2231018 3.597947.73013305 7.172958 1.51639404 10.692039.2397522.892344.71408691 1.705219 1.37426148 2.35513 1.18815307 1.203384 2.91757812 1.711053 4.57288208 1.342406zm15.2114075 25.741048c-.2132325.211987-.4264649.35329-.5922974.518131-1.9947571 1.387742-4.7003113 1.170188-6.4447082-.518131-.1915467-.179998-.3659729-.377097-.5212647-.588749-2.0771362-2.868432-4.0067017-5.839672-5.78131103-8.902253-1.30262451-2.391076-.45144043-5.378478 1.91922603-6.735504 1.1478028-.659233 2.5135376-.833463 3.7915894-.483795 1.2781189.349668 2.3618042 1.194129 3.0084839 2.344265 1.4793335 2.669724 3.1418213 5.234963 4.9757141 7.67761l.1895325.259066c1.4230713 1.987622 1.1925842 4.706369-.5449646 6.42936zm68.1907348 51.976823c1.9032471.871823 4.1509827.477558 5.6391114-.989117.3214599-.437521.6367431-.959877.8292968-1.530788.8842163-1.89085.4868225-4.129356-.9951965-5.605152-.4355957-.378975-.9220154-.695983-1.4452942-.942038-1.9665588-.824276-3.814685-1.648551-5.5680115-2.355063-1.3268615-.56521-2.4878906-1.083341-3.6962524-1.64855-2.5139404-1.056046-5.4185608.044798-6.586908 2.496365-.5133423 1.220552-.5133423 2.594679 0 3.815232.4489563 1.231215 1.3932618 2.221003 2.6063233 2.731958l3.8857849 1.67209zm32.2235417 13.376919c-1.611933 1.593559-4.099823 1.912378-6.231476.77713-.090637-.036215-.171674-.092615-.236933-.164842-2.724823-1.719235-5.473278-3.391325-8.174401-4.898573-2.388123-1.365745-3.210236-4.397141-1.836243-6.770914 1.373993-2.373706 4.423834-3.190873 6.811957-1.825128 3.032788 1.672089 5.994543 3.509021 8.885199 5.32248l.260632.188381c.203967.121116.394574.263223.568664.423907 1.648523 1.657604 1.923926 4.228477.663398 6.193901-.234449.284885-.505286.538251-.710797.753658zm39.307946 44.416908c.536573-.252828 1.025409-.595388 1.445362-1.012656 1.41394-1.453128 1.806836-3.610286.995129-5.463782-1.483026-3.241707-3.16861-6.387916-5.046747-9.420385-1.452545-2.334742-4.53421-3.057014-6.883056-1.613275-2.348914 1.443739-3.075556 4.506789-1.623011 6.841531 1.681086 2.626066 3.192646 5.355543 4.525483 8.172202.230554.567222.577594 1.080659 1.018829 1.507182 1.471948 1.441995 3.684772 1.83512 5.568011.989183zm-25.328601 81.815775c1.97569 1.754913 4.983033 1.682753 6.871241-.164841l.284332-.188448c3.554053-3.932996 6.776373-7.983754 6.776373-7.983754 1.666986-2.174327 1.254083-5.278554-.924029-6.947492-2.205909-1.706896-5.385529-1.317124-7.108173.871287-1.824359 2.402208-3.838385 4.780944-6.207776 7.371466-1.826575 1.955164-1.763666 4.997961.1422 6.876941zm-7.913702 14.036353.284332-.282605c1.899085-1.823854 2.024164-4.808037.284332-6.78265-.864343-1.016411-2.101037-1.647746-3.435687-1.75384-1.334582-.106094-2.65661.32177-3.672485 1.188631-2.416724 2.07239-4.951947 4.168521-7.53457 6.099677l.142132.21192-.213232-.141235c-2.201746 1.712126-2.593903 4.872552-.876697 7.065254.120648.18201.263989.348193.426532.494525 1.793207 1.742171 4.60437 1.902989 6.586841.376762 2.795855-2.119469 5.473279-4.309757 8.008502-6.476439zm-24.072907 17.639665c-.2513.239819-.520593.460189-.805597.659367-2.677423 1.672157-5.5443782 3.461942-8.4586665 5.181178l-.2843323.21192c-1.1584778.651721-2.526831.829171-3.814685.494659-1.2903382-.344035-2.3848328-1.193996-3.0328553-2.35513-1.3920532-2.362775-.6098877-5.399134 1.7533936-6.806256 2.7721557-1.648551 5.6154114-3.391258 8.3875671-5.181178 1.1237004-.693167 2.4729854-.929364 3.7672854-.659367 1.296448.266912 2.43136 1.038811 3.151288 2.143076 1.312359 1.986013 1.034808 4.615968-.663398 6.311731z" fill="#bfbfbf" transform="matrix(-.00000056 1 -1 -.00000056 737.876185 199.99826130815)"/><path d="m13.2960231 8.91558065c-.3885266.38278874-.8365486.70087426-1.326852.94203496l-4.4070442 2.19023129c-2.41388117 1.005694-5.19955886-.0094168-6.38745812-2.32761242-1.18789926-2.31819562-.3758738-5.15468407 1.86194498-6.50396536l4.54920692-2.35508741c2.18897573-1.04668276 4.81810572-.3779501 6.23219782 1.58519139s1.2038774 4.65251607-.4983016 6.37500405z" fill="#7383bf" transform="matrix(-.00000056 1 -1 -.00000056 740.073667952 285.79826253877)"/><path d="m10.618565.38699039c-.8766701 35.65602341 31.7970609 72.23053081 89.657286 100.39737661 1.202784.565632 2.12909 1.58452 2.573804 2.83105s.371142 2.617847-.204425 3.810296c-.242624.487346-.56264.932666-.947751 1.318849-1.504916 1.495375-3.7999644 1.873998-5.7102028.942035-61.6038438-29.9331609-96.22046523-69.8518925-95.24902-109.53511535" fill="#d6d6d6" transform="matrix(-.00000056 1 -1 -.00000056 457.78976544 200.99810445975)"/><path d="m16.3431775 191.128693c48.9750558-20.960277 76.3650725-49.739446 77.1232736-81.038557.8766701-35.3263114-32.1050801-71.8301662-90.46287515-100.23252039-2.25951194-1.31350932-3.11716927-4.1370086-1.96649952-6.47392585s3.9200553-3.39598346 6.34984994-2.42830455c62.00663813 30.19222059 97.02605363 70.04029949 96.05460863 109.37025879-.852976 35.326312-30.3991275 67.331949-83.165189 89.917238" fill="#d6d6d6" transform="matrix(-.00000056 1 -1 -.00000056 740.073677248 269.19826253877)"/><path d="m98.3467881 8.49606086c-.9341502.93468424-2.2048908 1.46025946-3.5303742 1.4601542h-89.49142992c-2.75454332-.00000007-4.98754185-2.21953005-4.98754185-4.957459.00000001-2.73792896 2.23299854-4.95745893 4.98754186-4.95745899h89.49142991c2.0199713-.00974634 3.8454117 1.19533322 4.6197491 3.04976543.774337 1.85443221.3438834 3.99015484-1.0893749 5.40499836z" fill="#ebebeb" transform="matrix(-.00000056 1 -1 -.00000056 396.258881288 235.19807000247)"/><path d="m167.148099 9.41277314c-.93415.93468426-2.204891 1.46025946-3.530374 1.46015416h-158.25079743c-2.75454336 0-4.98754196-2.21952997-4.98754196-4.95745897s2.2329986-4.95745899 4.98754196-4.95745899h158.36926643c2.019971-.00974634 3.845411 1.19533322 4.619749 3.04976543.774337 1.85443221.343883 3.99015484-1.207844 5.40499837z" fill="#ebebeb" transform="matrix(-.00000056 1 -1 -.00000056 622.604578768 202.19819675605)"/><path d="m12.9479219 8.37008742c-.3684474.36868084-.7920442.67850405-1.2557707.91848409l-4.5492069 2.35508739c-2.42979464.9676789-5.19918019-.0913873-6.34984994-2.42830454-1.15066974-2.33691725-.29301241-5.16041652 1.96649952-6.47392585l4.40704421-2.19023129c2.18646432-1.07317126 4.83287891-.42186375 6.26295771 1.5413728 1.4300789 1.96323654 1.2265474 4.66556044-.4816739 6.39527177z" fill="#bfbfbf" transform="matrix(-.00000056 1 -1 -.00000056 729.283556712 264.7982564963)"/><path d="m17.2480244 8.62401843c-.2512623.23985712-.5205739.46030534-.8055887.65942448-2.6773978 1.67211209-5.544346 3.46197849-8.45868164 5.18119229l-.28432543.2119579c-1.15847155.6516847-2.52681215.8290874-3.81469956.4945683-1.29028084-.3440182-2.3847807-1.1939388-3.03280461-2.3550874-1.39207518-2.3627944-.60987673-5.39917105 1.75334017-6.80620259 2.77217297-1.64856119 5.61542729-3.39132587 8.38760027-5.1811923 1.1237069-.69323367 2.4729534-.92940369 3.767312-.65942447 1.2964169.26694046 2.4313097 1.03876245 3.1512735 2.14312954 1.3254651 1.99095124 1.04744 4.63599823-.663426 6.31163425z" fill="#bfbfbf" transform="matrix(-.00000056 1 -1 -.00000056 744.468729392 286.798265)"/><path d="m13.5838707 9.51892077c-.3885266.38278874-.8365487.70087423-1.3268521.94203493l-4.40704417 2.1902313c-2.41388116 1.0056941-5.19955886-.0094168-6.38745811-2.3276124-1.18789926-2.31819561-.3758738-5.15468407 1.86194498-6.50396536l4.54920692-2.35508741c2.18897568-1.04668276 4.81810578-.3779501 6.23219788 1.58519139s1.2038774 4.65251607-.4983017 6.37500405z" fill="#bfbfbf" transform="matrix(-.00000056 1 -1 -.00000056 368.69095072 287.99805456444)"/><path d="m101.914245 390.584751c-1.504916 1.495375-3.7999642 1.873998-5.7102027.942035-61.6038437-29.933161-96.22046515-69.851893-95.24901992-109.535115.90036387-36.079939 30.65975912-68.485942 83.87600262-91.259637 48.975056-20.960278 76.365073-49.739447 77.123274-81.038558.87667-35.3263113-32.10508-71.8301661-90.4628755-100.23252027-2.259512-1.31350932-3.1171693-4.1370086-1.9664995-6.47392585 1.1506697-2.33691724 3.9200553-3.39598346 6.3498499-2.42830455 62.0066381 30.19222057 97.0260541 70.04029957 96.0546091 109.37025967-.852977 35.326311-30.399128 67.331949-83.1651895 89.917237-49.4015439 21.195787-77.0521922 50.422421-77.8340872 82.428059-.8766701 35.656023 31.7970609 72.230531 89.6572867 100.397376 1.202783.565633 2.129089 1.584521 2.573803 2.831051.444715 1.24653.371143 2.617846-.204425 3.810296-.275652.477423-.627781.906975-1.042526 1.271747z" fill="#d6d6d6" transform="matrix(-.00000056 1 -1 -.00000056 367.690998208 203.19805400444)"/><g fill="#ebebeb"><path d="m157.278356 9.01883546c-.93415.93468423-2.20489 1.46025944-3.530374 1.46015414h-148.32310054c-2.75454337 0-4.98754197-2.21952995-4.98754197-4.95745895s2.2329986-4.95745899 4.98754197-4.95745899h148.32310054c2.019971-.00974634 3.845412 1.19533322 4.619749 3.04976543.774338 1.85443221.343884 3.99015484-1.089375 5.40499837z" transform="matrix(-.00000056 1 -1 -.00000056 64.431736072 208.79788417926)"/><path d="m105.493928 8.63390046c-.93415.93468424-2.20489 1.46025944-3.530374 1.46015424h-96.38632146c-2.75454332-.0000001-4.98754185-2.21953009-4.98754185-4.95745905 0-2.73792895 2.23299854-4.95745893 4.98754186-4.95745899h96.38632145c2.019972-.00974633 3.845412 1.19533323 4.619749 3.04976544.774338 1.8544322.343884 3.99015483-1.089375 5.40499836z" transform="matrix(-.00000056 1 -1 -.00000056 329.13542596 233.99803241333)"/><path d="m115.802064 8.9226988c-.93415.93468423-2.204891 1.4602595-3.530374 1.4601542h-106.62203722c-1.78187715 0-3.42839955-.94488631-4.31933814-2.47872947-.89093859-1.53384317-.89093859-3.42361589 0-4.95745906.89093858-1.53384317 2.53746098-2.47872951 4.31933813-2.47872947h106.62203723c2.019971-.00974634 3.845412 1.19533322 4.619749 3.04976543s.343884 3.99015484-1.089375 5.40499837z" transform="matrix(-.00000056 1 -1 -.00000056 210.468760752 230.79796596)"/><path d="m118.044591 8.78705177c-.93415.93468424-2.204891 1.46025943-3.530374 1.46015423h-108.68339702c-2.75454337 0-4.98754197-2.21953003-4.98754197-4.95745903s2.2329986-4.95745899 4.98754197-4.95745899h108.68339702c2.019971-.00974634 3.845411 1.19533322 4.619749 3.04976543.774337 1.85443221.343883 3.99015484-1.089375 5.40499836z" transform="matrix(-.00000056 1 -1 -.00000056 143.542835424 229.59792848148)"/></g></g><g mask="url(#a)"><g fill="#7383bf"><path d="m24.7686901 17.6724892c-.6439902.6487786-1.3843731 1.1939837-2.1948966 1.6162837l-7.9513232 4.1443171c-4.2469122 1.7028533-9.0873778-.1608169-11.09857387-4.2731595s-.51214123-9.0809379 3.43714267-11.39235924l7.7028444-3.85421493c3.748723-1.65675508 8.1443618-.48390944 10.5712315 2.82061908 2.4268696 3.30452849 2.2329248 7.85288749-.4664249 10.93851379z" transform="matrix(-.50000048497 .86602512 -.86602512 -.50000048497 2344.70904255483 476.63386311048)"/><g transform="matrix(-.50000048497 .86602512 -.86602512 -.50000048497 2974.69268555403 708.72956926343)"><path id="b" d="m163.898 16.5428839c.840928-.3922225 1.599758-.9407537 2.236136-1.6162351 2.775572-2.6846351 3.403833-6.89963408 1.532269-10.27796917-1.045477-2.01576817-2.871817-3.51387231-5.052292-4.1443293-2.144065-.73083346-4.493607-.55108417-6.501769.49735665l-.662816.29010537c-4.205104 2.25632354-5.885336 7.42890233-3.809919 11.72837995.445975.8317902 1.00327 1.5987127 1.656577 2.279416 2.684198 2.5731186 6.692172 3.1864013 10.022024 1.5333809.208029-.0635911.403998-.1616467.57979-.2901053zm-30.728655 17.0746738c.581877-.4337655 1.135229-.9044325 1.656577-1.4090998 3.028593-3.1175884 3.293209-7.9936795.620144-11.4212164-2.673298-3.427653-7.464221-4.3549458-11.221958-2.1720769-5.217881 3.149616-10.394713 6.3407751-15.281418 9.4903911-3.970636 2.6850992-5.105401 8.0334819-2.567543 12.1014555.352744.4965443.740276.9673273 1.15958 1.4090998 2.930725 2.9285557 7.513619 3.3958574 10.974504 1.1188784 4.472502-2.9009377 9.235132-5.9262726 14.660114-9.1174317zm-42.7384322 29.3002945c.2734291-.1753397.5238985-.3842155.7453784-.6216378 3.2456663-3.1652817 3.5508679-8.2825084.7040974-11.8113501-1.4664057-1.8154794-3.600266-2.9653411-5.9222103-3.1911591-2.2672121-.3072796-4.5606307.3376826-6.3361806 1.7820593-5.0110118 3.9786211-9.7321285 7.9571262-13.8734548 11.7699231-1.7454008 1.5524118-2.801083 3.7367892-2.9330433 6.0700487-.1321922 2.3332595.6700057 4.6230032 2.2291778 6.3628231l.2898952.2901054c3.2271129 3.3540823 8.5386881 3.5195584 11.9682638.3730755 4.1828393-3.6885157 8.6140608-7.3769154 13.1280764-11.0238881zm-48.2462083 49.8975438c-2.9854564 3.00085-7.7070369 3.38727-11.1400913.911743-.4408726-.296604-.8564663-.629296-1.2423748-.994597-2.9627285-2.992379-3.3305475-7.689185-.8696854-11.106858 0 0 5.0110118-7.2110915 11.2643983-14.629434 2.0023639-2.403349 5.1397253-3.546016 8.2172523-2.9928431 3.0775271.5531729 5.6214151 2.7171269 6.6627185 5.6674986 1.0413035 2.9503716.4197682 6.233204-1.6278193 8.5979109-3.64433 4.4344346-7.1643531 9.1175476-10.3119188 13.2617606-.2752844.458019-.5941691.888303-.9524795 1.284819zm-22.8186919 47.493847c-2.1753733 2.151885-5.3134305 3.015355-8.2824208 2.279416-1.56311469-.317956-3.0009947-1.080585-4.14132631-2.196562-2.15032636-2.177067-3.01328628-5.317283-2.27788023-8.288543 1.6289789-6.059605 3.63435767-12.011406 6.00500434-17.820593 1.9483274-4.343457 6.9305817-6.428386 11.3884735-4.765967 4.4388747 1.852381 6.5622988 6.933751 4.7626297 11.396848-2.1285263 5.073827-3.8864506 10.295608-5.259394 15.624031-.4030703 1.421864-1.1579573 2.718984-2.1950862 3.77137zm-1.0355055 52.384211c-1.1435785 1.127813-2.5770521 1.916668-4.1410945 2.2793-2.8933856.648791-5.91618044-.244617-7.99275747-2.36227-1.15401466-1.143596-1.98311483-2.574047-2.40195536-4.144214-1.37433499-6.192705-2.26048652-12.483814-2.65056945-18.815306-.14981782-4.815401 3.48616327-8.90902 8.28265267-9.324683 4.81968101-.213053 8.92413271 3.470821 9.23513221 8.288659.312391 5.397701 1.0603206 10.761401 2.2363673 16.038534.6328991 2.983675-.3413806 6.081072-2.5677754 8.03998zm21.327935 48.48856c.2898951-.290106.6625843-.538784 1.0352736-.911743 3.0805419-2.946891 3.4502162-7.811842.8696855-11.313994l-.3311763-.455929c-3.2053128-4.298318-6.1112219-8.812589-8.6968549-13.51044-1.1303592-2.024007-3.0244182-3.509927-5.2582344-4.125298-2.2340481-.615372-4.6211608-.308788-6.6272353.851285-4.1132645 2.416114-5.5625084 7.666441-3.2716409 11.852777 3.1016464 5.38923 6.4744026 10.617741 10.1048177 15.665458.2713419.372496.5763116.719346.9109666 1.036141 3.0490014 2.970911 7.7780032 3.353734 11.2643984.911743zm37.8932403 36.842918c-3.1104591 3.119793-8.0655792 3.405141-11.5130124.663181-4.8867048-3.895651-9.4835144-7.915699-13.9147359-11.977058-1.7356604-1.574576-2.7593382-3.78576-2.837262-6.128767-.0781557-2.343007.7961681-4.617549 2.4230597-6.304221 1.5427061-1.780319 3.7519392-2.843381 6.1044964-2.937491 2.3527892-.094227 4.6397141.788854 6.3194827 2.440134 3.8929441 3.646973 8.2826526 7.294061 12.8794622 11.065315l.6213034.621638c3.2479854 3.086721 3.5900617 8.149408.7868914 11.645526zm33.9170386 30.750821c3.402905 1.838804 7.607313 1.232948 10.353431-1.491954.547091-.556422 1.079106-1.214845 1.490757-1.947767 1.898002-3.429278 1.270669-7.705083-1.532269-10.443677-.558686-.565242-1.201094-1.04055-1.90496-1.4091-5.425214-3.108189-10.353431-5.926389-14.867447-8.703045-4.105379-2.540627-9.4916314-1.269618-12.0304173 2.838855-2.5387859 4.108472-1.2688131 9.49863 2.8367981 12.039257 4.8039112 2.94248 10.1048182 6.050669 15.6541072 9.117431zm58.18567 21.343285c-2.60094 2.580893-6.529831 3.274709-9.856436 1.740632l-9.317926-4.144329-6.791664-2.942481c-2.120409-.899095-3.770956-2.640887-4.555529-4.807394-.897283-2.147941-.897283-4.566027 0-6.713851 2.042022-4.314099 7.118898-6.251307 11.512781-4.393008 2.11206.994714 4.141326 1.906457 6.460487 2.901054 3.06454 1.243276 6.2949 2.693803 9.732129 4.144329.914677.432954 1.764882.990884 2.526262 1.657779 2.590272 2.596907 3.28486 6.536074 1.739371 9.863466-.312159.997382-.834666 1.916088-1.449475 2.693803zm35.573847 26.647919c3.725732 1.997665 8.07416 1.436718 10.891477-1.367673.413042-.384448.858321-.83005 1.242375-1.32613 2.203203-3.458636 1.721977-7.982655-1.159581-10.899607-.304042-.282794-.637306-.532865-.993761-.745919l-.455715-.331532c-5.052293-3.191159-10.228893-6.423745-15.5298-9.366226-4.174026-2.403233-9.50485-.965239-11.906342 3.211931-2.401491 4.177053-.964539 9.511626 3.209487 11.914859 4.721117 2.652376 9.525028 5.594856 14.287657 8.620191.114103.127067.255804.226283.414203.290106zm52.015077 31.786845c-3.367654 3.312191-8.766662 3.312191-12.134084 0l-.786891-.787346-.786892-.787462c-3.313154-3.31544-6.957484-6.71385-10.725889-9.987747-1.764186-1.492535-2.866019-3.6233-3.064771-5.926389-.164893-2.328618.577239-4.630662 2.070779-6.423745 1.509078-1.800626 3.684683-2.910453 6.027268-3.074537 2.342817-.164084 4.651542.631501 6.396711 2.204221 4.141326 3.522691 7.992757 7.169664 11.719881 10.85818l1.739371 1.740516c3.169134 3.515265 2.967135 8.915982-.455483 12.184309zm27.539577 45.007296c.937637-.444906 1.792247-1.047629 2.52603-1.781943 2.528582-2.51974 3.281613-6.320352 1.905191-9.614789-2.592126-5.7044-5.538389-11.241003-8.821162-16.577317-2.538786-4.108472-7.925038-5.379482-12.030417-2.838855-4.105611 2.540627-5.375584 7.930785-2.836798 12.039141 2.88179 4.62544 5.46835 9.428657 7.744143 14.380871.40307.998427 1.009531 1.901699 1.780884 2.65226 2.572646 2.537609 6.440311 3.229221 9.732129 1.740632zm12.299672 49.607554c-1.708758 1.782408-4.123005 2.709353-6.584563 2.528095-2.150327-.112793-4.184231-1.012584-5.715109-2.528095-1.781116-1.709997-2.707389-4.125994-2.526263-6.589337.252325-5.405243.099956-10.821859-.455483-16.204358-.461281-4.756567 2.960873-9.009744 7.702862-9.573477 2.306406-.308208 4.636236.36855 6.418975 1.865029 1.771607 1.449599 2.914258 3.52861 3.188847 5.802108.602982 5.961317.782717 11.957911.538509 17.944758v1.11911c-.102739 2.166275-1.002573 4.218132-2.526262 5.760565zm-24.185142 52.301357c3.353739 1.721602 7.437782 1.048789 10.063305-1.657778l.041513.124397c.673716-.70043 1.195527-1.532916 1.532269-2.44524l.248383-.497124c2.688603-5.390854 5.080354-10.924904 7.164585-16.577318.783644-2.176254.669541-4.575077-.317262-6.666853-.986803-2.091544-2.765136-3.704298-4.942364-4.481316-4.511233-1.518991-9.418346.781196-11.140092 5.221665-1.859967 5.222129-4.05946 10.316611-6.584794 15.251187-1.665622 3.364526-.998863 7.417879 1.656577 10.070602.659105.678615 1.429531 1.23933 2.27788 1.657778zm-32.260925 42.064815c3.452999 3.088114 8.70961 2.961164 12.009776-.290105l.496997-.331649c6.211873-6.920985 11.844188-14.049223 11.844188-14.049223 2.913563-3.826141 2.19184-9.288709-1.615295-12.225736-3.855606-3.003635-9.413012-2.317826-12.423748 1.533381-3.188846 4.227183-6.709101 8.413056-10.850428 12.971655-3.192557 3.44065-3.082629 8.795067.248614 12.101572zm-13.831942 24.700036.496996-.497357c3.348405-3.220634 3.548781-8.471541.496996-11.935631-1.510701-1.788442-3.672392-2.899429-6.005004-3.086025-2.332844-.186828-4.643425.566054-6.418975 2.091544-4.22412 3.646972-8.655342 7.335488-13.169357 10.733666l.248382.37296-.372689-.248562c-3.848416 3.012918-4.533729 8.574586-1.53227 12.432987.210812.320277.461281.612703.745378.870317 3.134347 3.065833 8.047722 3.348744 11.512781.663064 4.886937-3.729826 9.56654-7.58405 13.997762-11.396963zm-42.075848 31.041043c-.439249.421929-.910039.809974-1.408195 1.160189-4.679603 2.942597-9.690615 6.092213-14.784421 9.117664l-.496996.372959c-2.02486 1.146729-4.416379 1.458882-6.667589.870316-2.255153-.605508-4.168229-2.101059-5.300907-4.144329-2.433032-4.158022-1.065887-9.501067 3.064772-11.977174 4.845191-2.901054 9.814922-5.967816 14.660114-9.117432 1.964098-1.219835 4.322453-1.635498 6.584795-1.160422 2.26582.469739 4.249399 1.827896 5.507776 3.77137 2.293882 3.494726 1.808946 8.122719-1.159349 11.106859z"/></g><path d="m25.8966751 18.6773621c-.6790856.6736047-1.4621601 1.2333492-2.319136 1.6577268l-7.7028443 3.854215c-4.2190979 1.7697496-9.08803972-.0165711-11.16430732-4.0959686-2.0762676-4.0793976-.65697035-9.0708504 3.25439722-11.44522069l7.9513232-4.14431714c3.8259973-1.84187869 8.4213175-.66508999 10.8929359 2.78950829 2.4716184 3.45459824 2.104195 8.18717044-.8709556 11.21828364z" transform="matrix(-.50000048497 .86602512 -.86602512 -.50000048497 2907.18426053031 840.86730076131)"/></g><path d="m180.256074 687.248905c-2.630364 2.631455-6.64176 3.29773-9.980567 1.657727-107.6741683-52.674271-168.17876842-122.920446-166.48082961-192.75219 1.57369939-63.490939 53.58860541-120.516742 146.60252161-160.592289 85.600964-36.925866 133.474556-87.610864 134.799777-142.647396 1.532286-62.164757-56.114807-126.4016725-158.115376-176.3821372-3.949284-2.3114213-5.448338-7.28001669-3.437142-11.39235926 2.011196-4.11234256 6.851661-5.97601278 11.098574-4.27315952 108.378192 53.08870248 169.586815 123.25199198 168.054529 192.46208798-1.490873 62.164757-53.133061 118.486027-145.360128 158.230028-86.553466 37.298854-134.8411892 88.688387-136.2492361 145.0511-1.5322862 62.744961 55.5764363 127.106206 156.7073281 176.672239 2.102283.99536 3.721326 2.788329 4.498618 4.981884.777293 2.193556.648701 4.606702-.357304 6.705091-.465531.851805-1.067048 1.621745-1.780765 2.279374z" fill="#d75a4a" transform="matrix(-.50000048497 .86602512 -.86602512 -.50000048497 2977.98571922606 710.63080560753)"/><path d="m274.412946 15.021795c-1.632752 1.6447915-3.853814 2.5696619-6.170558 2.5694766h-259.24626699c-3.1144508.0000001-5.99232205-1.6627444-7.54954747-4.3618937-1.55722543-2.6991493-1.55722543-6.0246384-.00000001-8.7237877 1.55722542-2.69914929 4.43509666-4.3618938 7.54954746-4.36189373h259.24626701c3.530604-.01715092 6.721196 2.10346331 8.074621 5.36676265 1.353424 3.26329934.601056 7.02159378-1.904063 9.51133588z" fill="#57abc1" transform="matrix(-.50000048497 .86602512 -.86602512 -.50000048497 2509.02936193533 454.19567453607)"/><path d="m171.504802 15.3676511c-1.632752 1.6447916-3.853814 2.5696619-6.170558 2.5694766h-156.41743616c-3.1144508.0000001-5.99232205-1.6627444-7.54954748-4.3618937-1.55722542-2.6991493-1.55722542-6.02463837 0-8.72378767 1.55722541-2.6991493 4.43509666-4.3618938 7.54954746-4.36189373h156.54167618c3.530603-.01715092 6.721196 2.10346331 8.07462 5.36676265s.601056 7.02159375-2.028302 9.51133585z" fill="#f36" transform="matrix(-.50000048497 .86602512 -.86602512 -.50000048497 2423.69056317998 463.11786365788)"/><path d="m184.150549 15.2411618c-1.632753 1.6447916-3.853815 2.5696619-6.170558 2.5694767h-168.46866096c-4.81452372 0-8.71746634-3.9057728-8.71746634-8.72378761 0-4.81801484 3.90294262-8.72378757 8.71746634-8.72378757h168.46866096c3.530603-.01715092 6.721196 2.10346331 8.07462 5.36676265s.601056 7.02159373-1.904062 9.51133583z" fill="#f3ca3e" transform="matrix(-.50000048497 .86602512 -.86602512 -.50000048497 2891.30804545603 725.47692775028)"/><path d="m283.56104 15.7431057c-1.632752 1.6447915-3.853814 2.5696618-6.170558 2.5694766h-267.943027c-4.81452371 0-8.71746634-3.9057727-8.71746634-8.72378759 0-4.81801483 3.90294263-8.72378757 8.71746634-8.72378757h267.943027c3.530603-.01715092 6.721196 2.10346331 8.07462 5.36676265 1.353425 3.26329934.601056 7.02159381-1.904062 9.51133591z" fill="#8a19fa" transform="matrix(-.50000048497 .86602512 -.86602512 -.50000048497 2855.63678551764 648.76758939955)"/><path d="m292.075768 15.130405c-1.632753 1.6447915-3.853815 2.5696618-6.170558 2.5694766h-276.76402675c-4.81452372 0-8.71746634-3.9057727-8.71746634-8.72378759 0-4.81801483 3.90294262-8.72378757 8.71746634-8.72378757h276.76402675c3.530603-.01715092 6.721196 2.10346331 8.07462 5.36676265s.601056 7.02159381-1.904062 9.51133591z" fill="#10e0c1" transform="matrix(-.50000048497 .86602512 -.86602512 -.50000048497 2796.02998530699 611.12071144902)"/><path d="m201.332792 15.4762611c-1.632753 1.6447916-3.853814 2.5696619-6.170558 2.5694766h-186.35913794c-4.81452372 0-8.71746634-3.9057727-8.71746634-8.72378756 0-4.81801483 3.90294262-8.72378757 8.71746634-8.72378757h186.35913794c3.530603-.01715092 6.721196 2.10346331 8.07462 5.36676265s.601056 7.02159378-1.904062 9.51133588z" fill="#f36" transform="matrix(-.50000048497 .86602512 -.86602512 -.50000048497 2712.5910458944 616.75225193199)"/><path d="m205.196383 15.173995c-1.632752 1.6447916-3.853814 2.5696619-6.170558 2.5694767h-189.96208089c-4.81452372 0-8.71746634-3.9057728-8.71746634-8.72378761 0-4.81801484 3.90294262-8.72378757 8.71746634-8.72378757h189.96208089c3.530604-.01715092 6.721196 2.10346331 8.074621 5.36676265 1.353424 3.26329933.601056 7.02159373-1.904063 9.51133583z" fill="#10e0c1" transform="matrix(-.50000048497 .86602512 -.86602512 -.50000048497 2611.50699956759 556.08187302491)"/><path d="m289.170763 15.717382c-1.632753 1.6447916-3.853814 2.5696619-6.170558 2.5694767h-273.32673551c-4.81452364-.0000002-8.71746614-3.9057729-8.71746613-8.72378763 0-4.81801476 3.90294251-8.72378746 8.71746615-8.72378756h273.32673549c3.530603-.01715092 6.721196 2.10346331 8.07462 5.36676265s.601056 7.02159374-1.904062 9.51133584z" fill="#8a19fa" transform="matrix(-.50000048497 .86602512 -.86602512 -.50000048497 2573.33573670432 483.7026611402)"/><path d="m25.5555397 16.5332169c-.7097808.6521264-1.5210824 1.1840543-2.4019622 1.5748405l-7.9513232 4.1443171c-4.2469122 1.7028533-9.08737782-.1608169-11.09857389-4.2731595-2.01119606-4.1123426-.51214123-9.08093796 3.43714268-11.39235926l7.70284441-3.85421494c3.8216077-1.88849128 8.4471387-.74236615 10.9466995 2.71239941s2.1438187 8.21012499-.841893 11.25394939z" fill="#7383bf" transform="matrix(-.50000048497 .86602512 -.86602512 -.50000048497 1781.60026472061 151.52243676946)"/><path d="m164.808967 18.9574889c.840928-.3924546 1.599757-.9408698 2.236135-1.6164671 2.81639-2.6146617 3.447201-6.8794428 1.53227-10.27785317-1.045478-2.01588421-2.871817-3.51398836-5.052293-4.14432931-2.144065-.73083345-4.493607-.55120021-6.501769.49735665l-.662816.29010537c-4.205103 2.25632355-5.885336 7.42878626-3.809918 11.72837996.445975.8317902 1.003269 1.5985967 1.656577 2.2792999 2.684197 2.5733507 6.692172 3.1865174 10.022023 1.5336131.208029-.0635911.403998-.1617628.579791-.2901054zm-30.852963 17.1572959c.581878-.4335335 1.13523-.9042004 1.656577-1.4089838 3.028593-3.1175884 3.293209-7.9936795.620144-11.4213325-2.673297-3.4274209-7.464221-4.3548297-11.221958-2.1720769-5.217881 3.1498481-10.394713 6.3407751-15.281417 9.4906232-3.970636 2.6849832-5.105402 8.0333659-2.567544 12.1013394.352745.4964284.740277.9673274 1.159581 1.4089838 2.930724 2.9286718 7.513619 3.3958575 10.974503 1.1191105 4.472503-2.9010537 9.235132-5.9265046 14.660114-9.1176637zm-42.7381998 29.3004105c.2734291-.1754557.5238985-.3840995.7453784-.6217538 3.2456663-3.1651657 3.5508679-8.2823924.7040974-11.8112341-1.4664057-1.8155955-3.600266-2.9653411-5.9222103-3.1911591-2.2672121-.3072796-4.5606307.3376826-6.3361806 1.7821753-5.0110118 3.978389-9.7321285 7.9570102-13.8734548 11.769691-1.7454008 1.552644-2.801083 3.7370214-2.9330433 6.0701648-.1321922 2.3331435.6700057 4.6231192 2.2291778 6.3628231l.2898952.2901054c3.227113 3.3540823 8.5386881 3.5195584 11.9682638.3729595 4.1828393-3.6882837 8.6140608-7.3767994 13.1280764-11.0237721zm-48.2464402 49.8976597c-2.9854564 3.00085-7.7070369 3.38727-11.1400913.911627-.4408726-.296603-.8564663-.62918-1.2423747-.994481-2.9627286-2.992263-3.3305476-7.689185-.8696855-11.106858 0 0 5.0110118-7.2110914 11.2643983-14.6294339 2.0023639-2.4032329 5.1397253-3.546016 8.2172524-2.992727 3.077527.5530569 5.621415 2.7170109 6.6627185 5.6672665 1.0413034 2.9504876.4197681 6.23332-1.6278194 8.5980274-3.64433 4.392891-7.1643531 8.868869-10.3119188 13.386158-.2817781.414734-.6004308.803243-.9524795 1.160421zm-22.8186919 47.493731c-2.1753733 2.151885-5.3134305 3.015471-8.2824208 2.2793-1.5631147-.317724-3.00099469-1.080585-4.1413263-2.196446-2.15032636-2.177183-3.01328628-5.317283-2.27788023-8.288659 1.6289789-6.059489 3.63435768-12.01129 6.00500433-17.820592 1.9483274-4.343226 6.9305817-6.428271 11.3884735-4.765852 4.4388748 1.852265 6.5622988 6.933751 4.7626297 11.396964-2.1285263 5.073827-3.8864505 10.295492-5.259394 15.623915-.4030703 1.421981-1.1579573 2.7191-2.1950862 3.77137zm-1.0352736 52.425754c-1.1435784 1.127698-2.577052 1.916784-4.1410944 2.2793-2.8933857.648908-5.91618051-.244617-7.99275754-2.362154-1.15401466-1.143712-1.98311483-2.574047-2.40195536-4.144329-1.37433499-6.192706-2.26048652-12.483815-2.65056945-18.815307-.14981782-4.815517 3.48616327-8.909019 8.28265265-9.324682 4.819681-.213054 8.9241327 3.47082 9.2351322 8.288658.3123911 5.397817 1.0603206 10.761285 2.2363673 16.038418.5869797 2.943757-.3835893 5.982437-2.5677754 8.040096zm21.2451409 48.695695c.2898952-.290105.6625844-.538667 1.0352736-.911627l.0827941-.16594c2.9205198-3.028004 3.2853239-7.70311.8696855-11.148169l-.3314082-.455814c-3.2053128-4.298433-6.11099-8.812473-8.6966229-13.510555-1.1303593-2.024007-3.0244183-3.509811-5.2584664-4.125299-2.2338161-.615255-4.6209289-.308672-6.6272353.851286-4.1434136 2.388147-5.6311556 7.645088-3.3544349 11.852777 3.1018782 5.389229 6.4744026 10.617856 10.1048177 15.66569.2715738.372495.5765435.719229.9111985 1.036024 3.0490013 2.970911 7.7777712 3.353618 11.2643983.911627zm37.8930085 36.842918c-3.1104592 3.119678-8.0655792 3.405141-11.5130125.663065-4.8867048-3.895535-9.4835144-7.915467-13.9147359-11.976942-1.7356603-1.57446-2.7593381-3.785759-2.8372619-6.128882-.0781558-2.342891.796168-4.617549 2.4230597-6.304106 1.5427061-1.780319 3.7519392-2.843265 6.1044964-2.937491 2.3527891-.094226 4.6397141.788855 6.3194826 2.440134 3.8929442 3.646973 8.2826527 7.293946 12.8794623 11.065316l.6213033.621753c3.2479854 3.086722 3.5900617 8.149408.7868914 11.645526zm34.0415771 30.502375c3.350956 1.736455 7.436159 1.135589 10.146331-1.492069.727521-.553057 1.273683-1.211713 1.697858-1.947884 1.898001-3.429278 1.270668-7.704967-1.53227-10.443561-.558686-.565126-1.201094-1.040434-1.904959-1.408984-5.425214-3.108305-10.353432-5.926505-14.867448-8.703161-4.105379-2.540627-9.491631-1.269733-12.0304169 2.838855-2.5387858 4.108356-1.2688131 9.498514 2.8367981 12.039141 4.8039108 2.942597 10.1048178 6.050902 15.6541068 9.117663zm57.978337 21.342937c-2.600939 2.581009-6.529831 3.274941-9.856436 1.740632l-9.317926-4.144329-6.791664-2.942365c-2.120409-.899095-3.770956-2.640887-4.555528-4.807394-.897284-2.14794-.897284-4.566027 0-6.713735.967554-2.163722 2.756787-3.852367 4.97205-4.692512 2.215031-.839913 4.67311-.761933 6.830625.216534 2.112061.994714 4.141327 1.906341 6.460488 2.901054 3.06454 1.243276 6.2949 2.693803 9.732129 4.144329.914677.432838 1.764881.990768 2.526262 1.657779 2.590271 2.597023 3.28486 6.535958 1.739371 9.86335-.361789 1.045772-.956654 1.995229-1.739371 2.776657zm36.070843 26.482443c3.43607 1.997549 7.784497 1.436601 10.601814-1.367673l-.124307.165708c.521348-.432837.981005-.934603 1.366682-1.491838 2.203203-3.458752 1.721977-7.982539-1.159581-10.899607-.304274-.282911-.637305-.532865-.99376-.745919l-.455715-.331648c-5.052293-3.190927-10.228893-6.423629-15.5298-9.365994-2.7002-1.554733-6.024022-1.549627-8.719583.012997-2.695561 1.562855-4.353066 4.446039-4.348427 7.563395.004638 3.117588 1.670955 5.995666 4.371155 7.550398 4.721116 2.65226 9.525027 5.594624 14.287657 8.620075.114103.12695.255803.226282.41397.290106zm51.598556 31.908806c-3.374843 3.189766-8.68178 3.149151-12.007457-.122077l-.786892-.787462-.786891-.78723c-3.313154-3.315556-6.957484-6.713966-10.725889-9.98798-1.764186-1.492302-2.86602-3.623068-3.064772-5.926272-.164892-2.328502.577239-4.630546 2.070779-6.423629 1.509078-1.800742 3.684684-2.910569 6.027268-3.074653 2.342817-.164084 4.651542.631501 6.396711 2.204337 4.141326 3.522575 7.992758 7.169548 11.719882 10.858063l1.739371 1.740633c3.218764 3.565279 2.959945 9.061963-.58211 12.30627zm27.748997 44.885335c.937869-.445138 1.792248-1.047861 2.526263-1.782175l-.124307.165708c2.701359-2.559194 3.497759-6.544081 1.987985-9.946205-2.592127-5.7044-5.53839-11.241003-8.821162-16.577317-2.538786-4.108588-7.925038-5.379482-12.030418-2.838855-4.105611 2.540627-5.375584 7.930784-2.836798 12.039141 2.901967 4.678123 5.502674 9.536808 7.785657 14.546579.40307.998427 1.009531 1.901699 1.780652 2.652492 2.572877 2.537377 6.440543 3.229221 9.732128 1.740632zm12.341185 49.731719-.058443.060342c-.035019.035973-.070502.07125-.106217.106527-1.697163 1.673328-4.036269 2.536681-6.420135 2.361226-2.150326-.112793-4.18423-1.012584-5.714877-2.528095-1.781116-1.709997-2.707389-4.125994-2.526262-6.589337.252093-5.405243.099956-10.821859-.455484-16.204358-.393329-4.681836 2.963889-8.844964 7.620069-9.44908 2.306406-.308208 4.636003.36855 6.418974 1.86503 1.771608 1.449598 2.914258 3.528609 3.188847 5.802107.60275 5.961317.782717 11.957911.538278 17.944758v1.11911c-.150514 2.076227-1.032027 4.028752-2.48475 5.51177zm-14.229446 50.752427c.644495-.595064 1.173032-1.306867 1.557085-2.098042l.248382-.497357c2.688836-5.390622 5.080587-10.924672 7.164585-16.577317.783645-2.176022.669542-4.574846-.317261-6.666622-.986803-2.091775-2.765136-3.704297-4.942365-4.481547-4.38391-1.482091-9.171587.643337-11.015784 4.890248-1.859967 5.222129-4.05946 10.316611-6.584795 15.251187-1.665621 3.364527-.998863 7.417879 1.656577 10.070602.659106.678615 1.429531 1.23933 2.27788 1.657778 3.301558 1.69468 7.310693 1.069213 9.939462-1.532684zm-42.382209 43.613745c3.452999 3.088114 8.70961 2.961164 12.009777-.290105l.248382-.331649c6.212106-6.920985 11.844189-14.049223 11.844189-14.049223 2.970382-3.761158 2.360674-9.214442-1.366682-12.225736-3.855606-3.003635-9.413012-2.317826-12.423747 1.533381-3.188847 4.227183-6.709102 8.413056-10.850428 12.971655-3.192558 3.44065-3.082629 8.795067.248614 12.101572zm-13.666354 24.700036.496997-.497357c3.319183-3.209494 3.53788-8.460865.496996-11.935631-1.510702-1.788442-3.672392-2.899429-6.005004-3.086025-2.332845-.186828-4.643425.566054-6.418975 2.091544-4.224121 3.646972-8.655342 7.335488-13.169358 10.733666l.248383.37296-.37269-.248562c-3.848416 3.012918-4.533728 8.574586-1.532269 12.432987.210811.320277.461281.612703.745378.870317 3.134346 3.065833 8.047722 3.348744 11.51278.663064 4.886937-3.729826 9.566541-7.58405 13.997762-11.396963zm-42.075615 31.041043c-.43925.421929-.910039.809974-1.408195 1.160189-4.679604 2.942597-9.690616 6.092213-14.784422 9.117664l-.496996.372959c-2.02486 1.146729-4.416379 1.458882-6.667589.870316-2.255152-.605508-4.168228-2.101059-5.300907-4.144329-2.433032-4.158022-1.065886-9.501067 3.064772-11.977174 4.845192-2.901054 9.814923-5.967816 14.660114-9.117432 1.964098-1.219835 4.322453-1.635498 6.584795-1.160422 2.265821.469739 4.249399 1.827896 5.507776 3.77137 2.274634 3.541839 1.718731 8.200467-1.159348 11.106859z" fill="#7383bf" transform="matrix(-.50000048497 .86602512 -.86602512 -.50000048497 2414.87694139184 385.51937926651)"/><path d="m22.8838109 17.3308739c-.6790855.6736047-1.4621601 1.2333492-2.3191359 1.6577268l-7.7028444 3.854215c-4.21909791 1.7697496-9.0880397-.0165711-11.1643073-4.0959686-2.0762676-4.0793976-.65697035-9.07085041 3.25439722-11.4452207l7.95132318-4.14431713c3.8259973-1.84187869 8.4213176-.66509 10.8929359 2.78950828 2.4716184 3.45459829 2.104195 8.18717045-.8709556 11.21828365z" fill="#7383bf" transform="matrix(-.50000048497 .86602512 -.86602512 -.50000048497 2342.17562385333 519.04652219311)"/><path d="m177.24321 689.704886c-2.630365 2.631455-6.64176 3.29773-9.980567 1.657727-107.6741685-52.674271-168.1787686-122.920446-166.48082979-192.75219 1.57369939-63.490939 53.58860539-120.516742 146.60252179-160.592289 85.600964-36.884423 133.474556-87.527978 134.799776-142.605953 1.532287-62.164757-56.114807-126.4016724-158.115375-176.3821371-3.543245-2.4754707-4.746239-7.1709909-2.830282-11.04714078 1.915958-3.87614986 6.375397-5.76870277 10.491713-4.45260531 108.378192 53.13014569 169.586816 123.25199119 167.888877 192.46208819-1.490873 62.164757-53.133061 118.486027-145.360127 158.230028-86.346401 37.298854-134.6755374 88.72983-136.0421711 145.0511-1.5322863 62.744961 55.5764362 127.106206 156.7073281 176.672239 4.15313 2.127581 5.903389 7.14498 3.975662 11.396872-.420237.872269-.979749 1.670151-1.656526 2.362261z" fill="#d75a4a" transform="matrix(-.50000048497 .86602512 -.86602512 -.50000048497 2416.2701162211 390.71126338343)"/><path d="m274.199796 15.71675c-1.632753 1.6447915-3.853814 2.5696618-6.170558 2.5694766h-259.2462673c-4.81452371 0-8.71746634-3.9057728-8.71746634-8.7237876 0-4.81801483 3.90294263-8.72378757 8.71746634-8.72378757h259.2462673c3.530603-.01715092 6.721196 2.10346331 8.07462 5.36676265s.601056 7.02159382-1.904062 9.51133592z" fill="#f36" transform="matrix(-.50000048497 .86602512 -.86602512 -.50000048497 1947.15263385614 130.950274285)"/><path d="m174.291652 17.0626061c-1.632753 1.6447915-3.853814 2.5696618-6.170558 2.5694766h-156.4174365c-4.81452369 0-8.71746631-3.9057727-8.71746631-8.7237876 0-4.8180148 3.90294262-8.72378754 8.71746631-8.72378754h156.4174365c3.530603-.01715092 6.721196 2.10346331 8.07462 5.36676265 1.353424 3.26329929.601056 7.02159379-1.904062 9.51133589z" fill="#eb7937" transform="matrix(-.50000048497 .86602512 -.86602512 -.50000048497 1864.17986167571 137.77438853179)"/><path d="m184.137685 14.9361168c-1.632753 1.6447916-3.853815 2.5696619-6.170558 2.5694766h-168.46866115c-3.1144508.0000001-5.99232205-1.6627444-7.54954747-4.3618937-1.55722542-2.6991493-1.55722542-6.02463838-.00000001-8.72378768 1.55722542-2.6991493 4.43509667-4.3618938 7.54954747-4.36189374h168.46866116c3.530603-.01715091 6.721196 2.10346331 8.07462 5.36676265s.601056 7.02159377-1.904062 9.51133587z" fill="#f3ca3e" transform="matrix(-.50000048497 .86602512 -.86602512 -.50000048497 2328.66543448795 401.55807380705)"/><path d="m283.34789 15.2819729c-1.632753 1.6447916-3.853814 2.5696619-6.170558 2.5694767h-267.98444045c-3.1144508 0-5.99232205-1.6627445-7.54954747-4.3618938-1.55722542-2.6991493-1.55722543-6.02463835-.00000001-8.72378765s4.43509667-4.3618938 7.54954747-4.36189374h267.98444046c3.530603-.01715091 6.721196 2.10346331 8.07462 5.36676265s.601056 7.02159374-1.904062 9.51133584z" fill="#f3ca3e" transform="matrix(-.50000048497 .86602512 -.86602512 -.50000048497 2292.72296551047 324.92342306771)"/><path d="m291.862617 15.8253599c-1.632752 1.6447916-3.853814 2.5696619-6.170558 2.5694767h-276.76402606c-3.1144508 0-5.99232205-1.6627445-7.54954747-4.3618938-1.55722543-2.6991493-1.55722543-6.02463836-.00000001-8.72378766 1.55722542-2.69914929 4.43509666-4.3618938 7.54954746-4.36189373h276.76402608c3.530603-.01715092 6.721196 2.10346331 8.07462 5.36676265 1.353425 3.26329934.601057 7.02159374-1.904062 9.51133584z" fill="#10e0c1" transform="matrix(-.50000048497 .86602512 -.86602512 -.50000048497 2234.15325636178 287.87531069795)"/><path d="m202.119642 15.1297729c-1.632753 1.6447915-3.853815 2.5696618-6.170558 2.5694766h-186.35913825c-3.1144508.0000001-5.99232205-1.6627444-7.54954747-4.3618937-1.55722542-2.6991493-1.55722542-6.0246384-.00000001-8.7237877 1.55722542-2.6991493 4.43509667-4.3618938 7.54954747-4.36189373h186.35913826c3.530603-.01715092 6.721196 2.1034633 8.07462 5.36676264s.601056 7.02159379-1.904062 9.51133589z" fill="#fc3952" transform="matrix(-.50000048497 .86602512 -.86602512 -.50000048497 2150.34829318018 292.14082607595)"/><path d="m204.983233 15.8275068c-1.632753 1.6447916-3.853814 2.5696619-6.170558 2.5694767h-189.9620812c-4.81452372 0-8.71746634-3.9057728-8.71746634-8.72378762 0-4.81801484 3.90294262-8.72378757 8.71746634-8.72378757h189.9620812c3.530603-.01715092 6.721196 2.10346331 8.07462 5.36676265s.601056 7.02159374-1.904062 9.51133584z" fill="#f36" transform="matrix(-.50000048497 .86602512 -.86602512 -.50000048497 2049.6302714884 232.83647277384)"/><path d="m288.957613 15.173363c-1.632753 1.6447915-3.853815 2.5696618-6.170558 2.5694766h-273.32673581c-4.81452372 0-8.71746634-3.9057728-8.71746634-8.72378759 0-4.81801484 3.90294262-8.72378757 8.71746634-8.72378757h273.32673581c3.530603-.01715092 6.721196 2.10346331 8.07462 5.36676265s.601056 7.02159381-1.904062 9.51133591z" fill="#8a19fa" transform="matrix(-.50000048497 .86602512 -.86602512 -.50000048497 2010.42191669715 159.85849480836)"/><path d="m25.5555341 16.5333803c-.7097809.6521265-1.5210825 1.1840544-2.4019622 1.5748405l-7.9513233 4.1443172c-4.2469122 1.7028532-9.08737779-.160817-11.09857386-4.2731595-2.01119607-4.1123426-.51214123-9.080938 3.43714267-11.3923593l7.70284439-3.85421494c3.8216078-1.88849128 8.4471387-.74236615 10.9466995 2.71239941s2.1438187 8.21012503-.8418929 11.25394933z" fill="#7383bf" transform="matrix(-.50000048497 .86602512 -.86602512 -.50000048497 2913.58348411468 805.07344889571)"/><path d="m164.808967 18.957721c.840928-.3924546 1.599757-.9408698 2.236135-1.6164672 2.81639-2.6146617 3.447201-6.8794427 1.532502-10.27785309-1.045942-2.01588421-2.872049-3.51398835-5.052525-4.14432931-2.144296-.73083345-4.493607-.5512002-6.502001.49735665l-.662352.29010538c-4.205103 2.25632354-5.885568 7.42878627-3.809918 11.72837997.445743.8317901 1.002805 1.5985967 1.656345 2.2792999 2.684197 2.5733507 6.692172 3.1865174 10.022023 1.533613.208261-.0635911.403998-.1617627.579791-.2901053zm-30.852731 17.1572959c.581646-.4335335 1.134998-.9042005 1.656345-1.4089838 3.028825-3.1175884 3.293209-7.9936795.620144-11.4213325-2.673529-3.4274209-7.464452-4.3548297-11.221958-2.1720769-5.218113 3.1498481-10.394481 6.3407751-15.281417 9.4906232-3.970404 2.6849832-5.105402 8.0333659-2.567776 12.1013394.352977.4964283.740277.9673274 1.159581 1.4089838 2.930956 2.9286718 7.513619 3.3958574 10.974735 1.1191105 4.472735-2.9010537 9.2349-5.9265046 14.660346-9.1176637zm-42.7384318 29.3004105c.273661-.1752237.5241305-.3840995.7458423-.6217539 3.2454343-3.1651656 3.5506359-8.2823923.7036335-11.811234-1.4661738-1.8155955-3.600266-2.9653411-5.9217465-3.1911591-2.2676759-.3072796-4.5608626.3376826-6.3364125 1.7821753-5.0107799 3.978389-9.7321284 7.9570101-13.8732229 11.769691-1.7458646 1.5526439-2.801083 3.7370213-2.9332752 6.0701648-.1321922 2.3331434.6702376 4.6231192 2.2291779 6.3628231l.2898951.2901054c3.2273449 3.3540822 8.5386881 3.5195584 11.9682638.3729594 4.1828394-3.6882836 8.6138289-7.3767994 13.1278445-11.023772zm-48.2459764 49.8976596c-2.9856883 3.00085-7.7070368 3.387271-11.1403232.911627-.4411045-.296603-.8562344-.62918-1.2426066-.994481-2.9624967-2.992263-3.3303157-7.689185-.8696855-11.106858 0 0 5.0112437-7.2110913 11.2646302-14.6294338 2.0023639-2.4032329 5.1397253-3.546016 8.2172524-2.992727 3.077527.5530569 5.6211831 2.7170108 6.6629504 5.6672664 1.0413034 2.9504877.4197682 6.2333201-1.6280512 8.5980274-3.6443301 4.392891-7.1643531 8.868869-10.3119189 13.386158-.2815461.414734-.6006627.803244-.9522476 1.160421zm-22.8186919 47.493731c-2.1758371 2.151886-5.3136623 3.015471-8.2826526 2.2793-1.5631148-.317724-3.00099477-1.080585-4.1415583-2.196446-2.15032636-2.177183-3.01305436-5.317283-2.2774164-8.288659 1.62851507-6.059488 3.63412576-12.01129 6.0047724-17.820592 1.9485594-4.343226 6.9305817-6.428271 11.3884735-4.765851 4.4388748 1.852496 6.5622989 6.93375 4.7626297 11.396963-2.1285263 5.073827-3.8864505 10.295492-5.259394 15.623915-.4030702 1.421981-1.1581892 2.7191-2.1948543 3.77137zm-1.0357374 52.425754c-1.1438104 1.127698-2.577052 1.916784-4.1410944 2.2793-2.8933857.648908-5.91618051-.244617-7.99275754-2.362154-1.15401466-1.143711-1.98288291-2.574047-2.40218728-4.144329-1.37387115-6.192706-2.2602546-12.483815-2.65033753-18.815306-.14981782-4.815518 3.48616327-8.90902 8.28265265-9.324683 4.819681-.213054 8.9241327 3.47082 9.2353642 8.288658.3121591 5.397817 1.0598567 10.761285 2.2361353 16.038418.5867478 2.943757-.3835893 5.982437-2.5677754 8.040096zm21.2453728 48.695463c.2898952-.290105.6623525-.538667 1.0352737-.911627l.0830259-.16594c2.9202879-3.028004 3.2848601-7.70311.8696855-11.148169l-.3316401-.455814c-3.2050809-4.298433-6.11099-8.812473-8.6968548-13.510555-1.1303593-2.024007-3.0241864-3.509811-5.2580025-4.125299-2.2338162-.615255-4.6211608-.308672-6.6272354.851286-4.1434136 2.388147-5.6313874 7.645088-3.3544349 11.852777 3.1016463 5.389229 6.4741707 10.617856 10.1045858 15.66569.2713419.372495.5765435.719229.9109666 1.036024 3.0492332 2.970911 7.7780031 3.353618 11.2646302.911627zm37.8927766 36.84315c-3.1099953 3.119678-8.0651154 3.405141-11.5127806.663065-4.8864728-3.895535-9.4835144-7.915467-13.9149678-11.976942-1.7351965-1.57446-2.7588743-3.785759-2.8372619-6.128882-.0779238-2.342891.7964-4.617549 2.4235235-6.304106 1.5422423-1.780319 3.7514754-2.843265 6.1044964-2.937491 2.3525572-.094226 4.6397141.788855 6.3192507 2.440134 3.8929442 3.646973 8.2826527 7.293946 12.8796942 11.065316l.6210714.621753c3.2477535 3.086722 3.5900617 8.149408.7866595 11.645526zm34.0415771 30.502143c3.351188 1.736455 7.436159 1.135589 10.146331-1.492069.727289-.553057 1.273683-1.211713 1.69809-1.947884 1.897537-3.429278 1.270436-7.704967-1.532502-10.443561-.558454-.565126-1.201326-1.040434-1.904959-1.408984-5.424982-3.108305-10.3532-5.926505-14.867216-8.703161-4.105843-2.540627-9.491863-1.269733-12.0308808 2.838855-2.5385539 4.108356-1.2685812 9.498514 2.8367981 12.039141 4.8043747 2.942597 10.1050497 6.050902 15.6543387 9.117663zm57.978105 21.343169c-2.600707 2.581009-6.529367 3.274941-9.855972 1.740632l-9.317926-4.144329-6.791896-2.942365c-2.120177-.899095-3.770956-2.640887-4.555296-4.807394-.897516-2.14794-.897516-4.566027 0-6.713735.967554-2.163722 2.756555-3.852367 4.971818-4.692512 2.214799-.839913 4.67311-.761933 6.830857.216534 2.111829.994714 4.141095 1.906341 6.460256 2.901054 3.06454 1.243276 6.294668 2.693803 9.732129 4.14433.914677.432837 1.764881.990767 2.52603 1.657778 2.590503 2.597023 3.28486 6.535958 1.739371 9.86335-.361789 1.045772-.956422 1.995229-1.739371 2.776657zm36.070843 26.482211c3.43607 1.997549 7.784497 1.436601 10.601814-1.367673l-.124307.165708c.521348-.432837.981006-.934603 1.366914-1.491838 2.203203-3.458752 1.721745-7.982539-1.159581-10.899607-.304274-.282911-.637769-.532865-.993992-.745919l-.455483-.331648c-5.052525-3.190927-10.229357-6.423629-15.530032-9.365994-2.700432-1.554733-6.024254-1.549627-8.719583.012997-2.695329 1.562855-4.353066 4.446039-4.348427 7.563395.004638 3.117588 1.671187 5.995666 4.371155 7.550398 4.721348 2.65226 9.525259 5.594624 14.287425 8.620075.114103.12695.256035.226282.414202.290106zm51.725183 31.786961c-.041745.041079-.083954.081926-.126627.122077-3.375307 3.189766-8.681548 3.149152-12.007689-.122077l-1.573319-1.574924c-3.313154-3.315324-6.957484-6.713734-10.726121-9.987747-1.764418-1.492302-2.86602-3.623068-3.06454-5.926273-.165124-2.328502.577007-4.630546 2.070547-6.423629 1.50931-1.800742 3.684684-2.910569 6.0275-3.074653 2.342353-.164084 4.65131.631501 6.396247 2.204337 4.141559 3.522575 7.992758 7.169548 11.720114 10.858064l1.739371 1.740632c3.17957 3.521647 2.965743 8.927586-.455483 12.184193zm27.622602 45.007412c.937869-.445138 1.792248-1.047861 2.526494-1.782175l-.124307.165708c2.700896-2.559194 3.49776-6.544081 1.987522-9.946205-2.591895-5.7044-5.538158-11.241003-8.820698-16.577317-2.539018-4.108588-7.925038-5.379482-12.030882-2.838855-4.105379 2.540627-5.375352 7.930784-2.836798 12.039141 2.902199 4.678123 5.502906 9.536808 7.785889 14.546579.40307.998427 1.009299 1.901699 1.780652 2.652492 2.572877 2.537377 6.440311 3.228989 9.732128 1.740632zm12.341185 49.731487-.057515.059646c-.035251.036205-.07143.071714-.107145.107223-1.697163 1.673328-4.036269 2.536681-6.419903 2.361226-2.150326-.112793-4.18423-1.012584-5.715341-2.528095-1.781116-1.709997-2.706925-4.125994-2.52603-6.589337.252324-5.405243.099724-10.821859-.455484-16.204358-.393329-4.681836 2.963889-8.844964 7.619837-9.44908 2.306638-.308208 4.636467.36855 6.418974 1.86503 1.77184 1.449598 2.914259 3.528609 3.188847 5.802107.602982 5.961317.782949 11.957911.53851 17.944758v1.11911c-.150282 2.076227-1.032491 4.028752-2.48475 5.51177zm-14.23594 50.758461.113639-.11465c.598808-.569999 1.088151-1.244436 1.449476-1.989194l.248614-.497357c2.688836-5.390622 5.080355-10.924672 7.164353-16.577317.783877-2.176022.669774-4.574846-.316797-6.666621-.987035-2.091776-2.765368-3.704298-4.942597-4.481548-4.383678-1.482091-9.171355.643337-11.015552 4.890248-1.860431 5.222129-4.059924 10.316611-6.585027 15.251188-1.665621 3.364526-.999094 7.417878 1.656809 10.070601.659106.678615 1.429531 1.239331 2.277417 1.657779 3.302021 1.694911 7.311387 1.069212 9.949665-1.543129zm-42.375715 43.607943c3.453231 3.088114 8.709378 2.961164 12.009545-.290105l.248614-.331649c6.212106-6.920985 11.844421-14.049222 11.844421-14.049222 2.969918-3.761159 2.360442-9.214443-1.366914-12.225737-3.855374-3.003635-9.413012-2.317826-12.423747 1.533381-3.188847 4.227183-6.70887 8.413056-10.850428 12.971655-3.192558 3.44065-3.082629 8.795067.248614 12.101572zm-13.666817 24.700036.497228-.497357c3.319183-3.209494 3.538112-8.460865.496764-11.935631-1.510702-1.788442-3.67216-2.899429-6.004772-3.086025-2.332613-.186828-4.643425.566054-6.418975 2.091544-4.22412 3.646972-8.655574 7.335488-13.169589 10.733666l.248614.37296-.372921-.248562c-3.847953 3.012918-4.533497 8.574586-1.532038 12.432988.211043.320276.461513.612702.745378.870316 3.134115 3.065833 8.047954 3.348744 11.512781.663065 4.886936-3.729827 9.56654-7.584051 13.99753-11.396964zm-42.075152 31.040811c-.43925.422161-.910039.810206-1.408195 1.160421-4.679604 2.942597-9.690848 6.092213-14.784654 9.117664l-.496764.372959c-2.024628 1.146729-4.416611 1.458882-6.667589.870316-2.255152-.605508-4.167996-2.101059-5.300675-4.144329-2.433264-4.158022-1.065886-9.501067 3.06454-11.977174 4.845192-2.901054 9.814691-5.967816 14.660346-9.117432 1.963866-1.219835 4.321989-1.635498 6.584563-1.160421 2.265821.469738 4.249631 1.827895 5.508008 3.771369 2.27417 3.541839 1.718499 8.200467-1.15958 11.106627z" fill="#7383bf" transform="matrix(-.50000048497 .86602512 -.86602512 -.50000048497 3546.86016078591 1039.07039139275)"/><path d="m177.243205 689.70505c-2.630365 2.631455-6.641761 3.297729-9.980568 1.657726-107.6741682-52.67427-168.17876828-122.920446-166.48082946-192.75219 1.57369938-63.490938 53.58860546-120.516742 146.60252146-160.592289 85.600964-36.884422 133.474556-87.527978 134.799777-142.605952 1.532286-62.164757-56.114807-126.401673-158.115375-176.3821376-3.543246-2.4754707-4.74624-7.170991-2.830283-11.04714082 1.915958-3.87614986 6.375397-5.76870277 10.491714-4.45260531 108.378192 53.13014573 169.586815 123.25199173 167.888876 192.46208773-1.490873 62.164757-53.13306 118.486027-145.360127 158.230028-86.3464007 37.298855-134.6755371 88.72983-136.0421708 145.0511-1.5322862 62.744962 55.5764362 127.106207 156.7073288 176.67224 4.153129 2.127581 5.903388 7.14498 3.975661 11.396872-.420237.872268-.979749 1.670151-1.656525 2.362261z" fill="#d75a4a" transform="matrix(-.50000048497 .86602512 -.86602512 -.50000048497 3548.25333561516 1044.26227550967)"/></g></g></g></svg>